M48
; DRILL file KiCad 10.0.5 date 2026-09-15T15:30:31
; FORMAT={-:-/ absolute / metric / decimal}
; #@! TF.CreationDate,2026-09-15T15:30:31+09:00
; #@! TF.GenerationSoftware,Kicad,Pcbnew,10.0.5
; #@! TF.FileFunction,Plated,1,2,PTH
FMAT,2
METRIC
; #@! TA.AperFunction,Plated,PTH,ViaDrill
T1C0.300
; #@! TA.AperFunction,Plated,PTH,ComponentDrill
T2C0.400
; #@! TA.AperFunction,Plated,PTH,ComponentDrill
T3C0.700
; #@! TA.AperFunction,Plated,PTH,ComponentDrill
T4C0.750
; #@! TA.AperFunction,Plated,PTH,ComponentDrill
T5C0.800
; #@! TA.AperFunction,Plated,PTH,ComponentDrill
T6C1.000
; #@! TA.AperFunction,Plated,PTH,ComponentDrill
T7C1.100
; #@! TA.AperFunction,Plated,PTH,ComponentDrill
T8C1.500
%
G90
G05
T1
X96.0Y-99.0
X96.5Y-73.5
X97.0Y-98.0
X103.5Y-59.5
X105.1Y-73.0
X108.0Y-103.5
X109.5Y-97.0
X114.5Y-80.5
X114.5Y-82.0
X116.0Y-73.0
X116.5Y-98.5
X118.0Y-98.5
X120.0Y-103.5
X123.0Y-113.5
X123.5Y-89.0
X126.0Y-108.5
X127.0Y-118.0
X128.0Y-113.5
X133.0Y-125.0
X139.5Y-54.5
X143.0Y-65.0
X150.5Y-55.5
X156.0Y-121.0
X157.5Y-112.0
X166.0Y-123.0
X180.5Y-112.5
T2
X100.56Y-86.9
X100.56Y-88.3
X101.26Y-86.2
X101.26Y-87.6
X101.26Y-89.0
X101.96Y-86.9
X101.96Y-88.3
X102.66Y-86.2
X102.66Y-87.6
X102.66Y-89.0
X103.36Y-86.9
X103.36Y-88.3
T3
X170.5Y-44.5
X172.5Y-44.5
X174.5Y-44.5
T4
X179.0Y-60.5
X179.0Y-62.5
X182.0Y-127.0
X182.0Y-129.0
T5
X161.705Y-94.0
X164.205Y-94.0
T6
X117.65Y-60.5
X118.1Y-73.76
X118.1Y-76.3
X118.1Y-78.84
X118.1Y-81.38
X118.1Y-83.92
X118.1Y-86.46
X118.1Y-89.0
X120.19Y-60.5
X122.73Y-60.5
X123.5Y-129.5
X125.27Y-60.5
X126.04Y-129.5
X127.81Y-60.5
X128.58Y-129.5
X130.35Y-60.5
X131.12Y-129.5
X133.66Y-129.5
X136.2Y-129.5
X164.8Y-68.1
X164.8Y-70.64
X164.8Y-73.18
X164.8Y-75.72
X164.8Y-78.26
X164.8Y-80.8
X164.8Y-83.34
X181.8Y-74.0
X181.8Y-78.0
T7
X94.0Y-47.75
X94.0Y-52.25
X100.5Y-47.75
X100.5Y-52.25
X105.0Y-48.0
X105.0Y-52.5
X111.5Y-48.0
X111.5Y-52.5
T8
X149.8Y-125.2
X149.8Y-139.2
X172.6Y-125.2
X172.6Y-128.4
X172.6Y-136.0
X172.6Y-139.2
M30
