%TF.GenerationSoftware,KiCad,Pcbnew,10.0.5*%
%TF.CreationDate,2026-09-15T15:30:29+09:00*%
%TF.ProjectId,yomogame,796f6d6f-6761-46d6-952e-6b696361645f,rev?*%
%TF.SameCoordinates,Original*%
%TF.FileFunction,Soldermask,Top*%
%TF.FilePolarity,Negative*%
%FSLAX46Y46*%
G04 Gerber Fmt 4.6, Leading zero omitted, Abs format (unit mm)*
G04 Created by KiCad (PCBNEW 10.0.5) date 2026-09-15 15:30:29*
%MOMM*%
%LPD*%
G01*
G04 APERTURE LIST*
G04 Aperture macros list*
%AMRoundRect*
0 Rectangle with rounded corners*
0 $1 Rounding radius*
0 $2 $3 $4 $5 $6 $7 $8 $9 X,Y pos of 4 corners*
0 Add a 4 corners polygon primitive as box body*
4,1,4,$2,$3,$4,$5,$6,$7,$8,$9,$2,$3,0*
0 Add four circle primitives for the rounded corners*
1,1,$1+$1,$2,$3*
1,1,$1+$1,$4,$5*
1,1,$1+$1,$6,$7*
1,1,$1+$1,$8,$9*
0 Add four rect primitives between the rounded corners*
20,1,$1+$1,$2,$3,$4,$5,0*
20,1,$1+$1,$4,$5,$6,$7,0*
20,1,$1+$1,$6,$7,$8,$9,0*
20,1,$1+$1,$8,$9,$2,$3,0*%
G04 Aperture macros list end*
%ADD10RoundRect,0.250000X0.450000X-0.350000X0.450000X0.350000X-0.450000X0.350000X-0.450000X-0.350000X0*%
%ADD11RoundRect,0.200000X-0.750000X-0.200000X0.750000X-0.200000X0.750000X0.200000X-0.750000X0.200000X0*%
%ADD12RoundRect,0.250000X0.475000X-0.337500X0.475000X0.337500X-0.475000X0.337500X-0.475000X-0.337500X0*%
%ADD13RoundRect,0.250000X-0.450000X0.350000X-0.450000X-0.350000X0.450000X-0.350000X0.450000X0.350000X0*%
%ADD14C,3.500000*%
%ADD15R,1.700000X1.700000*%
%ADD16C,1.700000*%
%ADD17C,2.000000*%
%ADD18RoundRect,0.250000X-0.625000X0.350000X-0.625000X-0.350000X0.625000X-0.350000X0.625000X0.350000X0*%
%ADD19O,1.750000X1.200000*%
%ADD20RoundRect,0.250000X-0.475000X0.337500X-0.475000X-0.337500X0.475000X-0.337500X0.475000X0.337500X0*%
%ADD21R,1.200000X0.150000*%
%ADD22R,0.900000X1.500000*%
%ADD23R,1.500000X0.900000*%
%ADD24C,0.800000*%
%ADD25R,3.900000X3.900000*%
%ADD26R,2.500000X0.300000*%
%ADD27RoundRect,0.162500X0.162500X-0.617500X0.162500X0.617500X-0.162500X0.617500X-0.162500X-0.617500X0*%
%ADD28RoundRect,0.250000X0.337500X0.475000X-0.337500X0.475000X-0.337500X-0.475000X0.337500X-0.475000X0*%
%ADD29RoundRect,0.250000X-0.350000X-0.450000X0.350000X-0.450000X0.350000X0.450000X-0.350000X0.450000X0*%
%ADD30C,2.500000*%
%ADD31RoundRect,0.250000X0.650000X-0.412500X0.650000X0.412500X-0.650000X0.412500X-0.650000X-0.412500X0*%
%ADD32RoundRect,0.250000X0.350000X0.450000X-0.350000X0.450000X-0.350000X-0.450000X0.350000X-0.450000X0*%
%ADD33RoundRect,0.250000X-0.337500X-0.475000X0.337500X-0.475000X0.337500X0.475000X-0.337500X0.475000X0*%
%ADD34R,1.000000X1.500000*%
%ADD35RoundRect,0.190500X0.444500X0.444500X-0.444500X0.444500X-0.444500X-0.444500X0.444500X-0.444500X0*%
%ADD36RoundRect,0.150000X0.625000X0.350000X-0.625000X0.350000X-0.625000X-0.350000X0.625000X-0.350000X0*%
%ADD37RoundRect,0.200000X0.750000X0.200000X-0.750000X0.200000X-0.750000X-0.200000X0.750000X-0.200000X0*%
%ADD38RoundRect,0.250000X0.550000X0.550000X-0.550000X0.550000X-0.550000X-0.550000X0.550000X-0.550000X0*%
%ADD39C,1.600000*%
%ADD40RoundRect,0.190500X-0.444500X-0.444500X0.444500X-0.444500X0.444500X0.444500X-0.444500X0.444500X0*%
%ADD41R,1.300000X1.300000*%
%ADD42C,1.300000*%
%ADD43R,2.500000X2.500000*%
%ADD44RoundRect,0.162500X-0.617500X-0.162500X0.617500X-0.162500X0.617500X0.162500X-0.617500X0.162500X0*%
%ADD45RoundRect,0.250000X0.625000X-0.350000X0.625000X0.350000X-0.625000X0.350000X-0.625000X-0.350000X0*%
%ADD46RoundRect,0.250000X-0.275000X-0.350000X0.275000X-0.350000X0.275000X0.350000X-0.275000X0.350000X0*%
%ADD47C,2.200000*%
G04 APERTURE END LIST*
%TO.C,JP1*%
G36*
X113850000Y-65750000D02*
G01*
X114150000Y-65750000D01*
X114150000Y-67250000D01*
X113850000Y-67250000D01*
X113850000Y-65750000D01*
G37*
%TD*%
D10*
%TO.C,R10*%
X131500000Y-65500000D03*
X131500000Y-63500000D03*
%TD*%
D11*
%TO.C,Q1*%
X111000000Y-70550000D03*
X111000000Y-72450000D03*
X114000000Y-71500000D03*
%TD*%
D12*
%TO.C,C10*%
X154500000Y-59537500D03*
X154500000Y-57462500D03*
%TD*%
D13*
%TO.C,R12*%
X139000000Y-118000000D03*
X139000000Y-120000000D03*
%TD*%
D14*
%TO.C,J1*%
X121750000Y-138250000D03*
X137850000Y-138250000D03*
D15*
X123500000Y-129500000D03*
D16*
X126040000Y-129500000D03*
X128580000Y-129500000D03*
X131120000Y-129500000D03*
X133660000Y-129500000D03*
X136200000Y-129500000D03*
%TD*%
D10*
%TO.C,R5*%
X130000000Y-125537500D03*
X130000000Y-123537500D03*
%TD*%
%TO.C,R8*%
X115000000Y-76500000D03*
X115000000Y-74500000D03*
%TD*%
D17*
%TO.C,SW_RESET1*%
X94000000Y-47750000D03*
X100500000Y-47750000D03*
X94000000Y-52250000D03*
X100500000Y-52250000D03*
%TD*%
D18*
%TO.C,J_BAT1*%
X182000000Y-127000000D03*
D19*
X182000000Y-129000000D03*
%TD*%
D20*
%TO.C,C16*%
X89000000Y-130962500D03*
X89000000Y-133037500D03*
%TD*%
D21*
%TO.C,SW1*%
X146499948Y-100149976D03*
X146500052Y-100850024D03*
X141049058Y-102407808D03*
X141049163Y-103107856D03*
X146500000Y-100500000D03*
X141049111Y-102757832D03*
X132139293Y-99712239D03*
X132139398Y-100412287D03*
X126873180Y-101893535D03*
X126873285Y-102593583D03*
X132139346Y-100062263D03*
X126873233Y-102243559D03*
%TD*%
D22*
%TO.C,U1*%
X94240000Y-94850000D03*
X95510000Y-94850000D03*
X96780000Y-94850000D03*
X98050000Y-94850000D03*
X99320000Y-94850000D03*
X100590000Y-94850000D03*
X101860000Y-94850000D03*
X103130000Y-94850000D03*
X104400000Y-94850000D03*
X105670000Y-94850000D03*
X106940000Y-94850000D03*
X108210000Y-94850000D03*
X109480000Y-94850000D03*
X110750000Y-94850000D03*
D23*
X112000000Y-93085000D03*
X112000000Y-91815000D03*
X112000000Y-90545000D03*
X112000000Y-89275000D03*
X112000000Y-88005000D03*
X112000000Y-86735000D03*
X112000000Y-85465000D03*
X112000000Y-84195000D03*
X112000000Y-82925000D03*
X112000000Y-81655000D03*
X112000000Y-80385000D03*
X112000000Y-79115000D03*
D22*
X110750000Y-77350000D03*
X109480000Y-77350000D03*
X108210000Y-77350000D03*
X106940000Y-77350000D03*
X105670000Y-77350000D03*
X104400000Y-77350000D03*
X103130000Y-77350000D03*
X101860000Y-77350000D03*
X100590000Y-77350000D03*
X99320000Y-77350000D03*
X98050000Y-77350000D03*
X96780000Y-77350000D03*
X95510000Y-77350000D03*
X94240000Y-77350000D03*
D24*
X101260000Y-89000000D03*
X102660000Y-89000000D03*
X100560000Y-88300000D03*
X101960000Y-88300000D03*
X103360000Y-88300000D03*
X101260000Y-87600000D03*
D25*
X101960000Y-87600000D03*
D24*
X102660000Y-87600000D03*
X100560000Y-86900000D03*
X101960000Y-86900000D03*
X103360000Y-86900000D03*
X101260000Y-86200000D03*
X102660000Y-86200000D03*
%TD*%
D26*
%TO.C,SW2*%
X104500000Y-112600000D03*
X104500000Y-113800000D03*
X104500000Y-115000000D03*
X104500000Y-113200000D03*
X104500000Y-114400000D03*
X104500000Y-130300000D03*
X104500000Y-131500000D03*
X104500000Y-132700000D03*
X104500000Y-130900000D03*
X104500000Y-132100000D03*
X95660000Y-121440000D03*
X95660000Y-122640000D03*
X95660000Y-123840000D03*
X95660000Y-122040000D03*
X95660000Y-123240000D03*
X113340000Y-121440000D03*
X113340000Y-122640000D03*
X113340000Y-123840000D03*
X113340000Y-122040000D03*
X113340000Y-123240000D03*
%TD*%
D12*
%TO.C,C5*%
X142000000Y-59575000D03*
X142000000Y-57500000D03*
%TD*%
D27*
%TO.C,U3*%
X166600000Y-59200000D03*
X167550000Y-59200000D03*
X168500000Y-59200000D03*
X168500000Y-56500000D03*
X166600000Y-56500000D03*
%TD*%
D28*
%TO.C,C25*%
X164575000Y-121000000D03*
X162500000Y-121000000D03*
%TD*%
D20*
%TO.C,C12*%
X135500000Y-112000000D03*
X135500000Y-114075000D03*
%TD*%
D29*
%TO.C,R7*%
X117500000Y-65500000D03*
X119500000Y-65500000D03*
%TD*%
D20*
%TO.C,C14*%
X112000000Y-101500000D03*
X112000000Y-103575000D03*
%TD*%
D30*
%TO.C,U5*%
X119200000Y-92500000D03*
X153500000Y-92500000D03*
X119100000Y-69500000D03*
X153600000Y-69500000D03*
D15*
X118100000Y-89000000D03*
D16*
X118100000Y-86460000D03*
X118100000Y-83920000D03*
X118100000Y-81380000D03*
X118100000Y-78840000D03*
X118100000Y-76300000D03*
X118100000Y-73760000D03*
%TD*%
D10*
%TO.C,R9*%
X127500000Y-65500000D03*
X127500000Y-63500000D03*
%TD*%
D31*
%TO.C,C4*%
X137000000Y-60100000D03*
X137000000Y-56975000D03*
%TD*%
D20*
%TO.C,C8*%
X133500000Y-117962500D03*
X133500000Y-120037500D03*
%TD*%
D12*
%TO.C,C9*%
X150000000Y-59550000D03*
X150000000Y-57475000D03*
%TD*%
D32*
%TO.C,R4*%
X178000000Y-51500000D03*
X176000000Y-51500000D03*
%TD*%
D28*
%TO.C,C15*%
X96537500Y-104500000D03*
X94462500Y-104500000D03*
%TD*%
D33*
%TO.C,C2*%
X177462500Y-105000000D03*
X179537500Y-105000000D03*
%TD*%
%TO.C,C17*%
X150462500Y-50500000D03*
X152537500Y-50500000D03*
%TD*%
D28*
%TO.C,C23*%
X164037500Y-89000000D03*
X161962500Y-89000000D03*
%TD*%
D33*
%TO.C,C1*%
X177462500Y-101500000D03*
X179537500Y-101500000D03*
%TD*%
%TO.C,C18*%
X141500000Y-50500000D03*
X143575000Y-50500000D03*
%TD*%
D12*
%TO.C,C6*%
X146000000Y-59575000D03*
X146000000Y-57500000D03*
%TD*%
D14*
%TO.C,U4*%
X181200000Y-68800000D03*
X181200000Y-83200000D03*
D15*
X164800000Y-68100000D03*
D16*
X164800000Y-70640000D03*
X164800000Y-73180000D03*
X164800000Y-75720000D03*
X164800000Y-78260000D03*
X164800000Y-80800000D03*
X164800000Y-83340000D03*
X181800000Y-74000000D03*
X181800000Y-78000000D03*
%TD*%
D33*
%TO.C,C21*%
X120962500Y-118500000D03*
X123037500Y-118500000D03*
%TD*%
D28*
%TO.C,C20*%
X102500000Y-104500000D03*
X100425000Y-104500000D03*
%TD*%
D34*
%TO.C,JP1*%
X113350000Y-66500000D03*
X114650000Y-66500000D03*
%TD*%
D35*
%TO.C,SW_VOLDOWN1*%
X142125000Y-45500000D03*
X142125000Y-42800000D03*
D36*
X144750000Y-45000000D03*
X139500000Y-45000000D03*
X144750000Y-43300000D03*
X139500000Y-43300000D03*
%TD*%
D20*
%TO.C,C11*%
X140500000Y-111962500D03*
X140500000Y-114037500D03*
%TD*%
D32*
%TO.C,R11*%
X169000000Y-119000000D03*
X167000000Y-119000000D03*
%TD*%
D17*
%TO.C,SW_BOOT1*%
X105000000Y-48000000D03*
X111500000Y-48000000D03*
X105000000Y-52500000D03*
X111500000Y-52500000D03*
%TD*%
D37*
%TO.C,Q2*%
X177250000Y-120450000D03*
X177250000Y-118550000D03*
X174250000Y-119500000D03*
%TD*%
D35*
%TO.C,SW_VOLUP1*%
X151625000Y-45500000D03*
X151625000Y-42800000D03*
D36*
X154250000Y-45000000D03*
X149000000Y-45000000D03*
X154250000Y-43300000D03*
X149000000Y-43300000D03*
%TD*%
D33*
%TO.C,C3*%
X177425000Y-108500000D03*
X179500000Y-108500000D03*
%TD*%
D38*
%TO.C,C22*%
X164205113Y-94000000D03*
D39*
X161705113Y-94000000D03*
%TD*%
D33*
%TO.C,C7*%
X94425000Y-58500000D03*
X96500000Y-58500000D03*
%TD*%
D32*
%TO.C,R1*%
X96462500Y-61000000D03*
X94462500Y-61000000D03*
%TD*%
D40*
%TO.C,SW_PWR1*%
X168300000Y-44500000D03*
X176700000Y-44500000D03*
D41*
X170500000Y-44500000D03*
D42*
X172500000Y-44500000D03*
X174500000Y-44500000D03*
%TD*%
D43*
%TO.C,U7*%
X149800000Y-125200000D03*
D30*
X149800000Y-139200000D03*
X172600000Y-125200000D03*
X172600000Y-128400000D03*
X172600000Y-136000000D03*
X172600000Y-139200000D03*
%TD*%
D44*
%TO.C,U2*%
X134800000Y-124000000D03*
X134800000Y-124950000D03*
X134800000Y-125900000D03*
X137500000Y-125900000D03*
X137500000Y-124950000D03*
X137500000Y-124000000D03*
%TD*%
D45*
%TO.C,J_SPK1*%
X179000000Y-62500000D03*
D19*
X179000000Y-60500000D03*
%TD*%
D26*
%TO.C,SW8*%
X166920199Y-107999235D03*
X166923570Y-106798041D03*
X166923558Y-105598079D03*
X166923576Y-107398022D03*
X166923564Y-106198060D03*
X152076439Y-113401922D03*
X152076427Y-112201959D03*
X152076415Y-111001997D03*
X152076434Y-112801940D03*
X152076421Y-111601978D03*
%TD*%
D32*
%TO.C,R2*%
X107000000Y-59000000D03*
X105000000Y-59000000D03*
%TD*%
D20*
%TO.C,C13*%
X116500000Y-101500000D03*
X116500000Y-103575000D03*
%TD*%
D46*
%TO.C,FB1*%
X171850000Y-96500000D03*
X174150000Y-96500000D03*
%TD*%
D47*
%TO.C,U6*%
X116380000Y-43990000D03*
X131620000Y-43990000D03*
D15*
X117650000Y-60500000D03*
D16*
X120190000Y-60500000D03*
X122730000Y-60500000D03*
X125270000Y-60500000D03*
X127810000Y-60500000D03*
X130350000Y-60500000D03*
%TD*%
D28*
%TO.C,C24*%
X160037500Y-121000000D03*
X157962500Y-121000000D03*
%TD*%
D10*
%TO.C,R6*%
X126000000Y-125537500D03*
X126000000Y-123537500D03*
%TD*%
M02*
