%TF.GenerationSoftware,KiCad,Pcbnew,10.0.5*%
%TF.CreationDate,2026-09-15T15:30:29+09:00*%
%TF.ProjectId,yomogame,796f6d6f-6761-46d6-952e-6b696361645f,rev?*%
%TF.SameCoordinates,Original*%
%TF.FileFunction,Copper,L2,Bot*%
%TF.FilePolarity,Positive*%
%FSLAX46Y46*%
G04 Gerber Fmt 4.6, Leading zero omitted, Abs format (unit mm)*
G04 Created by KiCad (PCBNEW 10.0.5) date 2026-09-15 15:30:29*
%MOMM*%
%LPD*%
G01*
G04 APERTURE LIST*
G04 Aperture macros list*
%AMRoundRect*
0 Rectangle with rounded corners*
0 $1 Rounding radius*
0 $2 $3 $4 $5 $6 $7 $8 $9 X,Y pos of 4 corners*
0 Add a 4 corners polygon primitive as box body*
4,1,4,$2,$3,$4,$5,$6,$7,$8,$9,$2,$3,0*
0 Add four circle primitives for the rounded corners*
1,1,$1+$1,$2,$3*
1,1,$1+$1,$4,$5*
1,1,$1+$1,$6,$7*
1,1,$1+$1,$8,$9*
0 Add four rect primitives between the rounded corners*
20,1,$1+$1,$2,$3,$4,$5,0*
20,1,$1+$1,$4,$5,$6,$7,0*
20,1,$1+$1,$6,$7,$8,$9,0*
20,1,$1+$1,$8,$9,$2,$3,0*%
G04 Aperture macros list end*
%TA.AperFunction,ComponentPad*%
%ADD10R,1.700000X1.700000*%
%TD*%
%TA.AperFunction,ComponentPad*%
%ADD11C,1.700000*%
%TD*%
%TA.AperFunction,ComponentPad*%
%ADD12C,2.000000*%
%TD*%
%TA.AperFunction,ComponentPad*%
%ADD13RoundRect,0.250000X-0.625000X0.350000X-0.625000X-0.350000X0.625000X-0.350000X0.625000X0.350000X0*%
%TD*%
%TA.AperFunction,ComponentPad*%
%ADD14O,1.750000X1.200000*%
%TD*%
%TA.AperFunction,HeatsinkPad*%
%ADD15C,0.800000*%
%TD*%
%TA.AperFunction,WasherPad*%
%ADD16RoundRect,0.190500X0.444500X0.444500X-0.444500X0.444500X-0.444500X-0.444500X0.444500X-0.444500X0*%
%TD*%
%TA.AperFunction,ComponentPad*%
%ADD17RoundRect,0.250000X0.550000X0.550000X-0.550000X0.550000X-0.550000X-0.550000X0.550000X-0.550000X0*%
%TD*%
%TA.AperFunction,ComponentPad*%
%ADD18C,1.600000*%
%TD*%
%TA.AperFunction,WasherPad*%
%ADD19RoundRect,0.190500X-0.444500X-0.444500X0.444500X-0.444500X0.444500X0.444500X-0.444500X0.444500X0*%
%TD*%
%TA.AperFunction,ComponentPad*%
%ADD20R,1.300000X1.300000*%
%TD*%
%TA.AperFunction,ComponentPad*%
%ADD21C,1.300000*%
%TD*%
%TA.AperFunction,ComponentPad*%
%ADD22R,2.500000X2.500000*%
%TD*%
%TA.AperFunction,ComponentPad*%
%ADD23C,2.500000*%
%TD*%
%TA.AperFunction,ComponentPad*%
%ADD24RoundRect,0.250000X0.625000X-0.350000X0.625000X0.350000X-0.625000X0.350000X-0.625000X-0.350000X0*%
%TD*%
%TA.AperFunction,ViaPad*%
%ADD25C,0.600000*%
%TD*%
%TA.AperFunction,Conductor*%
%ADD26C,0.500000*%
%TD*%
%TA.AperFunction,Conductor*%
%ADD27C,0.100000*%
%TD*%
%TA.AperFunction,Conductor*%
%ADD28C,0.200000*%
%TD*%
G04 APERTURE END LIST*
D10*
%TO.P,J1,1,VBUS_1*%
%TO.N,USB_VBUS*%
X123500000Y-129500000D03*
D11*
%TO.P,J1,2,GND_2*%
%TO.N,GND*%
X126040000Y-129500000D03*
%TO.P,J1,3,CC1_3*%
%TO.N,unconnected-(J1-CC1-Pad3)*%
X128580000Y-129500000D03*
%TO.P,J1,4,D-_4*%
%TO.N,Net-(J1-D-)*%
X131120000Y-129500000D03*
%TO.P,J1,5,D+_5*%
%TO.N,Net-(J1-D+)*%
X133660000Y-129500000D03*
%TO.P,J1,6,CC2_6*%
%TO.N,unconnected-(J1-CC2-Pad6)*%
X136200000Y-129500000D03*
%TD*%
D12*
%TO.P,SW_RESET1,1,1_1*%
%TO.N,GND*%
X94000000Y-47750000D03*
X100500000Y-47750000D03*
%TO.P,SW_RESET1,2,2_2*%
%TO.N,ESP_EN*%
X94000000Y-52250000D03*
X100500000Y-52250000D03*
%TD*%
D13*
%TO.P,J_BAT1,1,Pin_1_1*%
%TO.N,Net-(J_BAT1-Pin_1)*%
X182000000Y-127000000D03*
D14*
%TO.P,J_BAT1,2,Pin_2_2*%
%TO.N,Net-(J_BAT1-Pin_2)*%
X182000000Y-129000000D03*
%TD*%
D15*
%TO.P,U1,41,GND_41*%
%TO.N,GND*%
X101260000Y-89000000D03*
X102660000Y-89000000D03*
X100560000Y-88300000D03*
X101960000Y-88300000D03*
X103360000Y-88300000D03*
X101260000Y-87600000D03*
X102660000Y-87600000D03*
X100560000Y-86900000D03*
X101960000Y-86900000D03*
X103360000Y-86900000D03*
X101260000Y-86200000D03*
X102660000Y-86200000D03*
%TD*%
D10*
%TO.P,U5,1,GND_1*%
%TO.N,GND*%
X118100000Y-89000000D03*
D11*
%TO.P,U5,2,VCC_2*%
%TO.N,+3V3*%
X118100000Y-86460000D03*
%TO.P,U5,3,SCL_3*%
%TO.N,LCD_SCLK*%
X118100000Y-83920000D03*
%TO.P,U5,4,SDA_4*%
%TO.N,LCD_MOSI*%
X118100000Y-81380000D03*
%TO.P,U5,5,RES_5*%
%TO.N,LCD_RST*%
X118100000Y-78840000D03*
%TO.P,U5,6,DC_6*%
%TO.N,LCD_DC*%
X118100000Y-76300000D03*
%TO.P,U5,7,BLK_7*%
%TO.N,LCD_BL*%
X118100000Y-73760000D03*
%TD*%
D10*
%TO.P,U4,1,LRCLK_1*%
%TO.N,I2S_LRC*%
X164800000Y-68100000D03*
D11*
%TO.P,U4,2,BCLK_2*%
%TO.N,I2S_BCLK*%
X164800000Y-70640000D03*
%TO.P,U4,3,DIN_3*%
%TO.N,I2S_DIN*%
X164800000Y-73180000D03*
%TO.P,U4,4,GAIN_4*%
%TO.N,unconnected-(U4-GAIN-Pad4)*%
X164800000Y-75720000D03*
%TO.P,U4,5,SD_5*%
%TO.N,unconnected-(U4-SD-Pad5)*%
X164800000Y-78260000D03*
%TO.P,U4,6,GND_6*%
%TO.N,GND*%
X164800000Y-80800000D03*
%TO.P,U4,7,VIN_7*%
%TO.N,VAMP*%
X164800000Y-83340000D03*
%TO.P,U4,8,OUT-_8*%
%TO.N,Net-(J_SPK1-Pin_1)*%
X181800000Y-74000000D03*
%TO.P,U4,9,OUT+_9*%
%TO.N,Net-(J_SPK1-Pin_2)*%
X181800000Y-78000000D03*
%TD*%
D16*
%TO.P,SW_VOLDOWN1,*%
%TO.N,*%
X142125000Y-45500000D03*
X142125000Y-42800000D03*
%TD*%
D12*
%TO.P,SW_BOOT1,1,1_1*%
%TO.N,GND*%
X105000000Y-48000000D03*
X111500000Y-48000000D03*
%TO.P,SW_BOOT1,2,2_2*%
%TO.N,IO0*%
X105000000Y-52500000D03*
X111500000Y-52500000D03*
%TD*%
D16*
%TO.P,SW_VOLUP1,*%
%TO.N,*%
X151625000Y-45500000D03*
X151625000Y-42800000D03*
%TD*%
D17*
%TO.P,C22,1*%
%TO.N,VAMP*%
X164205113Y-94000000D03*
D18*
%TO.P,C22,2*%
%TO.N,GND*%
X161705113Y-94000000D03*
%TD*%
D19*
%TO.P,SW_PWR1,*%
%TO.N,*%
X168300000Y-44500000D03*
X176700000Y-44500000D03*
D20*
%TO.P,SW_PWR1,1,A_1*%
%TO.N,unconnected-(SW_PWR1-A-Pad1)*%
X170500000Y-44500000D03*
D21*
%TO.P,SW_PWR1,2,B_2*%
%TO.N,Net-(Q2-G)*%
X172500000Y-44500000D03*
%TO.P,SW_PWR1,3,C_3*%
%TO.N,GND*%
X174500000Y-44500000D03*
%TD*%
D22*
%TO.P,U7,1,IN+_1*%
%TO.N,USB_VBUS*%
X149800000Y-125200000D03*
D23*
%TO.P,U7,2,IN-_2*%
%TO.N,GND*%
X149800000Y-139200000D03*
%TO.P,U7,3,OUT+_3*%
%TO.N,VSYS*%
X172600000Y-125200000D03*
%TO.P,U7,4,B+_4*%
%TO.N,Net-(J_BAT1-Pin_1)*%
X172600000Y-128400000D03*
%TO.P,U7,5,B-_5*%
%TO.N,Net-(J_BAT1-Pin_2)*%
X172600000Y-136000000D03*
%TO.P,U7,6,OUT-_6*%
%TO.N,GND*%
X172600000Y-139200000D03*
%TD*%
D24*
%TO.P,J_SPK1,1,Pin_1_1*%
%TO.N,Net-(J_SPK1-Pin_1)*%
X179000000Y-62500000D03*
D14*
%TO.P,J_SPK1,2,Pin_2_2*%
%TO.N,Net-(J_SPK1-Pin_2)*%
X179000000Y-60500000D03*
%TD*%
D10*
%TO.P,U6,1,3v3_1*%
%TO.N,+3V3*%
X117650000Y-60500000D03*
D11*
%TO.P,U6,2,SS_2*%
%TO.N,SD_CS*%
X120190000Y-60500000D03*
%TO.P,U6,3,MOSI_3*%
%TO.N,SD_MOSI*%
X122730000Y-60500000D03*
%TO.P,U6,4,MISO_4*%
%TO.N,SD_MISO*%
X125270000Y-60500000D03*
%TO.P,U6,5,SCK_5*%
%TO.N,SD_SCK*%
X127810000Y-60500000D03*
%TO.P,U6,6,GND_6*%
%TO.N,GND*%
X130350000Y-60500000D03*
%TD*%
D25*
%TO.N,+3V3*%
X96000000Y-99000000D03*
X123500000Y-89000000D03*
%TO.N,GND*%
X157500000Y-112000000D03*
X180500000Y-112500000D03*
X166000000Y-123000000D03*
X156000000Y-121000000D03*
X116000000Y-73000000D03*
X143000000Y-65000000D03*
X120000000Y-103500000D03*
X133000000Y-125000000D03*
%TO.N,VBAT_SENSE*%
X126000000Y-108500000D03*
X109500000Y-97000000D03*
X108000000Y-103500000D03*
X128000000Y-113500000D03*
%TO.N,USB_DN*%
X116500000Y-98500000D03*
X127000000Y-118000000D03*
%TO.N,ESP_EN*%
X97000000Y-98000000D03*
X96500000Y-73500000D03*
%TO.N,USB_DP*%
X123000000Y-113500000D03*
X118000000Y-98500000D03*
%TO.N,BTN_VOLUP*%
X150500000Y-55500000D03*
X114500000Y-82000000D03*
%TO.N,BTN_VOLDOWN*%
X114500000Y-80500000D03*
X139500000Y-54500000D03*
%TO.N,IO0*%
X105100000Y-73000000D03*
X103500000Y-59500000D03*
%TD*%
%TO.N,+3V3*%
D26*
X119000000Y-96500000D02*
X123500000Y-92000000D01*
X118750000Y-96250000D02*
X119000000Y-96500000D01*
X103750000Y-96250000D02*
X118750000Y-96250000D01*
X123500000Y-92000000D02*
X123500000Y-89000000D01*
X96000000Y-99000000D02*
X101000000Y-99000000D01*
X101000000Y-99000000D02*
X103750000Y-96250000D01*
%TO.N,GND*%
D27*
X136000000Y-121500000D02*
X133500000Y-121500000D01*
X133000000Y-122000000D02*
X133000000Y-125000000D01*
X133500000Y-121500000D02*
X133000000Y-122000000D01*
%TO.N,VBAT_SENSE*%
D28*
X109500000Y-102000000D02*
X109500000Y-97000000D01*
X108000000Y-103500000D02*
X109500000Y-102000000D01*
X128000000Y-113500000D02*
X128000000Y-110500000D01*
X128000000Y-110500000D02*
X126000000Y-108500000D01*
%TO.N,USB_DN*%
X127000000Y-118000000D02*
X125500000Y-118000000D01*
X121500000Y-114000000D02*
X121500000Y-103500000D01*
X121500000Y-103500000D02*
X116500000Y-98500000D01*
X125500000Y-118000000D02*
X121500000Y-114000000D01*
%TO.N,ESP_EN*%
X96500000Y-97500000D02*
X97000000Y-98000000D01*
X96500000Y-73500000D02*
X96500000Y-97500000D01*
%TO.N,USB_DP*%
X123000000Y-103500000D02*
X118000000Y-98500000D01*
X123000000Y-113500000D02*
X123000000Y-103500000D01*
%TO.N,BTN_VOLUP*%
X114500000Y-82000000D02*
X116270000Y-80230000D01*
X116270000Y-80230000D02*
X133770000Y-80230000D01*
X150500000Y-63500000D02*
X133770000Y-80230000D01*
X150500000Y-55500000D02*
X150500000Y-63500000D01*
%TO.N,BTN_VOLDOWN*%
X114500000Y-80500000D02*
X117500000Y-77500000D01*
X127500000Y-77500000D02*
X139500000Y-65500000D01*
X139500000Y-65500000D02*
X139500000Y-54500000D01*
X117500000Y-77500000D02*
X127500000Y-77500000D01*
%TO.N,IO0*%
X103500000Y-62000000D02*
X105000000Y-63500000D01*
X105000000Y-73000000D02*
X105100000Y-73000000D01*
X103500000Y-59500000D02*
X103500000Y-62000000D01*
X105000000Y-63500000D02*
X105000000Y-73000000D01*
%TD*%
%TA.AperFunction,Conductor*%
%TO.N,GND*%
G36*
X141378741Y-41521785D02*
G01*
X141424496Y-41574589D01*
X141434440Y-41643747D01*
X141405415Y-41707303D01*
X141375851Y-41732217D01*
X141251222Y-41807556D01*
X141251217Y-41807560D01*
X141132560Y-41926217D01*
X141132556Y-41926222D01*
X141045750Y-42069819D01*
X140995826Y-42230032D01*
X140989500Y-42299655D01*
X140989500Y-43300354D01*
X140995825Y-43369966D01*
X140995828Y-43369977D01*
X141045747Y-43530175D01*
X141045749Y-43530179D01*
X141132556Y-43673777D01*
X141132560Y-43673782D01*
X141251217Y-43792439D01*
X141251222Y-43792443D01*
X141371815Y-43865343D01*
X141394822Y-43879251D01*
X141555029Y-43929173D01*
X141624653Y-43935500D01*
X142625346Y-43935499D01*
X142625353Y-43935499D01*
X142694966Y-43929174D01*
X142694969Y-43929173D01*
X142694971Y-43929173D01*
X142855178Y-43879251D01*
X142947855Y-43823226D01*
X142998777Y-43792443D01*
X142998778Y-43792441D01*
X142998783Y-43792439D01*
X143117439Y-43673783D01*
X143136283Y-43642612D01*
X143172834Y-43582148D01*
X143204251Y-43530178D01*
X143254173Y-43369971D01*
X143260500Y-43300347D01*
X143260499Y-42299654D01*
X143260499Y-42299653D01*
X143260499Y-42299645D01*
X143254174Y-42230033D01*
X143254171Y-42230022D01*
X143204252Y-42069824D01*
X143204250Y-42069820D01*
X143117443Y-41926222D01*
X143117439Y-41926217D01*
X142998782Y-41807560D01*
X142998777Y-41807556D01*
X142874149Y-41732217D01*
X142826961Y-41680690D01*
X142815122Y-41611830D01*
X142842390Y-41547502D01*
X142900109Y-41508127D01*
X142938298Y-41502100D01*
X150811702Y-41502100D01*
X150878741Y-41521785D01*
X150924496Y-41574589D01*
X150934440Y-41643747D01*
X150905415Y-41707303D01*
X150875851Y-41732217D01*
X150751222Y-41807556D01*
X150751217Y-41807560D01*
X150632560Y-41926217D01*
X150632556Y-41926222D01*
X150545750Y-42069819D01*
X150495826Y-42230032D01*
X150489500Y-42299655D01*
X150489500Y-43300354D01*
X150495825Y-43369966D01*
X150495828Y-43369977D01*
X150545747Y-43530175D01*
X150545749Y-43530179D01*
X150632556Y-43673777D01*
X150632560Y-43673782D01*
X150751217Y-43792439D01*
X150751222Y-43792443D01*
X150871815Y-43865343D01*
X150894822Y-43879251D01*
X151055029Y-43929173D01*
X151124653Y-43935500D01*
X152125346Y-43935499D01*
X152125353Y-43935499D01*
X152194966Y-43929174D01*
X152194969Y-43929173D01*
X152194971Y-43929173D01*
X152355178Y-43879251D01*
X152447855Y-43823226D01*
X152498777Y-43792443D01*
X152498778Y-43792441D01*
X152498783Y-43792439D01*
X152617439Y-43673783D01*
X152636283Y-43642612D01*
X152672834Y-43582148D01*
X152704251Y-43530178D01*
X152754173Y-43369971D01*
X152760500Y-43300347D01*
X152760499Y-42299654D01*
X152760499Y-42299653D01*
X152760499Y-42299645D01*
X152754174Y-42230033D01*
X152754171Y-42230022D01*
X152704252Y-42069824D01*
X152704250Y-42069820D01*
X152617443Y-41926222D01*
X152617439Y-41926217D01*
X152498782Y-41807560D01*
X152498777Y-41807556D01*
X152374149Y-41732217D01*
X152326961Y-41680690D01*
X152315122Y-41611830D01*
X152342390Y-41547502D01*
X152400109Y-41508127D01*
X152438298Y-41502100D01*
X185376633Y-41502100D01*
X185443672Y-41521785D01*
X185489427Y-41574589D01*
X185500630Y-41625474D01*
X185999288Y-140858353D01*
X185999374Y-140875377D01*
X185980027Y-140942514D01*
X185927454Y-140988534D01*
X185875376Y-141000000D01*
X173445083Y-141000000D01*
X173378044Y-140980315D01*
X173332289Y-140927511D01*
X173322345Y-140858353D01*
X173351370Y-140794797D01*
X173383083Y-140768613D01*
X173574338Y-140658190D01*
X173756329Y-140518544D01*
X173756336Y-140518538D01*
X173918538Y-140356336D01*
X173918544Y-140356329D01*
X174058190Y-140174338D01*
X174172893Y-139975668D01*
X174172897Y-139975659D01*
X174260681Y-139763730D01*
X174320057Y-139542137D01*
X174332188Y-139450000D01*
X173308241Y-139450000D01*
X173321178Y-139418767D01*
X173350000Y-139273869D01*
X173350000Y-139126131D01*
X173321178Y-138981233D01*
X173308241Y-138950000D01*
X174332188Y-138950000D01*
X174332188Y-138949999D01*
X174320057Y-138857862D01*
X174260681Y-138636269D01*
X174172897Y-138424340D01*
X174172893Y-138424331D01*
X174058190Y-138225661D01*
X173918544Y-138043670D01*
X173918538Y-138043663D01*
X173756336Y-137881461D01*
X173756329Y-137881455D01*
X173574335Y-137741807D01*
X173515217Y-137707674D01*
X173467002Y-137657107D01*
X173453780Y-137588500D01*
X173479748Y-137523635D01*
X173515213Y-137492904D01*
X173574612Y-137458611D01*
X173756661Y-137318919D01*
X173756665Y-137318914D01*
X173756670Y-137318911D01*
X173918911Y-137156670D01*
X173918914Y-137156665D01*
X173918919Y-137156661D01*
X174058611Y-136974612D01*
X174173344Y-136775888D01*
X174261158Y-136563887D01*
X174320548Y-136342238D01*
X174350500Y-136114734D01*
X174350500Y-135885266D01*
X174320548Y-135657762D01*
X174261158Y-135436113D01*
X174173344Y-135224112D01*
X174058611Y-135025388D01*
X174058608Y-135025385D01*
X174058607Y-135025382D01*
X173918918Y-134843338D01*
X173918911Y-134843330D01*
X173756670Y-134681089D01*
X173756661Y-134681081D01*
X173574617Y-134541392D01*
X173375890Y-134426657D01*
X173375876Y-134426650D01*
X173163887Y-134338842D01*
X172942238Y-134279452D01*
X172904215Y-134274446D01*
X172714741Y-134249500D01*
X172714734Y-134249500D01*
X172485266Y-134249500D01*
X172485258Y-134249500D01*
X172268715Y-134278009D01*
X172257762Y-134279452D01*
X172164076Y-134304554D01*
X172036112Y-134338842D01*
X171824123Y-134426650D01*
X171824109Y-134426657D01*
X171625382Y-134541392D01*
X171443338Y-134681081D01*
X171281081Y-134843338D01*
X171141392Y-135025382D01*
X171026657Y-135224109D01*
X171026650Y-135224123D01*
X170938842Y-135436112D01*
X170879453Y-135657759D01*
X170879451Y-135657770D01*
X170849500Y-135885258D01*
X170849500Y-136114741D01*
X170871749Y-136283730D01*
X170879452Y-136342238D01*
X170879453Y-136342240D01*
X170938842Y-136563887D01*
X171026650Y-136775876D01*
X171026656Y-136775888D01*
X171114558Y-136928140D01*
X171141392Y-136974617D01*
X171281081Y-137156661D01*
X171281089Y-137156670D01*
X171443330Y-137318911D01*
X171443338Y-137318918D01*
X171625382Y-137458607D01*
X171625385Y-137458608D01*
X171625388Y-137458611D01*
X171684781Y-137492902D01*
X171732997Y-137543468D01*
X171746220Y-137612075D01*
X171720252Y-137676940D01*
X171684783Y-137707674D01*
X171625661Y-137741809D01*
X171443670Y-137881455D01*
X171443663Y-137881461D01*
X171281461Y-138043663D01*
X171281455Y-138043670D01*
X171141809Y-138225661D01*
X171027106Y-138424331D01*
X171027102Y-138424340D01*
X170939318Y-138636269D01*
X170879942Y-138857862D01*
X170867811Y-138949999D01*
X170867812Y-138950000D01*
X171891759Y-138950000D01*
X171878822Y-138981233D01*
X171850000Y-139126131D01*
X171850000Y-139273869D01*
X171878822Y-139418767D01*
X171891759Y-139450000D01*
X170867812Y-139450000D01*
X170879942Y-139542137D01*
X170939318Y-139763730D01*
X171027102Y-139975659D01*
X171027106Y-139975668D01*
X171141809Y-140174338D01*
X171281455Y-140356329D01*
X171281461Y-140356336D01*
X171443663Y-140518538D01*
X171443670Y-140518544D01*
X171625661Y-140658190D01*
X171816917Y-140768613D01*
X171865133Y-140819180D01*
X171878355Y-140887787D01*
X171852387Y-140952652D01*
X171795473Y-140993180D01*
X171754917Y-141000000D01*
X150645083Y-141000000D01*
X150578044Y-140980315D01*
X150532289Y-140927511D01*
X150522345Y-140858353D01*
X150551370Y-140794797D01*
X150583083Y-140768613D01*
X150774338Y-140658190D01*
X150956329Y-140518544D01*
X150956336Y-140518538D01*
X151118538Y-140356336D01*
X151118544Y-140356329D01*
X151258190Y-140174338D01*
X151372893Y-139975668D01*
X151372897Y-139975659D01*
X151460681Y-139763730D01*
X151520057Y-139542137D01*
X151532188Y-139450000D01*
X150508241Y-139450000D01*
X150521178Y-139418767D01*
X150550000Y-139273869D01*
X150550000Y-139126131D01*
X150521178Y-138981233D01*
X150508241Y-138950000D01*
X151532188Y-138950000D01*
X151532188Y-138949999D01*
X151520057Y-138857862D01*
X151460681Y-138636269D01*
X151372897Y-138424340D01*
X151372893Y-138424331D01*
X151258190Y-138225661D01*
X151118544Y-138043670D01*
X151118538Y-138043663D01*
X150956336Y-137881461D01*
X150956329Y-137881455D01*
X150774338Y-137741809D01*
X150575668Y-137627106D01*
X150575659Y-137627102D01*
X150363730Y-137539318D01*
X150142137Y-137479942D01*
X150050000Y-137467811D01*
X150050000Y-138491759D01*
X150018767Y-138478822D01*
X149873869Y-138450000D01*
X149726131Y-138450000D01*
X149581233Y-138478822D01*
X149550000Y-138491759D01*
X149550000Y-137467811D01*
X149549999Y-137467811D01*
X149457862Y-137479942D01*
X149236269Y-137539318D01*
X149024340Y-137627102D01*
X149024331Y-137627106D01*
X148825661Y-137741809D01*
X148643670Y-137881455D01*
X148643663Y-137881461D01*
X148481461Y-138043663D01*
X148481455Y-138043670D01*
X148341809Y-138225661D01*
X148227106Y-138424331D01*
X148227102Y-138424340D01*
X148139318Y-138636269D01*
X148079942Y-138857862D01*
X148067811Y-138949999D01*
X148067812Y-138950000D01*
X149091759Y-138950000D01*
X149078822Y-138981233D01*
X149050000Y-139126131D01*
X149050000Y-139273869D01*
X149078822Y-139418767D01*
X149091759Y-139450000D01*
X148067812Y-139450000D01*
X148079942Y-139542137D01*
X148139318Y-139763730D01*
X148227102Y-139975659D01*
X148227106Y-139975668D01*
X148341809Y-140174338D01*
X148481455Y-140356329D01*
X148481461Y-140356336D01*
X148643663Y-140518538D01*
X148643670Y-140518544D01*
X148825661Y-140658190D01*
X149016917Y-140768613D01*
X149065133Y-140819180D01*
X149078355Y-140887787D01*
X149052387Y-140952652D01*
X148995473Y-140993180D01*
X148954917Y-141000000D01*
X86624000Y-141000000D01*
X86556961Y-140980315D01*
X86511206Y-140927511D01*
X86500000Y-140876000D01*
X86500000Y-138118872D01*
X119749500Y-138118872D01*
X119749500Y-138381127D01*
X119758568Y-138450000D01*
X119783730Y-138641116D01*
X119805377Y-138721903D01*
X119851602Y-138894418D01*
X119851605Y-138894428D01*
X119951953Y-139136690D01*
X119951958Y-139136700D01*
X120083075Y-139363803D01*
X120242718Y-139571851D01*
X120242726Y-139571860D01*
X120428140Y-139757274D01*
X120428148Y-139757281D01*
X120636196Y-139916924D01*
X120863299Y-140048041D01*
X120863309Y-140048046D01*
X121105571Y-140148394D01*
X121105581Y-140148398D01*
X121358884Y-140216270D01*
X121618880Y-140250500D01*
X121618887Y-140250500D01*
X121881113Y-140250500D01*
X121881120Y-140250500D01*
X122141116Y-140216270D01*
X122394419Y-140148398D01*
X122636697Y-140048043D01*
X122863803Y-139916924D01*
X123071851Y-139757282D01*
X123071855Y-139757277D01*
X123071860Y-139757274D01*
X123257274Y-139571860D01*
X123257277Y-139571855D01*
X123257282Y-139571851D01*
X123416924Y-139363803D01*
X123548043Y-139136697D01*
X123648398Y-138894419D01*
X123716270Y-138641116D01*
X123750500Y-138381120D01*
X123750500Y-138118880D01*
X123750499Y-138118872D01*
X135849500Y-138118872D01*
X135849500Y-138381127D01*
X135858568Y-138450000D01*
X135883730Y-138641116D01*
X135905377Y-138721903D01*
X135951602Y-138894418D01*
X135951605Y-138894428D01*
X136051953Y-139136690D01*
X136051958Y-139136700D01*
X136183075Y-139363803D01*
X136342718Y-139571851D01*
X136342726Y-139571860D01*
X136528140Y-139757274D01*
X136528148Y-139757281D01*
X136736196Y-139916924D01*
X136963299Y-140048041D01*
X136963309Y-140048046D01*
X137205571Y-140148394D01*
X137205581Y-140148398D01*
X137458884Y-140216270D01*
X137718880Y-140250500D01*
X137718887Y-140250500D01*
X137981113Y-140250500D01*
X137981120Y-140250500D01*
X138241116Y-140216270D01*
X138494419Y-140148398D01*
X138736697Y-140048043D01*
X138963803Y-139916924D01*
X139171851Y-139757282D01*
X139171855Y-139757277D01*
X139171860Y-139757274D01*
X139357274Y-139571860D01*
X139357277Y-139571855D01*
X139357282Y-139571851D01*
X139516924Y-139363803D01*
X139648043Y-139136697D01*
X139652420Y-139126131D01*
X139728663Y-138942064D01*
X139748394Y-138894428D01*
X139748398Y-138894419D01*
X139816270Y-138641116D01*
X139850500Y-138381120D01*
X139850500Y-138118880D01*
X139816270Y-137858884D01*
X139748398Y-137605581D01*
X139714455Y-137523635D01*
X139648046Y-137363309D01*
X139648041Y-137363299D01*
X139516924Y-137136196D01*
X139357281Y-136928148D01*
X139357274Y-136928140D01*
X139171860Y-136742726D01*
X139171851Y-136742718D01*
X138963803Y-136583075D01*
X138736700Y-136451958D01*
X138736690Y-136451953D01*
X138494428Y-136351605D01*
X138494421Y-136351603D01*
X138494419Y-136351602D01*
X138241116Y-136283730D01*
X138183339Y-136276123D01*
X137981127Y-136249500D01*
X137981120Y-136249500D01*
X137718880Y-136249500D01*
X137718872Y-136249500D01*
X137487772Y-136279926D01*
X137458884Y-136283730D01*
X137240562Y-136342229D01*
X137205581Y-136351602D01*
X137205571Y-136351605D01*
X136963309Y-136451953D01*
X136963299Y-136451958D01*
X136736196Y-136583075D01*
X136528148Y-136742718D01*
X136342718Y-136928148D01*
X136183075Y-137136196D01*
X136051958Y-137363299D01*
X136051953Y-137363309D01*
X135951605Y-137605571D01*
X135951602Y-137605581D01*
X135924247Y-137707674D01*
X135883730Y-137858885D01*
X135849500Y-138118872D01*
X123750499Y-138118872D01*
X123716270Y-137858884D01*
X123648398Y-137605581D01*
X123614455Y-137523635D01*
X123548046Y-137363309D01*
X123548041Y-137363299D01*
X123416924Y-137136196D01*
X123257281Y-136928148D01*
X123257274Y-136928140D01*
X123071860Y-136742726D01*
X123071851Y-136742718D01*
X122863803Y-136583075D01*
X122636700Y-136451958D01*
X122636690Y-136451953D01*
X122394428Y-136351605D01*
X122394421Y-136351603D01*
X122394419Y-136351602D01*
X122141116Y-136283730D01*
X122083339Y-136276123D01*
X121881127Y-136249500D01*
X121881120Y-136249500D01*
X121618880Y-136249500D01*
X121618872Y-136249500D01*
X121387772Y-136279926D01*
X121358884Y-136283730D01*
X121140562Y-136342229D01*
X121105581Y-136351602D01*
X121105571Y-136351605D01*
X120863309Y-136451953D01*
X120863299Y-136451958D01*
X120636196Y-136583075D01*
X120428148Y-136742718D01*
X120242718Y-136928148D01*
X120083075Y-137136196D01*
X119951958Y-137363299D01*
X119951953Y-137363309D01*
X119851605Y-137605571D01*
X119851602Y-137605581D01*
X119824247Y-137707674D01*
X119783730Y-137858885D01*
X119749500Y-138118872D01*
X86500000Y-138118872D01*
X86500000Y-128602135D01*
X122149500Y-128602135D01*
X122149500Y-130397870D01*
X122149501Y-130397876D01*
X122155908Y-130457483D01*
X122206202Y-130592328D01*
X122206206Y-130592335D01*
X122292452Y-130707544D01*
X122292455Y-130707547D01*
X122407664Y-130793793D01*
X122407671Y-130793797D01*
X122542517Y-130844091D01*
X122542516Y-130844091D01*
X122549444Y-130844835D01*
X122602127Y-130850500D01*
X124397872Y-130850499D01*
X124457483Y-130844091D01*
X124592331Y-130793796D01*
X124707546Y-130707546D01*
X124793796Y-130592331D01*
X124844091Y-130457483D01*
X124850500Y-130397873D01*
X124850499Y-130373979D01*
X124853330Y-130360963D01*
X124863940Y-130341525D01*
X124870179Y-130320275D01*
X124886803Y-130299643D01*
X124886808Y-130299636D01*
X124886811Y-130299634D01*
X124886818Y-130299626D01*
X125557037Y-129629408D01*
X125574075Y-129692993D01*
X125639901Y-129807007D01*
X125732993Y-129900099D01*
X125847007Y-129965925D01*
X125910590Y-129982962D01*
X125278282Y-130615269D01*
X125278282Y-130615270D01*
X125332449Y-130654624D01*
X125521782Y-130751095D01*
X125723870Y-130816757D01*
X125933754Y-130850000D01*
X126146246Y-130850000D01*
X126356127Y-130816757D01*
X126356130Y-130816757D01*
X126558217Y-130751095D01*
X126747554Y-130654622D01*
X126801716Y-130615270D01*
X126801717Y-130615270D01*
X126169408Y-129982962D01*
X126232993Y-129965925D01*
X126347007Y-129900099D01*
X126440099Y-129807007D01*
X126505925Y-129692993D01*
X126522962Y-129629409D01*
X127155270Y-130261717D01*
X127155270Y-130261716D01*
X127194622Y-130207555D01*
X127199232Y-130198507D01*
X127247205Y-130147709D01*
X127315025Y-130130912D01*
X127381161Y-130153447D01*
X127420204Y-130198504D01*
X127424949Y-130207817D01*
X127549890Y-130379786D01*
X127700213Y-130530109D01*
X127872179Y-130655048D01*
X127872181Y-130655049D01*
X127872184Y-130655051D01*
X128061588Y-130751557D01*
X128263757Y-130817246D01*
X128473713Y-130850500D01*
X128473714Y-130850500D01*
X128686286Y-130850500D01*
X128686287Y-130850500D01*
X128896243Y-130817246D01*
X129098412Y-130751557D01*
X129287816Y-130655051D01*
X129374138Y-130592335D01*
X129459786Y-130530109D01*
X129459788Y-130530106D01*
X129459792Y-130530104D01*
X129610104Y-130379792D01*
X129610106Y-130379788D01*
X129610109Y-130379786D01*
X129735048Y-130207820D01*
X129735050Y-130207817D01*
X129735051Y-130207816D01*
X129739514Y-130199054D01*
X129787488Y-130148259D01*
X129855308Y-130131463D01*
X129921444Y-130153999D01*
X129960486Y-130199056D01*
X129964951Y-130207820D01*
X130089890Y-130379786D01*
X130240213Y-130530109D01*
X130412179Y-130655048D01*
X130412181Y-130655049D01*
X130412184Y-130655051D01*
X130601588Y-130751557D01*
X130803757Y-130817246D01*
X131013713Y-130850500D01*
X131013714Y-130850500D01*
X131226286Y-130850500D01*
X131226287Y-130850500D01*
X131436243Y-130817246D01*
X131638412Y-130751557D01*
X131827816Y-130655051D01*
X131914138Y-130592335D01*
X131999786Y-130530109D01*
X131999788Y-130530106D01*
X131999792Y-130530104D01*
X132150104Y-130379792D01*
X132150106Y-130379788D01*
X132150109Y-130379786D01*
X132275048Y-130207820D01*
X132275050Y-130207817D01*
X132275051Y-130207816D01*
X132279514Y-130199054D01*
X132327488Y-130148259D01*
X132395308Y-130131463D01*
X132461444Y-130153999D01*
X132500486Y-130199056D01*
X132504951Y-130207820D01*
X132629890Y-130379786D01*
X132780213Y-130530109D01*
X132952179Y-130655048D01*
X132952181Y-130655049D01*
X132952184Y-130655051D01*
X133141588Y-130751557D01*
X133343757Y-130817246D01*
X133553713Y-130850500D01*
X133553714Y-130850500D01*
X133766286Y-130850500D01*
X133766287Y-130850500D01*
X133976243Y-130817246D01*
X134178412Y-130751557D01*
X134367816Y-130655051D01*
X134454138Y-130592335D01*
X134539786Y-130530109D01*
X134539788Y-130530106D01*
X134539792Y-130530104D01*
X134690104Y-130379792D01*
X134690106Y-130379788D01*
X134690109Y-130379786D01*
X134815048Y-130207820D01*
X134815050Y-130207817D01*
X134815051Y-130207816D01*
X134819514Y-130199054D01*
X134867488Y-130148259D01*
X134935308Y-130131463D01*
X135001444Y-130153999D01*
X135040486Y-130199056D01*
X135044951Y-130207820D01*
X135169890Y-130379786D01*
X135320213Y-130530109D01*
X135492179Y-130655048D01*
X135492181Y-130655049D01*
X135492184Y-130655051D01*
X135681588Y-130751557D01*
X135883757Y-130817246D01*
X136093713Y-130850500D01*
X136093714Y-130850500D01*
X136306286Y-130850500D01*
X136306287Y-130850500D01*
X136516243Y-130817246D01*
X136718412Y-130751557D01*
X136907816Y-130655051D01*
X136994138Y-130592335D01*
X137079786Y-130530109D01*
X137079788Y-130530106D01*
X137079792Y-130530104D01*
X137230104Y-130379792D01*
X137230106Y-130379788D01*
X137230109Y-130379786D01*
X137355048Y-130207820D01*
X137355050Y-130207817D01*
X137355051Y-130207816D01*
X137451557Y-130018412D01*
X137517246Y-129816243D01*
X137550500Y-129606287D01*
X137550500Y-129393713D01*
X137517246Y-129183757D01*
X137451557Y-128981588D01*
X137355051Y-128792184D01*
X137355049Y-128792181D01*
X137355048Y-128792179D01*
X137230109Y-128620213D01*
X137079786Y-128469890D01*
X136907820Y-128344951D01*
X136718414Y-128248444D01*
X136718413Y-128248443D01*
X136718412Y-128248443D01*
X136516243Y-128182754D01*
X136516241Y-128182753D01*
X136516240Y-128182753D01*
X136354957Y-128157208D01*
X136306287Y-128149500D01*
X136093713Y-128149500D01*
X136045042Y-128157208D01*
X135883760Y-128182753D01*
X135681585Y-128248444D01*
X135492179Y-128344951D01*
X135320213Y-128469890D01*
X135169890Y-128620213D01*
X135044949Y-128792182D01*
X135040484Y-128800946D01*
X134992509Y-128851742D01*
X134924688Y-128868536D01*
X134858553Y-128845998D01*
X134819516Y-128800946D01*
X134815050Y-128792182D01*
X134690109Y-128620213D01*
X134539786Y-128469890D01*
X134367820Y-128344951D01*
X134178414Y-128248444D01*
X134178413Y-128248443D01*
X134178412Y-128248443D01*
X133976243Y-128182754D01*
X133976241Y-128182753D01*
X133976240Y-128182753D01*
X133814957Y-128157208D01*
X133766287Y-128149500D01*
X133553713Y-128149500D01*
X133505042Y-128157208D01*
X133343760Y-128182753D01*
X133141585Y-128248444D01*
X132952179Y-128344951D01*
X132780213Y-128469890D01*
X132629890Y-128620213D01*
X132504949Y-128792182D01*
X132500484Y-128800946D01*
X132452509Y-128851742D01*
X132384688Y-128868536D01*
X132318553Y-128845998D01*
X132279516Y-128800946D01*
X132275050Y-128792182D01*
X132150109Y-128620213D01*
X131999786Y-128469890D01*
X131827820Y-128344951D01*
X131638414Y-128248444D01*
X131638413Y-128248443D01*
X131638412Y-128248443D01*
X131436243Y-128182754D01*
X131436241Y-128182753D01*
X131436240Y-128182753D01*
X131274957Y-128157208D01*
X131226287Y-128149500D01*
X131013713Y-128149500D01*
X130965042Y-128157208D01*
X130803760Y-128182753D01*
X130601585Y-128248444D01*
X130412179Y-128344951D01*
X130240213Y-128469890D01*
X130089890Y-128620213D01*
X129964949Y-128792182D01*
X129960484Y-128800946D01*
X129912509Y-128851742D01*
X129844688Y-128868536D01*
X129778553Y-128845998D01*
X129739516Y-128800946D01*
X129735050Y-128792182D01*
X129610109Y-128620213D01*
X129459786Y-128469890D01*
X129287820Y-128344951D01*
X129098414Y-128248444D01*
X129098413Y-128248443D01*
X129098412Y-128248443D01*
X128896243Y-128182754D01*
X128896241Y-128182753D01*
X128896240Y-128182753D01*
X128734957Y-128157208D01*
X128686287Y-128149500D01*
X128473713Y-128149500D01*
X128425042Y-128157208D01*
X128263760Y-128182753D01*
X128061585Y-128248444D01*
X127872179Y-128344951D01*
X127700213Y-128469890D01*
X127549890Y-128620213D01*
X127424949Y-128792182D01*
X127420202Y-128801499D01*
X127372227Y-128852293D01*
X127304405Y-128869087D01*
X127238271Y-128846548D01*
X127199234Y-128801495D01*
X127194626Y-128792452D01*
X127155270Y-128738282D01*
X127155269Y-128738282D01*
X126522962Y-129370590D01*
X126505925Y-129307007D01*
X126440099Y-129192993D01*
X126347007Y-129099901D01*
X126232993Y-129034075D01*
X126169409Y-129017037D01*
X126801716Y-128384728D01*
X126747550Y-128345375D01*
X126558217Y-128248904D01*
X126356129Y-128183242D01*
X126146246Y-128150000D01*
X125933754Y-128150000D01*
X125723872Y-128183242D01*
X125723869Y-128183242D01*
X125521782Y-128248904D01*
X125332439Y-128345380D01*
X125278282Y-128384727D01*
X125278282Y-128384728D01*
X125910591Y-129017037D01*
X125847007Y-129034075D01*
X125732993Y-129099901D01*
X125639901Y-129192993D01*
X125574075Y-129307007D01*
X125557037Y-129370591D01*
X124886818Y-128700372D01*
X124853333Y-128639049D01*
X124853330Y-128639036D01*
X124850499Y-128626015D01*
X124850499Y-128602128D01*
X124844091Y-128542517D01*
X124815926Y-128467002D01*
X124793798Y-128407673D01*
X124793793Y-128407664D01*
X124707547Y-128292455D01*
X124707544Y-128292452D01*
X124592335Y-128206206D01*
X124592328Y-128206202D01*
X124457482Y-128155908D01*
X124457483Y-128155908D01*
X124397883Y-128149501D01*
X124397881Y-128149500D01*
X124397873Y-128149500D01*
X124397864Y-128149500D01*
X122602129Y-128149500D01*
X122602123Y-128149501D01*
X122542516Y-128155908D01*
X122407671Y-128206202D01*
X122407664Y-128206206D01*
X122292455Y-128292452D01*
X122292452Y-128292455D01*
X122206206Y-128407664D01*
X122206202Y-128407671D01*
X122155908Y-128542517D01*
X122149501Y-128602116D01*
X122149500Y-128602135D01*
X86500000Y-128602135D01*
X86500000Y-123902135D01*
X148049500Y-123902135D01*
X148049500Y-126497870D01*
X148049501Y-126497876D01*
X148055908Y-126557483D01*
X148106202Y-126692328D01*
X148106206Y-126692335D01*
X148192452Y-126807544D01*
X148192455Y-126807547D01*
X148307664Y-126893793D01*
X148307671Y-126893797D01*
X148442517Y-126944091D01*
X148442516Y-126944091D01*
X148449444Y-126944835D01*
X148502127Y-126950500D01*
X151097872Y-126950499D01*
X151157483Y-126944091D01*
X151292331Y-126893796D01*
X151407546Y-126807546D01*
X151493796Y-126692331D01*
X151544091Y-126557483D01*
X151550500Y-126497873D01*
X151550499Y-125085258D01*
X170849500Y-125085258D01*
X170849500Y-125314741D01*
X170874446Y-125504215D01*
X170879452Y-125542238D01*
X170879453Y-125542240D01*
X170938842Y-125763887D01*
X171026650Y-125975876D01*
X171026657Y-125975890D01*
X171141392Y-126174617D01*
X171281081Y-126356661D01*
X171281089Y-126356670D01*
X171443330Y-126518911D01*
X171443338Y-126518918D01*
X171625382Y-126658607D01*
X171625385Y-126658608D01*
X171625388Y-126658611D01*
X171684282Y-126692613D01*
X171732498Y-126743180D01*
X171745720Y-126811787D01*
X171719752Y-126876652D01*
X171684283Y-126907385D01*
X171658488Y-126922278D01*
X171625382Y-126941392D01*
X171443338Y-127081081D01*
X171281081Y-127243338D01*
X171141392Y-127425382D01*
X171026657Y-127624109D01*
X171026650Y-127624123D01*
X170938842Y-127836112D01*
X170938842Y-127836113D01*
X170883002Y-128044515D01*
X170879453Y-128057759D01*
X170879451Y-128057770D01*
X170849500Y-128285258D01*
X170849500Y-128514741D01*
X170873940Y-128700372D01*
X170879452Y-128742238D01*
X170908793Y-128851742D01*
X170938842Y-128963887D01*
X171026650Y-129175876D01*
X171026657Y-129175890D01*
X171141392Y-129374617D01*
X171281081Y-129556661D01*
X171281089Y-129556670D01*
X171443330Y-129718911D01*
X171443338Y-129718918D01*
X171625382Y-129858607D01*
X171625385Y-129858608D01*
X171625388Y-129858611D01*
X171824112Y-129973344D01*
X171824117Y-129973346D01*
X171824123Y-129973349D01*
X171888465Y-130000000D01*
X172036113Y-130061158D01*
X172257762Y-130120548D01*
X172485266Y-130150500D01*
X172485273Y-130150500D01*
X172714727Y-130150500D01*
X172714734Y-130150500D01*
X172942238Y-130120548D01*
X173163887Y-130061158D01*
X173375888Y-129973344D01*
X173574612Y-129858611D01*
X173756661Y-129718919D01*
X173756665Y-129718914D01*
X173756670Y-129718911D01*
X173918911Y-129556670D01*
X173918914Y-129556665D01*
X173918919Y-129556661D01*
X174058611Y-129374612D01*
X174173344Y-129175888D01*
X174261158Y-128963887D01*
X174320548Y-128742238D01*
X174350500Y-128514734D01*
X174350500Y-128285266D01*
X174320548Y-128057762D01*
X174261158Y-127836113D01*
X174211190Y-127715480D01*
X174173349Y-127624123D01*
X174173346Y-127624117D01*
X174173344Y-127624112D01*
X174058611Y-127425388D01*
X174058608Y-127425385D01*
X174058607Y-127425382D01*
X173918918Y-127243338D01*
X173918911Y-127243330D01*
X173756670Y-127081089D01*
X173756661Y-127081081D01*
X173574614Y-126941390D01*
X173556966Y-126931201D01*
X173515717Y-126907386D01*
X173467502Y-126856821D01*
X173454278Y-126788214D01*
X173480246Y-126723349D01*
X173515716Y-126692614D01*
X173574612Y-126658611D01*
X173651017Y-126599983D01*
X180624500Y-126599983D01*
X180624500Y-127400001D01*
X180624501Y-127400019D01*
X180635000Y-127502796D01*
X180635001Y-127502799D01*
X180690185Y-127669331D01*
X180690186Y-127669334D01*
X180782288Y-127818656D01*
X180906344Y-127942712D01*
X180970543Y-127982310D01*
X181017268Y-128034258D01*
X181028489Y-128103221D01*
X181000646Y-128167303D01*
X180993128Y-128175530D01*
X180885585Y-128283073D01*
X180783768Y-128423211D01*
X180705128Y-128577552D01*
X180651597Y-128742302D01*
X180631604Y-128868536D01*
X180624500Y-128913389D01*
X180624500Y-129086611D01*
X180651598Y-129257701D01*
X180705127Y-129422445D01*
X180783768Y-129576788D01*
X180885586Y-129716928D01*
X181008072Y-129839414D01*
X181148212Y-129941232D01*
X181302555Y-130019873D01*
X181467299Y-130073402D01*
X181638389Y-130100500D01*
X181638390Y-130100500D01*
X182361610Y-130100500D01*
X182361611Y-130100500D01*
X182532701Y-130073402D01*
X182697445Y-130019873D01*
X182851788Y-129941232D01*
X182991928Y-129839414D01*
X183114414Y-129716928D01*
X183216232Y-129576788D01*
X183294873Y-129422445D01*
X183348402Y-129257701D01*
X183375500Y-129086611D01*
X183375500Y-128913389D01*
X183348402Y-128742299D01*
X183294873Y-128577555D01*
X183216232Y-128423212D01*
X183114414Y-128283072D01*
X183006872Y-128175530D01*
X182973387Y-128114207D01*
X182978371Y-128044515D01*
X183020243Y-127988582D01*
X183029457Y-127982310D01*
X183093656Y-127942712D01*
X183217712Y-127818656D01*
X183309814Y-127669334D01*
X183364999Y-127502797D01*
X183375500Y-127400009D01*
X183375499Y-126599992D01*
X183367216Y-126518911D01*
X183364999Y-126497203D01*
X183364998Y-126497200D01*
X183309814Y-126330666D01*
X183217712Y-126181344D01*
X183093656Y-126057288D01*
X182961685Y-125975888D01*
X182944336Y-125965187D01*
X182944331Y-125965185D01*
X182942862Y-125964698D01*
X182777797Y-125910001D01*
X182777795Y-125910000D01*
X182675010Y-125899500D01*
X181324998Y-125899500D01*
X181324981Y-125899501D01*
X181222203Y-125910000D01*
X181222200Y-125910001D01*
X181055668Y-125965185D01*
X181055663Y-125965187D01*
X180906342Y-126057289D01*
X180782289Y-126181342D01*
X180690187Y-126330663D01*
X180690186Y-126330666D01*
X180635001Y-126497203D01*
X180635001Y-126497204D01*
X180635000Y-126497204D01*
X180624500Y-126599983D01*
X173651017Y-126599983D01*
X173756661Y-126518919D01*
X173756665Y-126518914D01*
X173756670Y-126518911D01*
X173918911Y-126356670D01*
X173918914Y-126356665D01*
X173918919Y-126356661D01*
X174058611Y-126174612D01*
X174173344Y-125975888D01*
X174261158Y-125763887D01*
X174320548Y-125542238D01*
X174350500Y-125314734D01*
X174350500Y-125085266D01*
X174320548Y-124857762D01*
X174261158Y-124636113D01*
X174173344Y-124424112D01*
X174058611Y-124225388D01*
X174058608Y-124225385D01*
X174058607Y-124225382D01*
X173918918Y-124043338D01*
X173918911Y-124043330D01*
X173756670Y-123881089D01*
X173756661Y-123881081D01*
X173574617Y-123741392D01*
X173516210Y-123707671D01*
X173375888Y-123626656D01*
X173375876Y-123626650D01*
X173163887Y-123538842D01*
X172942238Y-123479452D01*
X172904215Y-123474446D01*
X172714741Y-123449500D01*
X172714734Y-123449500D01*
X172485266Y-123449500D01*
X172485258Y-123449500D01*
X172268715Y-123478009D01*
X172257762Y-123479452D01*
X172164076Y-123504554D01*
X172036112Y-123538842D01*
X171824123Y-123626650D01*
X171824109Y-123626657D01*
X171625382Y-123741392D01*
X171443338Y-123881081D01*
X171281081Y-124043338D01*
X171141392Y-124225382D01*
X171026657Y-124424109D01*
X171026650Y-124424123D01*
X170938842Y-124636112D01*
X170879453Y-124857759D01*
X170879451Y-124857770D01*
X170849500Y-125085258D01*
X151550499Y-125085258D01*
X151550499Y-123902128D01*
X151544091Y-123842517D01*
X151493796Y-123707669D01*
X151493795Y-123707668D01*
X151493793Y-123707664D01*
X151407547Y-123592455D01*
X151407544Y-123592452D01*
X151292335Y-123506206D01*
X151292328Y-123506202D01*
X151157482Y-123455908D01*
X151157483Y-123455908D01*
X151097883Y-123449501D01*
X151097881Y-123449500D01*
X151097873Y-123449500D01*
X151097864Y-123449500D01*
X148502129Y-123449500D01*
X148502123Y-123449501D01*
X148442516Y-123455908D01*
X148307671Y-123506202D01*
X148307664Y-123506206D01*
X148192455Y-123592452D01*
X148192452Y-123592455D01*
X148106206Y-123707664D01*
X148106202Y-123707671D01*
X148055908Y-123842517D01*
X148049501Y-123902116D01*
X148049501Y-123902123D01*
X148049500Y-123902135D01*
X86500000Y-123902135D01*
X86500000Y-110224000D01*
X86519685Y-110156961D01*
X86572489Y-110111206D01*
X86624000Y-110100000D01*
X92750000Y-110100000D01*
X92750000Y-98921153D01*
X95199500Y-98921153D01*
X95199500Y-99078846D01*
X95230261Y-99233489D01*
X95230264Y-99233501D01*
X95290602Y-99379172D01*
X95290609Y-99379185D01*
X95378210Y-99510288D01*
X95378213Y-99510292D01*
X95489707Y-99621786D01*
X95489711Y-99621789D01*
X95620814Y-99709390D01*
X95620827Y-99709397D01*
X95720060Y-99750500D01*
X95766503Y-99769737D01*
X95921153Y-99800499D01*
X95921156Y-99800500D01*
X95921158Y-99800500D01*
X96078844Y-99800500D01*
X96078845Y-99800499D01*
X96155152Y-99785320D01*
X96233488Y-99769739D01*
X96233489Y-99769738D01*
X96233497Y-99769737D01*
X96257155Y-99759937D01*
X96304604Y-99750500D01*
X101073920Y-99750500D01*
X101171462Y-99731096D01*
X101218913Y-99721658D01*
X101355495Y-99665084D01*
X101420291Y-99621789D01*
X101420294Y-99621786D01*
X101420296Y-99621786D01*
X101449547Y-99602240D01*
X101478416Y-99582952D01*
X104024548Y-97036818D01*
X104085871Y-97003334D01*
X104112229Y-97000500D01*
X108582152Y-97000500D01*
X108649191Y-97020185D01*
X108694946Y-97072989D01*
X108703769Y-97100308D01*
X108730261Y-97233491D01*
X108730264Y-97233501D01*
X108790602Y-97379172D01*
X108790609Y-97379185D01*
X108878602Y-97510874D01*
X108899480Y-97577551D01*
X108899500Y-97579765D01*
X108899500Y-101699903D01*
X108879815Y-101766942D01*
X108863181Y-101787584D01*
X107985339Y-102665425D01*
X107924016Y-102698910D01*
X107921850Y-102699361D01*
X107766508Y-102730261D01*
X107766498Y-102730264D01*
X107620827Y-102790602D01*
X107620814Y-102790609D01*
X107489711Y-102878210D01*
X107489707Y-102878213D01*
X107378213Y-102989707D01*
X107378210Y-102989711D01*
X107290609Y-103120814D01*
X107290602Y-103120827D01*
X107230264Y-103266498D01*
X107230261Y-103266510D01*
X107199500Y-103421153D01*
X107199500Y-103578846D01*
X107230261Y-103733489D01*
X107230264Y-103733501D01*
X107290602Y-103879172D01*
X107290609Y-103879185D01*
X107378210Y-104010288D01*
X107378213Y-104010292D01*
X107489707Y-104121786D01*
X107489711Y-104121789D01*
X107620814Y-104209390D01*
X107620827Y-104209397D01*
X107766498Y-104269735D01*
X107766503Y-104269737D01*
X107921153Y-104300499D01*
X107921156Y-104300500D01*
X107921158Y-104300500D01*
X108078844Y-104300500D01*
X108078845Y-104300499D01*
X108233497Y-104269737D01*
X108379179Y-104209394D01*
X108510289Y-104121789D01*
X108621789Y-104010289D01*
X108709394Y-103879179D01*
X108769737Y-103733497D01*
X108798468Y-103589059D01*
X108800638Y-103578150D01*
X108833023Y-103516239D01*
X108834520Y-103514714D01*
X109858506Y-102490727D01*
X109858511Y-102490724D01*
X109868714Y-102480520D01*
X109868716Y-102480520D01*
X109980520Y-102368716D01*
X110059577Y-102231784D01*
X110100500Y-102079057D01*
X110100500Y-98421153D01*
X115699500Y-98421153D01*
X115699500Y-98578846D01*
X115730261Y-98733489D01*
X115730264Y-98733501D01*
X115790602Y-98879172D01*
X115790609Y-98879185D01*
X115878210Y-99010288D01*
X115878213Y-99010292D01*
X115989707Y-99121786D01*
X115989711Y-99121789D01*
X116120814Y-99209390D01*
X116120827Y-99209397D01*
X116266498Y-99269735D01*
X116266503Y-99269737D01*
X116331147Y-99282595D01*
X116421849Y-99300638D01*
X116483760Y-99333023D01*
X116485339Y-99334574D01*
X120863181Y-103712416D01*
X120896666Y-103773739D01*
X120899500Y-103800097D01*
X120899500Y-113913330D01*
X120899499Y-113913348D01*
X120899499Y-114079054D01*
X120899498Y-114079054D01*
X120899499Y-114079057D01*
X120940423Y-114231785D01*
X120962335Y-114269737D01*
X121019479Y-114368714D01*
X121019481Y-114368717D01*
X121138349Y-114487585D01*
X121138355Y-114487590D01*
X125015139Y-118364374D01*
X125015149Y-118364385D01*
X125019479Y-118368715D01*
X125019480Y-118368716D01*
X125131284Y-118480520D01*
X125182845Y-118510288D01*
X125218095Y-118530639D01*
X125218097Y-118530641D01*
X125268213Y-118559576D01*
X125268215Y-118559577D01*
X125420942Y-118600500D01*
X125420943Y-118600500D01*
X126420234Y-118600500D01*
X126487273Y-118620185D01*
X126489125Y-118621398D01*
X126620814Y-118709390D01*
X126620827Y-118709397D01*
X126766498Y-118769735D01*
X126766503Y-118769737D01*
X126921153Y-118800499D01*
X126921156Y-118800500D01*
X126921158Y-118800500D01*
X127078844Y-118800500D01*
X127078845Y-118800499D01*
X127233497Y-118769737D01*
X127379179Y-118709394D01*
X127510289Y-118621789D01*
X127621789Y-118510289D01*
X127709394Y-118379179D01*
X127769737Y-118233497D01*
X127800500Y-118078842D01*
X127800500Y-117921158D01*
X127800500Y-117921155D01*
X127800499Y-117921153D01*
X127769738Y-117766510D01*
X127769737Y-117766503D01*
X127769735Y-117766498D01*
X127709397Y-117620827D01*
X127709390Y-117620814D01*
X127621789Y-117489711D01*
X127621786Y-117489707D01*
X127510292Y-117378213D01*
X127510288Y-117378210D01*
X127379185Y-117290609D01*
X127379172Y-117290602D01*
X127233501Y-117230264D01*
X127233489Y-117230261D01*
X127078845Y-117199500D01*
X127078842Y-117199500D01*
X126921158Y-117199500D01*
X126921155Y-117199500D01*
X126766510Y-117230261D01*
X126766498Y-117230264D01*
X126620827Y-117290602D01*
X126620814Y-117290609D01*
X126489125Y-117378602D01*
X126422447Y-117399480D01*
X126420234Y-117399500D01*
X125800097Y-117399500D01*
X125733058Y-117379815D01*
X125712416Y-117363181D01*
X122861416Y-114512181D01*
X122827931Y-114450858D01*
X122832915Y-114381166D01*
X122874787Y-114325233D01*
X122940251Y-114300816D01*
X122949097Y-114300500D01*
X123078844Y-114300500D01*
X123078845Y-114300499D01*
X123233497Y-114269737D01*
X123379179Y-114209394D01*
X123510289Y-114121789D01*
X123621789Y-114010289D01*
X123709394Y-113879179D01*
X123769737Y-113733497D01*
X123800500Y-113578842D01*
X123800500Y-113421158D01*
X123800500Y-113421155D01*
X123800499Y-113421153D01*
X123769738Y-113266510D01*
X123769737Y-113266503D01*
X123769735Y-113266498D01*
X123709397Y-113120827D01*
X123709390Y-113120814D01*
X123621398Y-112989125D01*
X123600520Y-112922447D01*
X123600500Y-112920234D01*
X123600500Y-108421153D01*
X125199500Y-108421153D01*
X125199500Y-108578846D01*
X125230261Y-108733489D01*
X125230264Y-108733501D01*
X125290602Y-108879172D01*
X125290609Y-108879185D01*
X125378210Y-109010288D01*
X125378213Y-109010292D01*
X125489707Y-109121786D01*
X125489711Y-109121789D01*
X125620814Y-109209390D01*
X125620827Y-109209397D01*
X125766498Y-109269735D01*
X125766503Y-109269737D01*
X125831147Y-109282595D01*
X125921849Y-109300638D01*
X125983760Y-109333023D01*
X125985339Y-109334574D01*
X127363181Y-110712416D01*
X127396666Y-110773739D01*
X127399500Y-110800097D01*
X127399500Y-112920234D01*
X127379815Y-112987273D01*
X127378602Y-112989125D01*
X127290609Y-113120814D01*
X127290602Y-113120827D01*
X127230264Y-113266498D01*
X127230261Y-113266510D01*
X127199500Y-113421153D01*
X127199500Y-113578846D01*
X127230261Y-113733489D01*
X127230264Y-113733501D01*
X127290602Y-113879172D01*
X127290609Y-113879185D01*
X127378210Y-114010288D01*
X127378213Y-114010292D01*
X127489707Y-114121786D01*
X127489711Y-114121789D01*
X127620814Y-114209390D01*
X127620827Y-114209397D01*
X127766498Y-114269735D01*
X127766503Y-114269737D01*
X127921153Y-114300499D01*
X127921156Y-114300500D01*
X127921158Y-114300500D01*
X128078844Y-114300500D01*
X128078845Y-114300499D01*
X128233497Y-114269737D01*
X128379179Y-114209394D01*
X128510289Y-114121789D01*
X128621789Y-114010289D01*
X128709394Y-113879179D01*
X128769737Y-113733497D01*
X128800500Y-113578842D01*
X128800500Y-113421158D01*
X128800500Y-113421155D01*
X128800499Y-113421153D01*
X128769738Y-113266510D01*
X128769737Y-113266503D01*
X128769735Y-113266498D01*
X128709397Y-113120827D01*
X128709390Y-113120814D01*
X128621398Y-112989125D01*
X128600520Y-112922447D01*
X128600500Y-112920234D01*
X128600500Y-110420945D01*
X128600500Y-110420943D01*
X128559577Y-110268216D01*
X128559577Y-110268215D01*
X128559577Y-110268214D01*
X128530639Y-110218095D01*
X128530637Y-110218092D01*
X128495344Y-110156961D01*
X128480520Y-110131284D01*
X128368716Y-110019480D01*
X128368715Y-110019479D01*
X128364385Y-110015149D01*
X128364374Y-110015139D01*
X126834574Y-108485339D01*
X126801089Y-108424016D01*
X126800638Y-108421849D01*
X126769738Y-108266510D01*
X126769737Y-108266503D01*
X126769735Y-108266498D01*
X126709397Y-108120827D01*
X126709390Y-108120814D01*
X126621789Y-107989711D01*
X126621786Y-107989707D01*
X126510292Y-107878213D01*
X126510288Y-107878210D01*
X126379185Y-107790609D01*
X126379172Y-107790602D01*
X126233501Y-107730264D01*
X126233489Y-107730261D01*
X126078845Y-107699500D01*
X126078842Y-107699500D01*
X125921158Y-107699500D01*
X125921155Y-107699500D01*
X125766510Y-107730261D01*
X125766498Y-107730264D01*
X125620827Y-107790602D01*
X125620814Y-107790609D01*
X125489711Y-107878210D01*
X125489707Y-107878213D01*
X125378213Y-107989707D01*
X125378210Y-107989711D01*
X125290609Y-108120814D01*
X125290602Y-108120827D01*
X125230264Y-108266498D01*
X125230261Y-108266510D01*
X125199500Y-108421153D01*
X123600500Y-108421153D01*
X123600500Y-103589059D01*
X123600501Y-103589046D01*
X123600501Y-103420945D01*
X123600501Y-103420943D01*
X123559577Y-103268215D01*
X123530639Y-103218095D01*
X123480520Y-103131284D01*
X123368716Y-103019480D01*
X123368715Y-103019479D01*
X123364385Y-103015149D01*
X123364374Y-103015139D01*
X118834574Y-98485339D01*
X118801089Y-98424016D01*
X118800638Y-98421849D01*
X118774531Y-98290606D01*
X118769737Y-98266503D01*
X118756066Y-98233497D01*
X118709397Y-98120827D01*
X118709390Y-98120814D01*
X118621789Y-97989711D01*
X118621786Y-97989707D01*
X118510292Y-97878213D01*
X118510288Y-97878210D01*
X118379185Y-97790609D01*
X118379172Y-97790602D01*
X118233501Y-97730264D01*
X118233489Y-97730261D01*
X118078845Y-97699500D01*
X118078842Y-97699500D01*
X117921158Y-97699500D01*
X117921155Y-97699500D01*
X117766510Y-97730261D01*
X117766498Y-97730264D01*
X117620827Y-97790602D01*
X117620814Y-97790609D01*
X117489711Y-97878210D01*
X117489707Y-97878213D01*
X117378213Y-97989707D01*
X117353102Y-98027289D01*
X117299489Y-98072093D01*
X117230164Y-98080800D01*
X117167137Y-98050645D01*
X117146898Y-98027289D01*
X117137791Y-98013659D01*
X117121789Y-97989711D01*
X117121788Y-97989710D01*
X117121786Y-97989707D01*
X117010292Y-97878213D01*
X117010288Y-97878210D01*
X116879185Y-97790609D01*
X116879172Y-97790602D01*
X116733501Y-97730264D01*
X116733489Y-97730261D01*
X116578845Y-97699500D01*
X116578842Y-97699500D01*
X116421158Y-97699500D01*
X116421155Y-97699500D01*
X116266510Y-97730261D01*
X116266498Y-97730264D01*
X116120827Y-97790602D01*
X116120814Y-97790609D01*
X115989711Y-97878210D01*
X115989707Y-97878213D01*
X115878213Y-97989707D01*
X115878210Y-97989711D01*
X115790609Y-98120814D01*
X115790602Y-98120827D01*
X115730264Y-98266498D01*
X115730261Y-98266510D01*
X115699500Y-98421153D01*
X110100500Y-98421153D01*
X110100500Y-97579765D01*
X110120185Y-97512726D01*
X110121398Y-97510874D01*
X110209390Y-97379185D01*
X110209390Y-97379184D01*
X110209394Y-97379179D01*
X110269737Y-97233497D01*
X110283345Y-97165085D01*
X110296231Y-97100308D01*
X110328616Y-97038397D01*
X110389332Y-97003823D01*
X110417848Y-97000500D01*
X118387770Y-97000500D01*
X118454809Y-97020185D01*
X118475451Y-97036819D01*
X118521586Y-97082954D01*
X118547560Y-97100308D01*
X118593918Y-97131282D01*
X118593920Y-97131285D01*
X118593921Y-97131285D01*
X118644496Y-97165079D01*
X118644511Y-97165087D01*
X118737993Y-97203808D01*
X118781087Y-97221658D01*
X118781091Y-97221658D01*
X118781092Y-97221659D01*
X118926079Y-97250500D01*
X118926082Y-97250500D01*
X119073919Y-97250500D01*
X119208842Y-97223661D01*
X119218912Y-97221658D01*
X119355494Y-97165084D01*
X119478416Y-97082952D01*
X119478421Y-97082947D01*
X121616835Y-94944534D01*
X123430705Y-93130663D01*
X124082952Y-92478416D01*
X124147435Y-92381908D01*
X124147439Y-92381902D01*
X151999500Y-92381902D01*
X151999500Y-92618097D01*
X152036446Y-92851368D01*
X152109433Y-93075996D01*
X152168764Y-93192438D01*
X152216657Y-93286433D01*
X152355483Y-93477510D01*
X152522490Y-93644517D01*
X152713567Y-93783343D01*
X152812991Y-93834002D01*
X152924003Y-93890566D01*
X152924005Y-93890566D01*
X152924008Y-93890568D01*
X153044412Y-93929689D01*
X153148631Y-93963553D01*
X153381903Y-94000500D01*
X153381908Y-94000500D01*
X153618097Y-94000500D01*
X153851368Y-93963553D01*
X153901269Y-93947339D01*
X154054097Y-93897682D01*
X160405113Y-93897682D01*
X160405113Y-94102317D01*
X160437122Y-94304417D01*
X160500357Y-94499031D01*
X160593254Y-94681350D01*
X160593260Y-94681359D01*
X160625636Y-94725921D01*
X160625637Y-94725922D01*
X161305113Y-94046446D01*
X161305113Y-94052661D01*
X161332372Y-94154394D01*
X161385033Y-94245606D01*
X161459507Y-94320080D01*
X161550719Y-94372741D01*
X161652452Y-94400000D01*
X161658666Y-94400000D01*
X160979189Y-95079474D01*
X161023763Y-95111859D01*
X161206081Y-95204755D01*
X161400695Y-95267990D01*
X161602796Y-95300000D01*
X161807430Y-95300000D01*
X162009530Y-95267990D01*
X162204144Y-95204755D01*
X162386462Y-95111859D01*
X162431034Y-95079474D01*
X161751560Y-94400000D01*
X161757774Y-94400000D01*
X161859507Y-94372741D01*
X161950719Y-94320080D01*
X162025193Y-94245606D01*
X162077854Y-94154394D01*
X162105113Y-94052661D01*
X162105113Y-94046447D01*
X162784586Y-94725921D01*
X162822393Y-94722946D01*
X162890771Y-94737310D01*
X162940528Y-94786361D01*
X162949827Y-94807556D01*
X162970299Y-94869334D01*
X163062401Y-95018656D01*
X163186457Y-95142712D01*
X163335779Y-95234814D01*
X163502316Y-95289999D01*
X163605104Y-95300500D01*
X164805121Y-95300499D01*
X164907910Y-95289999D01*
X165074447Y-95234814D01*
X165223769Y-95142712D01*
X165347825Y-95018656D01*
X165439927Y-94869334D01*
X165495112Y-94702797D01*
X165505613Y-94600009D01*
X165505612Y-93399992D01*
X165495112Y-93297203D01*
X165439927Y-93130666D01*
X165347825Y-92981344D01*
X165223769Y-92857288D01*
X165074447Y-92765186D01*
X164907910Y-92710001D01*
X164907908Y-92710000D01*
X164805123Y-92699500D01*
X163605111Y-92699500D01*
X163605094Y-92699501D01*
X163502316Y-92710000D01*
X163502313Y-92710001D01*
X163335781Y-92765185D01*
X163335776Y-92765187D01*
X163186455Y-92857289D01*
X163062402Y-92981342D01*
X162970300Y-93130663D01*
X162970298Y-93130668D01*
X162949830Y-93192438D01*
X162910057Y-93249883D01*
X162845541Y-93276706D01*
X162822396Y-93277052D01*
X162784587Y-93274076D01*
X162105113Y-93953551D01*
X162105113Y-93947339D01*
X162077854Y-93845606D01*
X162025193Y-93754394D01*
X161950719Y-93679920D01*
X161859507Y-93627259D01*
X161757774Y-93600000D01*
X161751559Y-93600000D01*
X162431035Y-92920524D01*
X162431034Y-92920523D01*
X162386472Y-92888147D01*
X162386463Y-92888141D01*
X162204144Y-92795244D01*
X162009530Y-92732009D01*
X161807430Y-92700000D01*
X161602796Y-92700000D01*
X161400695Y-92732009D01*
X161206081Y-92795244D01*
X161023757Y-92888143D01*
X160979190Y-92920523D01*
X160979190Y-92920524D01*
X161658667Y-93600000D01*
X161652452Y-93600000D01*
X161550719Y-93627259D01*
X161459507Y-93679920D01*
X161385033Y-93754394D01*
X161332372Y-93845606D01*
X161305113Y-93947339D01*
X161305113Y-93953553D01*
X160625637Y-93274077D01*
X160625636Y-93274077D01*
X160593256Y-93318644D01*
X160500357Y-93500968D01*
X160437122Y-93695582D01*
X160405113Y-93897682D01*
X154054097Y-93897682D01*
X154075992Y-93890568D01*
X154286433Y-93783343D01*
X154477510Y-93644517D01*
X154644517Y-93477510D01*
X154783343Y-93286433D01*
X154890568Y-93075992D01*
X154963553Y-92851368D01*
X154977203Y-92765185D01*
X155000500Y-92618097D01*
X155000500Y-92381902D01*
X154963553Y-92148631D01*
X154890566Y-91924003D01*
X154834002Y-91812991D01*
X154783343Y-91713567D01*
X154644517Y-91522490D01*
X154477510Y-91355483D01*
X154286433Y-91216657D01*
X154075996Y-91109433D01*
X153851368Y-91036446D01*
X153618097Y-90999500D01*
X153618092Y-90999500D01*
X153381908Y-90999500D01*
X153381903Y-90999500D01*
X153148631Y-91036446D01*
X152924003Y-91109433D01*
X152713566Y-91216657D01*
X152604550Y-91295862D01*
X152522490Y-91355483D01*
X152522488Y-91355485D01*
X152522487Y-91355485D01*
X152355485Y-91522487D01*
X152355485Y-91522488D01*
X152355483Y-91522490D01*
X152295862Y-91604550D01*
X152216657Y-91713566D01*
X152109433Y-91924003D01*
X152036446Y-92148631D01*
X151999500Y-92381902D01*
X124147439Y-92381902D01*
X124165084Y-92355495D01*
X124221658Y-92218913D01*
X124250500Y-92073918D01*
X124250500Y-89304604D01*
X124259939Y-89257151D01*
X124262901Y-89250000D01*
X124269737Y-89233497D01*
X124300500Y-89078842D01*
X124300500Y-88921158D01*
X124300500Y-88921155D01*
X124300499Y-88921153D01*
X124269738Y-88766510D01*
X124269737Y-88766503D01*
X124262901Y-88750000D01*
X124209397Y-88620827D01*
X124209390Y-88620814D01*
X124121789Y-88489711D01*
X124121786Y-88489707D01*
X124010292Y-88378213D01*
X124010288Y-88378210D01*
X123879185Y-88290609D01*
X123879172Y-88290602D01*
X123733501Y-88230264D01*
X123733489Y-88230261D01*
X123578845Y-88199500D01*
X123578842Y-88199500D01*
X123421158Y-88199500D01*
X123421155Y-88199500D01*
X123266510Y-88230261D01*
X123266498Y-88230264D01*
X123120827Y-88290602D01*
X123120814Y-88290609D01*
X122989711Y-88378210D01*
X122989707Y-88378213D01*
X122878213Y-88489707D01*
X122878210Y-88489711D01*
X122790609Y-88620814D01*
X122790602Y-88620827D01*
X122730264Y-88766498D01*
X122730261Y-88766510D01*
X122699500Y-88921153D01*
X122699500Y-89078846D01*
X122730261Y-89233489D01*
X122730263Y-89233497D01*
X122740061Y-89257151D01*
X122749500Y-89304604D01*
X122749500Y-91637769D01*
X122729815Y-91704808D01*
X122713181Y-91725450D01*
X118966882Y-95471748D01*
X118905559Y-95505233D01*
X118855010Y-95505684D01*
X118823922Y-95499500D01*
X118823918Y-95499500D01*
X103823917Y-95499500D01*
X103676082Y-95499500D01*
X103676080Y-95499500D01*
X103531092Y-95528340D01*
X103531082Y-95528343D01*
X103394511Y-95584912D01*
X103394498Y-95584919D01*
X103271584Y-95667048D01*
X103271580Y-95667051D01*
X100725451Y-98213181D01*
X100664128Y-98246666D01*
X100637770Y-98249500D01*
X97917649Y-98249500D01*
X97850610Y-98229815D01*
X97804855Y-98177011D01*
X97794911Y-98107853D01*
X97796031Y-98101310D01*
X97798233Y-98090237D01*
X97800500Y-98078842D01*
X97800500Y-97921158D01*
X97800500Y-97921155D01*
X97800499Y-97921153D01*
X97791957Y-97878210D01*
X97769737Y-97766503D01*
X97769735Y-97766498D01*
X97709397Y-97620827D01*
X97709390Y-97620814D01*
X97621789Y-97489711D01*
X97621786Y-97489707D01*
X97510292Y-97378213D01*
X97510288Y-97378210D01*
X97379185Y-97290609D01*
X97379172Y-97290602D01*
X97233501Y-97230264D01*
X97233489Y-97230261D01*
X97200309Y-97223661D01*
X97138398Y-97191276D01*
X97103824Y-97130561D01*
X97100500Y-97102044D01*
X97100500Y-92381902D01*
X117699500Y-92381902D01*
X117699500Y-92618097D01*
X117736446Y-92851368D01*
X117809433Y-93075996D01*
X117868764Y-93192438D01*
X117916657Y-93286433D01*
X118055483Y-93477510D01*
X118222490Y-93644517D01*
X118413567Y-93783343D01*
X118512991Y-93834002D01*
X118624003Y-93890566D01*
X118624005Y-93890566D01*
X118624008Y-93890568D01*
X118744412Y-93929689D01*
X118848631Y-93963553D01*
X119081903Y-94000500D01*
X119081908Y-94000500D01*
X119318097Y-94000500D01*
X119551368Y-93963553D01*
X119601269Y-93947339D01*
X119775992Y-93890568D01*
X119986433Y-93783343D01*
X120177510Y-93644517D01*
X120344517Y-93477510D01*
X120483343Y-93286433D01*
X120590568Y-93075992D01*
X120663553Y-92851368D01*
X120677203Y-92765185D01*
X120700500Y-92618097D01*
X120700500Y-92381902D01*
X120663553Y-92148631D01*
X120590566Y-91924003D01*
X120534002Y-91812991D01*
X120483343Y-91713567D01*
X120344517Y-91522490D01*
X120177510Y-91355483D01*
X119986433Y-91216657D01*
X119775996Y-91109433D01*
X119551368Y-91036446D01*
X119318097Y-90999500D01*
X119318092Y-90999500D01*
X119081908Y-90999500D01*
X119081903Y-90999500D01*
X118848631Y-91036446D01*
X118624003Y-91109433D01*
X118413566Y-91216657D01*
X118304550Y-91295862D01*
X118222490Y-91355483D01*
X118222488Y-91355485D01*
X118222487Y-91355485D01*
X118055485Y-91522487D01*
X118055485Y-91522488D01*
X118055483Y-91522490D01*
X117995862Y-91604550D01*
X117916657Y-91713566D01*
X117809433Y-91924003D01*
X117736446Y-92148631D01*
X117699500Y-92381902D01*
X97100500Y-92381902D01*
X97100500Y-80421153D01*
X113699500Y-80421153D01*
X113699500Y-80578846D01*
X113730261Y-80733489D01*
X113730264Y-80733501D01*
X113790602Y-80879172D01*
X113790609Y-80879185D01*
X113878210Y-81010288D01*
X113878213Y-81010292D01*
X113989707Y-81121786D01*
X114027289Y-81146898D01*
X114072093Y-81200511D01*
X114080800Y-81269836D01*
X114050645Y-81332863D01*
X114027289Y-81353102D01*
X113989707Y-81378213D01*
X113878213Y-81489707D01*
X113878210Y-81489711D01*
X113790609Y-81620814D01*
X113790602Y-81620827D01*
X113730264Y-81766498D01*
X113730261Y-81766510D01*
X113699500Y-81921153D01*
X113699500Y-82078846D01*
X113730261Y-82233489D01*
X113730264Y-82233501D01*
X113790602Y-82379172D01*
X113790609Y-82379185D01*
X113878210Y-82510288D01*
X113878213Y-82510292D01*
X113989707Y-82621786D01*
X113989711Y-82621789D01*
X114120814Y-82709390D01*
X114120827Y-82709397D01*
X114254948Y-82764951D01*
X114266503Y-82769737D01*
X114421153Y-82800499D01*
X114421156Y-82800500D01*
X114421158Y-82800500D01*
X114578844Y-82800500D01*
X114578845Y-82800499D01*
X114733497Y-82769737D01*
X114850080Y-82721447D01*
X114879172Y-82709397D01*
X114879172Y-82709396D01*
X114879179Y-82709394D01*
X115010289Y-82621789D01*
X115121789Y-82510289D01*
X115209394Y-82379179D01*
X115269737Y-82233497D01*
X115289880Y-82132230D01*
X115300638Y-82078150D01*
X115333023Y-82016239D01*
X115334518Y-82014716D01*
X116482416Y-80866819D01*
X116543739Y-80833334D01*
X116570097Y-80830500D01*
X116687873Y-80830500D01*
X116754912Y-80850185D01*
X116800667Y-80902989D01*
X116810611Y-80972147D01*
X116805805Y-80992813D01*
X116800127Y-81010289D01*
X116782753Y-81063760D01*
X116749500Y-81273713D01*
X116749500Y-81486286D01*
X116782195Y-81692718D01*
X116782754Y-81696243D01*
X116841856Y-81878140D01*
X116848444Y-81898414D01*
X116944951Y-82087820D01*
X117069890Y-82259786D01*
X117220213Y-82410109D01*
X117392182Y-82535050D01*
X117400946Y-82539516D01*
X117451742Y-82587491D01*
X117468536Y-82655312D01*
X117445998Y-82721447D01*
X117400946Y-82760484D01*
X117392182Y-82764949D01*
X117220213Y-82889890D01*
X117069890Y-83040213D01*
X116944951Y-83212179D01*
X116848444Y-83401585D01*
X116782753Y-83603760D01*
X116774441Y-83656243D01*
X116749500Y-83813713D01*
X116749500Y-84026287D01*
X116782754Y-84236243D01*
X116826248Y-84370104D01*
X116848444Y-84438414D01*
X116944951Y-84627820D01*
X117069890Y-84799786D01*
X117220213Y-84950109D01*
X117392182Y-85075050D01*
X117400946Y-85079516D01*
X117451742Y-85127491D01*
X117468536Y-85195312D01*
X117445998Y-85261447D01*
X117400946Y-85300484D01*
X117392182Y-85304949D01*
X117220213Y-85429890D01*
X117069890Y-85580213D01*
X116944951Y-85752179D01*
X116848444Y-85941585D01*
X116782753Y-86143760D01*
X116749500Y-86353713D01*
X116749500Y-86566286D01*
X116782753Y-86776239D01*
X116848444Y-86978414D01*
X116944951Y-87167820D01*
X117069890Y-87339786D01*
X117183818Y-87453714D01*
X117217303Y-87515037D01*
X117212319Y-87584729D01*
X117170447Y-87640662D01*
X117139471Y-87657577D01*
X117007912Y-87706646D01*
X117007906Y-87706649D01*
X116892812Y-87792809D01*
X116892809Y-87792812D01*
X116806649Y-87907906D01*
X116806645Y-87907913D01*
X116756403Y-88042620D01*
X116756401Y-88042627D01*
X116750000Y-88102155D01*
X116750000Y-88750000D01*
X117666988Y-88750000D01*
X117634075Y-88807007D01*
X117600000Y-88934174D01*
X117600000Y-89065826D01*
X117634075Y-89192993D01*
X117666988Y-89250000D01*
X116750000Y-89250000D01*
X116750000Y-89897844D01*
X116756401Y-89957372D01*
X116756403Y-89957379D01*
X116806645Y-90092086D01*
X116806649Y-90092093D01*
X116892809Y-90207187D01*
X116892812Y-90207190D01*
X117007906Y-90293350D01*
X117007913Y-90293354D01*
X117142620Y-90343596D01*
X117142627Y-90343598D01*
X117202155Y-90349999D01*
X117202172Y-90350000D01*
X117850000Y-90350000D01*
X117850000Y-89433012D01*
X117907007Y-89465925D01*
X118034174Y-89500000D01*
X118165826Y-89500000D01*
X118292993Y-89465925D01*
X118350000Y-89433012D01*
X118350000Y-90350000D01*
X118997828Y-90350000D01*
X118997844Y-90349999D01*
X119057372Y-90343598D01*
X119057379Y-90343596D01*
X119192086Y-90293354D01*
X119192093Y-90293350D01*
X119307187Y-90207190D01*
X119307190Y-90207187D01*
X119393350Y-90092093D01*
X119393354Y-90092086D01*
X119443596Y-89957379D01*
X119443598Y-89957372D01*
X119449999Y-89897844D01*
X119450000Y-89897827D01*
X119450000Y-89250000D01*
X118533012Y-89250000D01*
X118565925Y-89192993D01*
X118600000Y-89065826D01*
X118600000Y-88934174D01*
X118565925Y-88807007D01*
X118533012Y-88750000D01*
X119450000Y-88750000D01*
X119450000Y-88102172D01*
X119449999Y-88102155D01*
X119443598Y-88042627D01*
X119443596Y-88042620D01*
X119393354Y-87907913D01*
X119393350Y-87907906D01*
X119307190Y-87792812D01*
X119307187Y-87792809D01*
X119192093Y-87706649D01*
X119192088Y-87706646D01*
X119060528Y-87657577D01*
X119004595Y-87615705D01*
X118980178Y-87550241D01*
X118995030Y-87481968D01*
X119016175Y-87453720D01*
X119130104Y-87339792D01*
X119255051Y-87167816D01*
X119351557Y-86978412D01*
X119417246Y-86776243D01*
X119450500Y-86566287D01*
X119450500Y-86353713D01*
X119417246Y-86143757D01*
X119351557Y-85941588D01*
X119255051Y-85752184D01*
X119255049Y-85752181D01*
X119255048Y-85752179D01*
X119130109Y-85580213D01*
X118979786Y-85429890D01*
X118807820Y-85304951D01*
X118807115Y-85304591D01*
X118799054Y-85300485D01*
X118748259Y-85252512D01*
X118731463Y-85184692D01*
X118753999Y-85118556D01*
X118799054Y-85079515D01*
X118807816Y-85075051D01*
X118829789Y-85059086D01*
X118979786Y-84950109D01*
X118979788Y-84950106D01*
X118979792Y-84950104D01*
X119130104Y-84799792D01*
X119130106Y-84799788D01*
X119130109Y-84799786D01*
X119255048Y-84627820D01*
X119255047Y-84627820D01*
X119255051Y-84627816D01*
X119351557Y-84438412D01*
X119417246Y-84236243D01*
X119450500Y-84026287D01*
X119450500Y-83813713D01*
X119417246Y-83603757D01*
X119351557Y-83401588D01*
X119255051Y-83212184D01*
X119247023Y-83201134D01*
X119130109Y-83040213D01*
X118979786Y-82889890D01*
X118807820Y-82764951D01*
X118807115Y-82764591D01*
X118799054Y-82760485D01*
X118748259Y-82712512D01*
X118731463Y-82644692D01*
X118753999Y-82578556D01*
X118799054Y-82539515D01*
X118807816Y-82535051D01*
X118841900Y-82510288D01*
X118979786Y-82410109D01*
X118979788Y-82410106D01*
X118979792Y-82410104D01*
X119130104Y-82259792D01*
X119130106Y-82259788D01*
X119130109Y-82259786D01*
X119255048Y-82087820D01*
X119255047Y-82087820D01*
X119255051Y-82087816D01*
X119351557Y-81898412D01*
X119417246Y-81696243D01*
X119450500Y-81486287D01*
X119450500Y-81273713D01*
X119417246Y-81063757D01*
X119394195Y-80992816D01*
X119392201Y-80922977D01*
X119428281Y-80863144D01*
X119490982Y-80832316D01*
X119512127Y-80830500D01*
X133683331Y-80830500D01*
X133683347Y-80830501D01*
X133690943Y-80830501D01*
X133849054Y-80830501D01*
X133849057Y-80830501D01*
X134001785Y-80789577D01*
X134051904Y-80760639D01*
X134138716Y-80710520D01*
X134250520Y-80598716D01*
X134250520Y-80598714D01*
X134260724Y-80588511D01*
X134260728Y-80588506D01*
X145467332Y-69381902D01*
X152099500Y-69381902D01*
X152099500Y-69618097D01*
X152136446Y-69851368D01*
X152209433Y-70075996D01*
X152316657Y-70286433D01*
X152455483Y-70477510D01*
X152622490Y-70644517D01*
X152813567Y-70783343D01*
X152847238Y-70800499D01*
X153024003Y-70890566D01*
X153024005Y-70890566D01*
X153024008Y-70890568D01*
X153144412Y-70929689D01*
X153248631Y-70963553D01*
X153481903Y-71000500D01*
X153481908Y-71000500D01*
X153718097Y-71000500D01*
X153951368Y-70963553D01*
X153973878Y-70956239D01*
X154175992Y-70890568D01*
X154386433Y-70783343D01*
X154577510Y-70644517D01*
X154744517Y-70477510D01*
X154883343Y-70286433D01*
X154990568Y-70075992D01*
X155063553Y-69851368D01*
X155077990Y-69760215D01*
X155100500Y-69618097D01*
X155100500Y-69381902D01*
X155063553Y-69148631D01*
X155029689Y-69044412D01*
X154990568Y-68924008D01*
X154990566Y-68924005D01*
X154990566Y-68924003D01*
X154883342Y-68713566D01*
X154850880Y-68668886D01*
X154744517Y-68522490D01*
X154577510Y-68355483D01*
X154386433Y-68216657D01*
X154175996Y-68109433D01*
X153951368Y-68036446D01*
X153718097Y-67999500D01*
X153718092Y-67999500D01*
X153481908Y-67999500D01*
X153481903Y-67999500D01*
X153248631Y-68036446D01*
X153024003Y-68109433D01*
X152813566Y-68216657D01*
X152704550Y-68295862D01*
X152622490Y-68355483D01*
X152622488Y-68355485D01*
X152622487Y-68355485D01*
X152455485Y-68522487D01*
X152455485Y-68522488D01*
X152455483Y-68522490D01*
X152395862Y-68604550D01*
X152316657Y-68713566D01*
X152209433Y-68924003D01*
X152136446Y-69148631D01*
X152099500Y-69381902D01*
X145467332Y-69381902D01*
X147647099Y-67202135D01*
X163449500Y-67202135D01*
X163449500Y-68997870D01*
X163449501Y-68997876D01*
X163455908Y-69057483D01*
X163506202Y-69192328D01*
X163506206Y-69192335D01*
X163592452Y-69307544D01*
X163592455Y-69307547D01*
X163707664Y-69393793D01*
X163707671Y-69393797D01*
X163839082Y-69442810D01*
X163895016Y-69484681D01*
X163919433Y-69550145D01*
X163904582Y-69618418D01*
X163883431Y-69646673D01*
X163769889Y-69760215D01*
X163644951Y-69932179D01*
X163548444Y-70121585D01*
X163482753Y-70323760D01*
X163449500Y-70533713D01*
X163449500Y-70746286D01*
X163482753Y-70956239D01*
X163548444Y-71158414D01*
X163644951Y-71347820D01*
X163769890Y-71519786D01*
X163920213Y-71670109D01*
X164092182Y-71795050D01*
X164100946Y-71799516D01*
X164151742Y-71847491D01*
X164168536Y-71915312D01*
X164145998Y-71981447D01*
X164100946Y-72020484D01*
X164092182Y-72024949D01*
X163920213Y-72149890D01*
X163769890Y-72300213D01*
X163644951Y-72472179D01*
X163548444Y-72661585D01*
X163482753Y-72863760D01*
X163449500Y-73073713D01*
X163449500Y-73286286D01*
X163470861Y-73421158D01*
X163482754Y-73496243D01*
X163543682Y-73683760D01*
X163548444Y-73698414D01*
X163644951Y-73887820D01*
X163769890Y-74059786D01*
X163920213Y-74210109D01*
X164092182Y-74335050D01*
X164100946Y-74339516D01*
X164151742Y-74387491D01*
X164168536Y-74455312D01*
X164145998Y-74521447D01*
X164100946Y-74560484D01*
X164092182Y-74564949D01*
X163920213Y-74689890D01*
X163769890Y-74840213D01*
X163644951Y-75012179D01*
X163548444Y-75201585D01*
X163482753Y-75403760D01*
X163452911Y-75592179D01*
X163449500Y-75613713D01*
X163449500Y-75826287D01*
X163482754Y-76036243D01*
X163533919Y-76193713D01*
X163548444Y-76238414D01*
X163644951Y-76427820D01*
X163769890Y-76599786D01*
X163920213Y-76750109D01*
X164092182Y-76875050D01*
X164100946Y-76879516D01*
X164151742Y-76927491D01*
X164168536Y-76995312D01*
X164145998Y-77061447D01*
X164100946Y-77100484D01*
X164092182Y-77104949D01*
X163920213Y-77229890D01*
X163769890Y-77380213D01*
X163644951Y-77552179D01*
X163548444Y-77741585D01*
X163482753Y-77943760D01*
X163449500Y-78153713D01*
X163449500Y-78366286D01*
X163473594Y-78518414D01*
X163482754Y-78576243D01*
X163533919Y-78733713D01*
X163548444Y-78778414D01*
X163644951Y-78967820D01*
X163769890Y-79139786D01*
X163920213Y-79290109D01*
X164092179Y-79415048D01*
X164092181Y-79415049D01*
X164092184Y-79415051D01*
X164101493Y-79419794D01*
X164152290Y-79467766D01*
X164169087Y-79535587D01*
X164146552Y-79601722D01*
X164101505Y-79640760D01*
X164092446Y-79645376D01*
X164092440Y-79645380D01*
X164038282Y-79684727D01*
X164038282Y-79684728D01*
X164670591Y-80317037D01*
X164607007Y-80334075D01*
X164492993Y-80399901D01*
X164399901Y-80492993D01*
X164334075Y-80607007D01*
X164317037Y-80670591D01*
X163684728Y-80038282D01*
X163684727Y-80038282D01*
X163645380Y-80092439D01*
X163548904Y-80281782D01*
X163483242Y-80483869D01*
X163483242Y-80483872D01*
X163450000Y-80693753D01*
X163450000Y-80906246D01*
X163483242Y-81116127D01*
X163483242Y-81116130D01*
X163548904Y-81318217D01*
X163645375Y-81507550D01*
X163684728Y-81561716D01*
X164317037Y-80929408D01*
X164334075Y-80992993D01*
X164399901Y-81107007D01*
X164492993Y-81200099D01*
X164607007Y-81265925D01*
X164670590Y-81282962D01*
X164038282Y-81915269D01*
X164038282Y-81915270D01*
X164092452Y-81954626D01*
X164092451Y-81954626D01*
X164101495Y-81959234D01*
X164152292Y-82007208D01*
X164169087Y-82075029D01*
X164146550Y-82141164D01*
X164101499Y-82180202D01*
X164092182Y-82184949D01*
X163920213Y-82309890D01*
X163769890Y-82460213D01*
X163644951Y-82632179D01*
X163548444Y-82821585D01*
X163482753Y-83023760D01*
X163449500Y-83233713D01*
X163449500Y-83446286D01*
X163472438Y-83591114D01*
X163482754Y-83656243D01*
X163543899Y-83844428D01*
X163548444Y-83858414D01*
X163644951Y-84047820D01*
X163769890Y-84219786D01*
X163920213Y-84370109D01*
X164092179Y-84495048D01*
X164092181Y-84495049D01*
X164092184Y-84495051D01*
X164281588Y-84591557D01*
X164483757Y-84657246D01*
X164693713Y-84690500D01*
X164693714Y-84690500D01*
X164906286Y-84690500D01*
X164906287Y-84690500D01*
X165116243Y-84657246D01*
X165318412Y-84591557D01*
X165507816Y-84495051D01*
X165585771Y-84438414D01*
X165679786Y-84370109D01*
X165679788Y-84370106D01*
X165679792Y-84370104D01*
X165830104Y-84219792D01*
X165830106Y-84219788D01*
X165830109Y-84219786D01*
X165955048Y-84047820D01*
X165955047Y-84047820D01*
X165955051Y-84047816D01*
X166051557Y-83858412D01*
X166117246Y-83656243D01*
X166150500Y-83446287D01*
X166150500Y-83233713D01*
X166124391Y-83068872D01*
X179199500Y-83068872D01*
X179199500Y-83331127D01*
X179214662Y-83446286D01*
X179233730Y-83591116D01*
X179301602Y-83844418D01*
X179301605Y-83844428D01*
X179401953Y-84086690D01*
X179401958Y-84086700D01*
X179533075Y-84313803D01*
X179692718Y-84521851D01*
X179692726Y-84521860D01*
X179878140Y-84707274D01*
X179878148Y-84707281D01*
X180086196Y-84866924D01*
X180313299Y-84998041D01*
X180313309Y-84998046D01*
X180555571Y-85098394D01*
X180555581Y-85098398D01*
X180808884Y-85166270D01*
X181068880Y-85200500D01*
X181068887Y-85200500D01*
X181331113Y-85200500D01*
X181331120Y-85200500D01*
X181591116Y-85166270D01*
X181844419Y-85098398D01*
X182086697Y-84998043D01*
X182313803Y-84866924D01*
X182521851Y-84707282D01*
X182521855Y-84707277D01*
X182521860Y-84707274D01*
X182707274Y-84521860D01*
X182707277Y-84521855D01*
X182707282Y-84521851D01*
X182866924Y-84313803D01*
X182998043Y-84086697D01*
X183098398Y-83844419D01*
X183166270Y-83591116D01*
X183200500Y-83331120D01*
X183200500Y-83068880D01*
X183166270Y-82808884D01*
X183098398Y-82555581D01*
X183079639Y-82510292D01*
X182998046Y-82313309D01*
X182998041Y-82313299D01*
X182866924Y-82086196D01*
X182707281Y-81878148D01*
X182707274Y-81878140D01*
X182521860Y-81692726D01*
X182521851Y-81692718D01*
X182313803Y-81533075D01*
X182086700Y-81401958D01*
X182086690Y-81401953D01*
X181844428Y-81301605D01*
X181844421Y-81301603D01*
X181844419Y-81301602D01*
X181591116Y-81233730D01*
X181533339Y-81226123D01*
X181331127Y-81199500D01*
X181331120Y-81199500D01*
X181068880Y-81199500D01*
X181068872Y-81199500D01*
X180837772Y-81229926D01*
X180808884Y-81233730D01*
X180674134Y-81269836D01*
X180555581Y-81301602D01*
X180555571Y-81301605D01*
X180313309Y-81401953D01*
X180313299Y-81401958D01*
X180086196Y-81533075D01*
X179878148Y-81692718D01*
X179692718Y-81878148D01*
X179533075Y-82086196D01*
X179401958Y-82313299D01*
X179401953Y-82313309D01*
X179301605Y-82555571D01*
X179301602Y-82555581D01*
X179233730Y-82808884D01*
X179229926Y-82837772D01*
X179199500Y-83068872D01*
X166124391Y-83068872D01*
X166124044Y-83066680D01*
X166117247Y-83023761D01*
X166117246Y-83023760D01*
X166117246Y-83023757D01*
X166051557Y-82821588D01*
X165955051Y-82632184D01*
X165955049Y-82632181D01*
X165955048Y-82632179D01*
X165830109Y-82460213D01*
X165679786Y-82309890D01*
X165507817Y-82184949D01*
X165498504Y-82180204D01*
X165447707Y-82132230D01*
X165430912Y-82064409D01*
X165453449Y-81998274D01*
X165498507Y-81959232D01*
X165507555Y-81954622D01*
X165561716Y-81915270D01*
X165561717Y-81915270D01*
X164929408Y-81282962D01*
X164992993Y-81265925D01*
X165107007Y-81200099D01*
X165200099Y-81107007D01*
X165265925Y-80992993D01*
X165282962Y-80929408D01*
X165915270Y-81561717D01*
X165915270Y-81561716D01*
X165954622Y-81507554D01*
X166051095Y-81318217D01*
X166116757Y-81116130D01*
X166116757Y-81116127D01*
X166150000Y-80906246D01*
X166150000Y-80693753D01*
X166116757Y-80483872D01*
X166116757Y-80483869D01*
X166051095Y-80281782D01*
X165954624Y-80092449D01*
X165915270Y-80038282D01*
X165915269Y-80038282D01*
X165282962Y-80670590D01*
X165265925Y-80607007D01*
X165200099Y-80492993D01*
X165107007Y-80399901D01*
X164992993Y-80334075D01*
X164929409Y-80317037D01*
X165561716Y-79684728D01*
X165507547Y-79645373D01*
X165507547Y-79645372D01*
X165498500Y-79640763D01*
X165447706Y-79592788D01*
X165430912Y-79524966D01*
X165453451Y-79458832D01*
X165498508Y-79419793D01*
X165507816Y-79415051D01*
X165587007Y-79357515D01*
X165679786Y-79290109D01*
X165679788Y-79290106D01*
X165679792Y-79290104D01*
X165830104Y-79139792D01*
X165830106Y-79139788D01*
X165830109Y-79139786D01*
X165955048Y-78967820D01*
X165955047Y-78967820D01*
X165955051Y-78967816D01*
X166051557Y-78778412D01*
X166117246Y-78576243D01*
X166150500Y-78366287D01*
X166150500Y-78153713D01*
X166117246Y-77943757D01*
X166100986Y-77893713D01*
X180449500Y-77893713D01*
X180449500Y-78106286D01*
X180477139Y-78280795D01*
X180482754Y-78316243D01*
X180499014Y-78366287D01*
X180548444Y-78518414D01*
X180644951Y-78707820D01*
X180769890Y-78879786D01*
X180920213Y-79030109D01*
X181092179Y-79155048D01*
X181092181Y-79155049D01*
X181092184Y-79155051D01*
X181281588Y-79251557D01*
X181483757Y-79317246D01*
X181693713Y-79350500D01*
X181693714Y-79350500D01*
X181906286Y-79350500D01*
X181906287Y-79350500D01*
X182116243Y-79317246D01*
X182318412Y-79251557D01*
X182507816Y-79155051D01*
X182612831Y-79078754D01*
X182679786Y-79030109D01*
X182679788Y-79030106D01*
X182679792Y-79030104D01*
X182830104Y-78879792D01*
X182830106Y-78879788D01*
X182830109Y-78879786D01*
X182955048Y-78707820D01*
X182955047Y-78707820D01*
X182955051Y-78707816D01*
X183051557Y-78518412D01*
X183117246Y-78316243D01*
X183150500Y-78106287D01*
X183150500Y-77893713D01*
X183117246Y-77683757D01*
X183051557Y-77481588D01*
X182955051Y-77292184D01*
X182955049Y-77292181D01*
X182955048Y-77292179D01*
X182830109Y-77120213D01*
X182679786Y-76969890D01*
X182507820Y-76844951D01*
X182318414Y-76748444D01*
X182318413Y-76748443D01*
X182318412Y-76748443D01*
X182116243Y-76682754D01*
X182116241Y-76682753D01*
X182116240Y-76682753D01*
X181954957Y-76657208D01*
X181906287Y-76649500D01*
X181693713Y-76649500D01*
X181645042Y-76657208D01*
X181483760Y-76682753D01*
X181281585Y-76748444D01*
X181092179Y-76844951D01*
X180920213Y-76969890D01*
X180769890Y-77120213D01*
X180644951Y-77292179D01*
X180548444Y-77481585D01*
X180482753Y-77683760D01*
X180449500Y-77893713D01*
X166100986Y-77893713D01*
X166051557Y-77741588D01*
X165955051Y-77552184D01*
X165955049Y-77552181D01*
X165955048Y-77552179D01*
X165830109Y-77380213D01*
X165679786Y-77229890D01*
X165507820Y-77104951D01*
X165503243Y-77102619D01*
X165499054Y-77100485D01*
X165448259Y-77052512D01*
X165431463Y-76984692D01*
X165453999Y-76918556D01*
X165499054Y-76879515D01*
X165507816Y-76875051D01*
X165529789Y-76859086D01*
X165679786Y-76750109D01*
X165679788Y-76750106D01*
X165679792Y-76750104D01*
X165830104Y-76599792D01*
X165830106Y-76599788D01*
X165830109Y-76599786D01*
X165955048Y-76427820D01*
X165955047Y-76427820D01*
X165955051Y-76427816D01*
X166051557Y-76238412D01*
X166117246Y-76036243D01*
X166150500Y-75826287D01*
X166150500Y-75613713D01*
X166117246Y-75403757D01*
X166051557Y-75201588D01*
X165955051Y-75012184D01*
X165955049Y-75012181D01*
X165955048Y-75012179D01*
X165830109Y-74840213D01*
X165679786Y-74689890D01*
X165507820Y-74564951D01*
X165507115Y-74564591D01*
X165499054Y-74560485D01*
X165448259Y-74512512D01*
X165431463Y-74444692D01*
X165453999Y-74378556D01*
X165499054Y-74339515D01*
X165507816Y-74335051D01*
X165585771Y-74278414D01*
X165679786Y-74210109D01*
X165679788Y-74210106D01*
X165679792Y-74210104D01*
X165830104Y-74059792D01*
X165830106Y-74059788D01*
X165830109Y-74059786D01*
X165917678Y-73939255D01*
X165950767Y-73893713D01*
X180449500Y-73893713D01*
X180449500Y-74106287D01*
X180482754Y-74316243D01*
X180532003Y-74467816D01*
X180548444Y-74518414D01*
X180644951Y-74707820D01*
X180769890Y-74879786D01*
X180920213Y-75030109D01*
X181092179Y-75155048D01*
X181092181Y-75155049D01*
X181092184Y-75155051D01*
X181281588Y-75251557D01*
X181483757Y-75317246D01*
X181693713Y-75350500D01*
X181693714Y-75350500D01*
X181906286Y-75350500D01*
X181906287Y-75350500D01*
X182116243Y-75317246D01*
X182318412Y-75251557D01*
X182507816Y-75155051D01*
X182581596Y-75101447D01*
X182679786Y-75030109D01*
X182679788Y-75030106D01*
X182679792Y-75030104D01*
X182830104Y-74879792D01*
X182830106Y-74879788D01*
X182830109Y-74879786D01*
X182955048Y-74707820D01*
X182955047Y-74707820D01*
X182955051Y-74707816D01*
X183051557Y-74518412D01*
X183117246Y-74316243D01*
X183150500Y-74106287D01*
X183150500Y-73893713D01*
X183117246Y-73683757D01*
X183051557Y-73481588D01*
X182955051Y-73292184D01*
X182955049Y-73292181D01*
X182955048Y-73292179D01*
X182830109Y-73120213D01*
X182679786Y-72969890D01*
X182507820Y-72844951D01*
X182318414Y-72748444D01*
X182318413Y-72748443D01*
X182318412Y-72748443D01*
X182116243Y-72682754D01*
X182116241Y-72682753D01*
X182116240Y-72682753D01*
X181954957Y-72657208D01*
X181906287Y-72649500D01*
X181693713Y-72649500D01*
X181645042Y-72657208D01*
X181483760Y-72682753D01*
X181281585Y-72748444D01*
X181092179Y-72844951D01*
X180920213Y-72969890D01*
X180769890Y-73120213D01*
X180644951Y-73292179D01*
X180548444Y-73481585D01*
X180482753Y-73683760D01*
X180459188Y-73832546D01*
X180449500Y-73893713D01*
X165950767Y-73893713D01*
X165955051Y-73887816D01*
X166051557Y-73698412D01*
X166117246Y-73496243D01*
X166150500Y-73286287D01*
X166150500Y-73073713D01*
X166117246Y-72863757D01*
X166051557Y-72661588D01*
X165955051Y-72472184D01*
X165955049Y-72472181D01*
X165955048Y-72472179D01*
X165830109Y-72300213D01*
X165679786Y-72149890D01*
X165507820Y-72024951D01*
X165507115Y-72024591D01*
X165499054Y-72020485D01*
X165448259Y-71972512D01*
X165431463Y-71904692D01*
X165453999Y-71838556D01*
X165499054Y-71799515D01*
X165507816Y-71795051D01*
X165529789Y-71779086D01*
X165679786Y-71670109D01*
X165679788Y-71670106D01*
X165679792Y-71670104D01*
X165830104Y-71519792D01*
X165830106Y-71519788D01*
X165830109Y-71519786D01*
X165955048Y-71347820D01*
X165955047Y-71347820D01*
X165955051Y-71347816D01*
X166051557Y-71158412D01*
X166117246Y-70956243D01*
X166150500Y-70746287D01*
X166150500Y-70533713D01*
X166117246Y-70323757D01*
X166051557Y-70121588D01*
X165955051Y-69932184D01*
X165955049Y-69932181D01*
X165955048Y-69932179D01*
X165830109Y-69760213D01*
X165716569Y-69646673D01*
X165683084Y-69585350D01*
X165688068Y-69515658D01*
X165729940Y-69459725D01*
X165760915Y-69442810D01*
X165892331Y-69393796D01*
X166007546Y-69307546D01*
X166093796Y-69192331D01*
X166144091Y-69057483D01*
X166150500Y-68997873D01*
X166150500Y-68668872D01*
X179199500Y-68668872D01*
X179199500Y-68931127D01*
X179216136Y-69057482D01*
X179233730Y-69191116D01*
X179288037Y-69393793D01*
X179301602Y-69444418D01*
X179301605Y-69444428D01*
X179401953Y-69686690D01*
X179401958Y-69686700D01*
X179533075Y-69913803D01*
X179692718Y-70121851D01*
X179692726Y-70121860D01*
X179878140Y-70307274D01*
X179878148Y-70307281D01*
X179878149Y-70307282D01*
X179926554Y-70344424D01*
X180086196Y-70466924D01*
X180313299Y-70598041D01*
X180313309Y-70598046D01*
X180555571Y-70698394D01*
X180555581Y-70698398D01*
X180808884Y-70766270D01*
X181068880Y-70800500D01*
X181068887Y-70800500D01*
X181331113Y-70800500D01*
X181331120Y-70800500D01*
X181591116Y-70766270D01*
X181844419Y-70698398D01*
X182086697Y-70598043D01*
X182313803Y-70466924D01*
X182521851Y-70307282D01*
X182521855Y-70307277D01*
X182521860Y-70307274D01*
X182707274Y-70121860D01*
X182707277Y-70121855D01*
X182707282Y-70121851D01*
X182866924Y-69913803D01*
X182998043Y-69686697D01*
X183098398Y-69444419D01*
X183166270Y-69191116D01*
X183200500Y-68931120D01*
X183200500Y-68668880D01*
X183166270Y-68408884D01*
X183098398Y-68155581D01*
X183079283Y-68109433D01*
X182998046Y-67913309D01*
X182998041Y-67913299D01*
X182866924Y-67686196D01*
X182707281Y-67478148D01*
X182707274Y-67478140D01*
X182521860Y-67292726D01*
X182521851Y-67292718D01*
X182313803Y-67133075D01*
X182086700Y-67001958D01*
X182086690Y-67001953D01*
X181844428Y-66901605D01*
X181844421Y-66901603D01*
X181844419Y-66901602D01*
X181591116Y-66833730D01*
X181533339Y-66826123D01*
X181331127Y-66799500D01*
X181331120Y-66799500D01*
X181068880Y-66799500D01*
X181068872Y-66799500D01*
X180837772Y-66829926D01*
X180808884Y-66833730D01*
X180589722Y-66892454D01*
X180555581Y-66901602D01*
X180555571Y-66901605D01*
X180313309Y-67001953D01*
X180313299Y-67001958D01*
X180086196Y-67133075D01*
X179878148Y-67292718D01*
X179692718Y-67478148D01*
X179533075Y-67686196D01*
X179401958Y-67913299D01*
X179401953Y-67913309D01*
X179301605Y-68155571D01*
X179301602Y-68155581D01*
X179233730Y-68408885D01*
X179199500Y-68668872D01*
X166150500Y-68668872D01*
X166150499Y-68036447D01*
X166150499Y-67202129D01*
X166150498Y-67202123D01*
X166150497Y-67202116D01*
X166144091Y-67142517D01*
X166140569Y-67133075D01*
X166093797Y-67007671D01*
X166093793Y-67007664D01*
X166007547Y-66892455D01*
X166007544Y-66892452D01*
X165892335Y-66806206D01*
X165892328Y-66806202D01*
X165757482Y-66755908D01*
X165757483Y-66755908D01*
X165697883Y-66749501D01*
X165697881Y-66749500D01*
X165697873Y-66749500D01*
X165697864Y-66749500D01*
X163902129Y-66749500D01*
X163902123Y-66749501D01*
X163842516Y-66755908D01*
X163707671Y-66806202D01*
X163707664Y-66806206D01*
X163592455Y-66892452D01*
X163592452Y-66892455D01*
X163506206Y-67007664D01*
X163506202Y-67007671D01*
X163455908Y-67142517D01*
X163449501Y-67202116D01*
X163449501Y-67202123D01*
X163449500Y-67202135D01*
X147647099Y-67202135D01*
X150868713Y-63980521D01*
X150868716Y-63980520D01*
X150980520Y-63868716D01*
X151030639Y-63781904D01*
X151059577Y-63731785D01*
X151100501Y-63579057D01*
X151100501Y-63420943D01*
X151100501Y-63413348D01*
X151100500Y-63413330D01*
X151100500Y-60413389D01*
X177624500Y-60413389D01*
X177624500Y-60586611D01*
X177651598Y-60757701D01*
X177705127Y-60922445D01*
X177783768Y-61076788D01*
X177885586Y-61216928D01*
X177885588Y-61216930D01*
X177993127Y-61324469D01*
X178026612Y-61385792D01*
X178021628Y-61455484D01*
X177979756Y-61511417D01*
X177970544Y-61517688D01*
X177906344Y-61557287D01*
X177782289Y-61681342D01*
X177690187Y-61830663D01*
X177690185Y-61830668D01*
X177662794Y-61913330D01*
X177635001Y-61997203D01*
X177635001Y-61997204D01*
X177635000Y-61997204D01*
X177624500Y-62099983D01*
X177624500Y-62900001D01*
X177624501Y-62900019D01*
X177635000Y-63002796D01*
X177635001Y-63002799D01*
X177640529Y-63019480D01*
X177690186Y-63169334D01*
X177782288Y-63318656D01*
X177906344Y-63442712D01*
X178055666Y-63534814D01*
X178222203Y-63589999D01*
X178324991Y-63600500D01*
X179675008Y-63600499D01*
X179777797Y-63589999D01*
X179944334Y-63534814D01*
X180093656Y-63442712D01*
X180217712Y-63318656D01*
X180309814Y-63169334D01*
X180364999Y-63002797D01*
X180375500Y-62900009D01*
X180375499Y-62099992D01*
X180373360Y-62079057D01*
X180364999Y-61997203D01*
X180364998Y-61997200D01*
X180339729Y-61920943D01*
X180309814Y-61830666D01*
X180217712Y-61681344D01*
X180093656Y-61557288D01*
X180093652Y-61557285D01*
X180029456Y-61517688D01*
X179982731Y-61465740D01*
X179971510Y-61396777D01*
X179999353Y-61332695D01*
X180006850Y-61324491D01*
X180114414Y-61216928D01*
X180216232Y-61076788D01*
X180294873Y-60922445D01*
X180348402Y-60757701D01*
X180375500Y-60586611D01*
X180375500Y-60413389D01*
X180348402Y-60242299D01*
X180294873Y-60077555D01*
X180216232Y-59923212D01*
X180114414Y-59783072D01*
X179991928Y-59660586D01*
X179851788Y-59558768D01*
X179697445Y-59480127D01*
X179532701Y-59426598D01*
X179532699Y-59426597D01*
X179532698Y-59426597D01*
X179401271Y-59405781D01*
X179361611Y-59399500D01*
X178638389Y-59399500D01*
X178598728Y-59405781D01*
X178467302Y-59426597D01*
X178302552Y-59480128D01*
X178148211Y-59558768D01*
X178075040Y-59611931D01*
X178008072Y-59660586D01*
X178008070Y-59660588D01*
X178008069Y-59660588D01*
X177885588Y-59783069D01*
X177885588Y-59783070D01*
X177885586Y-59783072D01*
X177872600Y-59800946D01*
X177783768Y-59923211D01*
X177754024Y-59981588D01*
X177705127Y-60077555D01*
X177682743Y-60146446D01*
X177651597Y-60242302D01*
X177641349Y-60307007D01*
X177624500Y-60413389D01*
X151100500Y-60413389D01*
X151100500Y-56079765D01*
X151120185Y-56012726D01*
X151121398Y-56010874D01*
X151209390Y-55879185D01*
X151209390Y-55879184D01*
X151209394Y-55879179D01*
X151269737Y-55733497D01*
X151300500Y-55578842D01*
X151300500Y-55421158D01*
X151300500Y-55421155D01*
X151300499Y-55421153D01*
X151269738Y-55266510D01*
X151269737Y-55266503D01*
X151269735Y-55266498D01*
X151209397Y-55120827D01*
X151209390Y-55120814D01*
X151121789Y-54989711D01*
X151121786Y-54989707D01*
X151010292Y-54878213D01*
X151010288Y-54878210D01*
X150879185Y-54790609D01*
X150879172Y-54790602D01*
X150733501Y-54730264D01*
X150733489Y-54730261D01*
X150578845Y-54699500D01*
X150578842Y-54699500D01*
X150421158Y-54699500D01*
X150421155Y-54699500D01*
X150266510Y-54730261D01*
X150266498Y-54730264D01*
X150120827Y-54790602D01*
X150120814Y-54790609D01*
X149989711Y-54878210D01*
X149989707Y-54878213D01*
X149878213Y-54989707D01*
X149878210Y-54989711D01*
X149790609Y-55120814D01*
X149790602Y-55120827D01*
X149730264Y-55266498D01*
X149730261Y-55266510D01*
X149699500Y-55421153D01*
X149699500Y-55578846D01*
X149730261Y-55733489D01*
X149730264Y-55733501D01*
X149790602Y-55879172D01*
X149790609Y-55879185D01*
X149878602Y-56010874D01*
X149899480Y-56077551D01*
X149899500Y-56079765D01*
X149899500Y-63199903D01*
X149879815Y-63266942D01*
X149863181Y-63287584D01*
X133557584Y-79593181D01*
X133496261Y-79626666D01*
X133469903Y-79629500D01*
X119415781Y-79629500D01*
X119348742Y-79609815D01*
X119302987Y-79557011D01*
X119293043Y-79487853D01*
X119305296Y-79449205D01*
X119322699Y-79415049D01*
X119351557Y-79358412D01*
X119417246Y-79156243D01*
X119450500Y-78946287D01*
X119450500Y-78733713D01*
X119417246Y-78523757D01*
X119351557Y-78321588D01*
X119330772Y-78280795D01*
X119317876Y-78212126D01*
X119344152Y-78147385D01*
X119401259Y-78107128D01*
X119441257Y-78100500D01*
X127413331Y-78100500D01*
X127413347Y-78100501D01*
X127420943Y-78100501D01*
X127579054Y-78100501D01*
X127579057Y-78100501D01*
X127731785Y-78059577D01*
X127781904Y-78030639D01*
X127868716Y-77980520D01*
X127980520Y-77868716D01*
X127980520Y-77868714D01*
X127990728Y-77858507D01*
X127990729Y-77858504D01*
X139980520Y-65868716D01*
X140059577Y-65731784D01*
X140100501Y-65579057D01*
X140100501Y-65420942D01*
X140100501Y-65413347D01*
X140100500Y-65413329D01*
X140100500Y-55079765D01*
X140120185Y-55012726D01*
X140121398Y-55010874D01*
X140209390Y-54879185D01*
X140209390Y-54879184D01*
X140209394Y-54879179D01*
X140269737Y-54733497D01*
X140300500Y-54578842D01*
X140300500Y-54421158D01*
X140300500Y-54421155D01*
X140300499Y-54421153D01*
X140269738Y-54266510D01*
X140269737Y-54266503D01*
X140269735Y-54266498D01*
X140209397Y-54120827D01*
X140209390Y-54120814D01*
X140121789Y-53989711D01*
X140121786Y-53989707D01*
X140010292Y-53878213D01*
X140010288Y-53878210D01*
X139879185Y-53790609D01*
X139879172Y-53790602D01*
X139733501Y-53730264D01*
X139733489Y-53730261D01*
X139578845Y-53699500D01*
X139578842Y-53699500D01*
X139421158Y-53699500D01*
X139421155Y-53699500D01*
X139266510Y-53730261D01*
X139266498Y-53730264D01*
X139120827Y-53790602D01*
X139120814Y-53790609D01*
X138989711Y-53878210D01*
X138989707Y-53878213D01*
X138878213Y-53989707D01*
X138878210Y-53989711D01*
X138790609Y-54120814D01*
X138790602Y-54120827D01*
X138730264Y-54266498D01*
X138730261Y-54266510D01*
X138699500Y-54421153D01*
X138699500Y-54578846D01*
X138730261Y-54733489D01*
X138730264Y-54733501D01*
X138790602Y-54879172D01*
X138790609Y-54879185D01*
X138878602Y-55010874D01*
X138899480Y-55077551D01*
X138899500Y-55079765D01*
X138899500Y-65199902D01*
X138879815Y-65266941D01*
X138863181Y-65287583D01*
X127287584Y-76863181D01*
X127226261Y-76896666D01*
X127199903Y-76899500D01*
X119495881Y-76899500D01*
X119428842Y-76879815D01*
X119383087Y-76827011D01*
X119373143Y-76757853D01*
X119377950Y-76737182D01*
X119417246Y-76616243D01*
X119450500Y-76406287D01*
X119450500Y-76193713D01*
X119417246Y-75983757D01*
X119351557Y-75781588D01*
X119255051Y-75592184D01*
X119255049Y-75592181D01*
X119255048Y-75592179D01*
X119130109Y-75420213D01*
X118979786Y-75269890D01*
X118807820Y-75144951D01*
X118807115Y-75144591D01*
X118799054Y-75140485D01*
X118748259Y-75092512D01*
X118731463Y-75024692D01*
X118753999Y-74958556D01*
X118799054Y-74919515D01*
X118807816Y-74915051D01*
X118856346Y-74879792D01*
X118979786Y-74790109D01*
X118979788Y-74790106D01*
X118979792Y-74790104D01*
X119130104Y-74639792D01*
X119130106Y-74639788D01*
X119130109Y-74639786D01*
X119255048Y-74467820D01*
X119255047Y-74467820D01*
X119255051Y-74467816D01*
X119351557Y-74278412D01*
X119417246Y-74076243D01*
X119450500Y-73866287D01*
X119450500Y-73653713D01*
X119417246Y-73443757D01*
X119351557Y-73241588D01*
X119255051Y-73052184D01*
X119255049Y-73052181D01*
X119255048Y-73052179D01*
X119130109Y-72880213D01*
X118979786Y-72729890D01*
X118807820Y-72604951D01*
X118618414Y-72508444D01*
X118618413Y-72508443D01*
X118618412Y-72508443D01*
X118416243Y-72442754D01*
X118416241Y-72442753D01*
X118416240Y-72442753D01*
X118254957Y-72417208D01*
X118206287Y-72409500D01*
X117993713Y-72409500D01*
X117945042Y-72417208D01*
X117783760Y-72442753D01*
X117581585Y-72508444D01*
X117392179Y-72604951D01*
X117220213Y-72729890D01*
X117069890Y-72880213D01*
X116944951Y-73052179D01*
X116848444Y-73241585D01*
X116782753Y-73443760D01*
X116749500Y-73653713D01*
X116749500Y-73866286D01*
X116775679Y-74031578D01*
X116782754Y-74076243D01*
X116826248Y-74210104D01*
X116848444Y-74278414D01*
X116944951Y-74467820D01*
X117069890Y-74639786D01*
X117220213Y-74790109D01*
X117392182Y-74915050D01*
X117400946Y-74919516D01*
X117451742Y-74967491D01*
X117468536Y-75035312D01*
X117445998Y-75101447D01*
X117400946Y-75140484D01*
X117392182Y-75144949D01*
X117220213Y-75269890D01*
X117069890Y-75420213D01*
X116944951Y-75592179D01*
X116848444Y-75781585D01*
X116782753Y-75983760D01*
X116774441Y-76036243D01*
X116749500Y-76193713D01*
X116749500Y-76406287D01*
X116782754Y-76616243D01*
X116826248Y-76750104D01*
X116848444Y-76818414D01*
X116944949Y-77007817D01*
X116966017Y-77036813D01*
X116989498Y-77102619D01*
X116973673Y-77170673D01*
X116953381Y-77197381D01*
X114485339Y-79665425D01*
X114424016Y-79698910D01*
X114421850Y-79699361D01*
X114266508Y-79730261D01*
X114266498Y-79730264D01*
X114120827Y-79790602D01*
X114120814Y-79790609D01*
X113989711Y-79878210D01*
X113989707Y-79878213D01*
X113878213Y-79989707D01*
X113878210Y-79989711D01*
X113790609Y-80120814D01*
X113790602Y-80120827D01*
X113730264Y-80266498D01*
X113730261Y-80266510D01*
X113699500Y-80421153D01*
X97100500Y-80421153D01*
X97100500Y-74079765D01*
X97120185Y-74012726D01*
X97121398Y-74010874D01*
X97209390Y-73879185D01*
X97209390Y-73879184D01*
X97209394Y-73879179D01*
X97269737Y-73733497D01*
X97300500Y-73578842D01*
X97300500Y-73421158D01*
X97300500Y-73421155D01*
X97300499Y-73421153D01*
X97269738Y-73266510D01*
X97269737Y-73266503D01*
X97256062Y-73233489D01*
X97209397Y-73120827D01*
X97209390Y-73120814D01*
X97121789Y-72989711D01*
X97121786Y-72989707D01*
X97010292Y-72878213D01*
X97010288Y-72878210D01*
X96879185Y-72790609D01*
X96879172Y-72790602D01*
X96733501Y-72730264D01*
X96733489Y-72730261D01*
X96578845Y-72699500D01*
X96578842Y-72699500D01*
X96421158Y-72699500D01*
X96421155Y-72699500D01*
X96266510Y-72730261D01*
X96266498Y-72730264D01*
X96120827Y-72790602D01*
X96120814Y-72790609D01*
X95989711Y-72878210D01*
X95989707Y-72878213D01*
X95878213Y-72989707D01*
X95878210Y-72989711D01*
X95790609Y-73120814D01*
X95790602Y-73120827D01*
X95730264Y-73266498D01*
X95730261Y-73266510D01*
X95699500Y-73421153D01*
X95699500Y-73578846D01*
X95730261Y-73733489D01*
X95730264Y-73733501D01*
X95790602Y-73879172D01*
X95790609Y-73879185D01*
X95878602Y-74010874D01*
X95899480Y-74077551D01*
X95899500Y-74079765D01*
X95899500Y-97413330D01*
X95899499Y-97413348D01*
X95899499Y-97579054D01*
X95899498Y-97579054D01*
X95899499Y-97579057D01*
X95940423Y-97731785D01*
X95960468Y-97766503D01*
X95999809Y-97834645D01*
X96019479Y-97868715D01*
X96131284Y-97980520D01*
X96131285Y-97980522D01*
X96138582Y-97987819D01*
X96144948Y-97999478D01*
X96154512Y-98012747D01*
X96154513Y-98012749D01*
X96152692Y-98013659D01*
X96172067Y-98049142D01*
X96167083Y-98118834D01*
X96125211Y-98174767D01*
X96059747Y-98199184D01*
X96050901Y-98199500D01*
X95921155Y-98199500D01*
X95766510Y-98230261D01*
X95766498Y-98230264D01*
X95620827Y-98290602D01*
X95620814Y-98290609D01*
X95489711Y-98378210D01*
X95489707Y-98378213D01*
X95378213Y-98489707D01*
X95378210Y-98489711D01*
X95290609Y-98620814D01*
X95290602Y-98620827D01*
X95230264Y-98766498D01*
X95230261Y-98766510D01*
X95199500Y-98921153D01*
X92750000Y-98921153D01*
X92750000Y-62100000D01*
X86624000Y-62100000D01*
X86556961Y-62080315D01*
X86511206Y-62027511D01*
X86500000Y-61976000D01*
X86500000Y-59421153D01*
X102699500Y-59421153D01*
X102699500Y-59578846D01*
X102730261Y-59733489D01*
X102730264Y-59733501D01*
X102790602Y-59879172D01*
X102790609Y-59879185D01*
X102878602Y-60010874D01*
X102899480Y-60077551D01*
X102899500Y-60079765D01*
X102899500Y-61913330D01*
X102899499Y-61913348D01*
X102899499Y-62079054D01*
X102899498Y-62079054D01*
X102905110Y-62099998D01*
X102940423Y-62231785D01*
X102947837Y-62244626D01*
X102947838Y-62244627D01*
X102947838Y-62244628D01*
X103019477Y-62368712D01*
X103019481Y-62368717D01*
X103138349Y-62487585D01*
X103138355Y-62487590D01*
X104363181Y-63712416D01*
X104396666Y-63773739D01*
X104399500Y-63800097D01*
X104399500Y-72574684D01*
X104390061Y-72622136D01*
X104330264Y-72766498D01*
X104330261Y-72766510D01*
X104299500Y-72921153D01*
X104299500Y-73078846D01*
X104330261Y-73233489D01*
X104330264Y-73233501D01*
X104390602Y-73379172D01*
X104390609Y-73379185D01*
X104478210Y-73510288D01*
X104478213Y-73510292D01*
X104589707Y-73621786D01*
X104589711Y-73621789D01*
X104720814Y-73709390D01*
X104720827Y-73709397D01*
X104866498Y-73769735D01*
X104866503Y-73769737D01*
X105021153Y-73800499D01*
X105021156Y-73800500D01*
X105021158Y-73800500D01*
X105178844Y-73800500D01*
X105178845Y-73800499D01*
X105333497Y-73769737D01*
X105479179Y-73709394D01*
X105610289Y-73621789D01*
X105721789Y-73510289D01*
X105809394Y-73379179D01*
X105869737Y-73233497D01*
X105900500Y-73078842D01*
X105900500Y-72921158D01*
X105900500Y-72921155D01*
X105900499Y-72921153D01*
X105874531Y-72790606D01*
X105869737Y-72766503D01*
X105862256Y-72748443D01*
X105809397Y-72620827D01*
X105809390Y-72620814D01*
X105721789Y-72489711D01*
X105721786Y-72489707D01*
X105636819Y-72404740D01*
X105603334Y-72343417D01*
X105600500Y-72317059D01*
X105600500Y-69381902D01*
X117599500Y-69381902D01*
X117599500Y-69618097D01*
X117636446Y-69851368D01*
X117709433Y-70075996D01*
X117816657Y-70286433D01*
X117955483Y-70477510D01*
X118122490Y-70644517D01*
X118313567Y-70783343D01*
X118347238Y-70800499D01*
X118524003Y-70890566D01*
X118524005Y-70890566D01*
X118524008Y-70890568D01*
X118644412Y-70929689D01*
X118748631Y-70963553D01*
X118981903Y-71000500D01*
X118981908Y-71000500D01*
X119218097Y-71000500D01*
X119451368Y-70963553D01*
X119473878Y-70956239D01*
X119675992Y-70890568D01*
X119886433Y-70783343D01*
X120077510Y-70644517D01*
X120244517Y-70477510D01*
X120383343Y-70286433D01*
X120490568Y-70075992D01*
X120563553Y-69851368D01*
X120577990Y-69760215D01*
X120600500Y-69618097D01*
X120600500Y-69381902D01*
X120563553Y-69148631D01*
X120529689Y-69044412D01*
X120490568Y-68924008D01*
X120490566Y-68924005D01*
X120490566Y-68924003D01*
X120383342Y-68713566D01*
X120350880Y-68668886D01*
X120244517Y-68522490D01*
X120077510Y-68355483D01*
X119886433Y-68216657D01*
X119675996Y-68109433D01*
X119451368Y-68036446D01*
X119218097Y-67999500D01*
X119218092Y-67999500D01*
X118981908Y-67999500D01*
X118981903Y-67999500D01*
X118748631Y-68036446D01*
X118524003Y-68109433D01*
X118313566Y-68216657D01*
X118204550Y-68295862D01*
X118122490Y-68355483D01*
X118122488Y-68355485D01*
X118122487Y-68355485D01*
X117955485Y-68522487D01*
X117955485Y-68522488D01*
X117955483Y-68522490D01*
X117895862Y-68604550D01*
X117816657Y-68713566D01*
X117709433Y-68924003D01*
X117636446Y-69148631D01*
X117599500Y-69381902D01*
X105600500Y-69381902D01*
X105600500Y-63420945D01*
X105600500Y-63420943D01*
X105559577Y-63268216D01*
X105559573Y-63268209D01*
X105480524Y-63131290D01*
X105480521Y-63131286D01*
X105480520Y-63131284D01*
X105368716Y-63019480D01*
X105368715Y-63019479D01*
X105364385Y-63015149D01*
X105364374Y-63015139D01*
X104136819Y-61787584D01*
X104103334Y-61726261D01*
X104100500Y-61699903D01*
X104100500Y-60079765D01*
X104120185Y-60012726D01*
X104121398Y-60010874D01*
X104209390Y-59879185D01*
X104209390Y-59879184D01*
X104209394Y-59879179D01*
X104213803Y-59868536D01*
X104245430Y-59792179D01*
X104269737Y-59733497D01*
X104295866Y-59602135D01*
X116299500Y-59602135D01*
X116299500Y-61397870D01*
X116299501Y-61397876D01*
X116305908Y-61457483D01*
X116356202Y-61592328D01*
X116356206Y-61592335D01*
X116442452Y-61707544D01*
X116442455Y-61707547D01*
X116557664Y-61793793D01*
X116557671Y-61793797D01*
X116692517Y-61844091D01*
X116692516Y-61844091D01*
X116699444Y-61844835D01*
X116752127Y-61850500D01*
X118547872Y-61850499D01*
X118607483Y-61844091D01*
X118742331Y-61793796D01*
X118857546Y-61707546D01*
X118943796Y-61592331D01*
X118992810Y-61460916D01*
X119034681Y-61404984D01*
X119100145Y-61380566D01*
X119168418Y-61395417D01*
X119196673Y-61416569D01*
X119310213Y-61530109D01*
X119482179Y-61655048D01*
X119482181Y-61655049D01*
X119482184Y-61655051D01*
X119671588Y-61751557D01*
X119873757Y-61817246D01*
X120083713Y-61850500D01*
X120083714Y-61850500D01*
X120296286Y-61850500D01*
X120296287Y-61850500D01*
X120506243Y-61817246D01*
X120708412Y-61751557D01*
X120897816Y-61655051D01*
X120984138Y-61592335D01*
X121069786Y-61530109D01*
X121069788Y-61530106D01*
X121069792Y-61530104D01*
X121220104Y-61379792D01*
X121220106Y-61379788D01*
X121220109Y-61379786D01*
X121345048Y-61207820D01*
X121345047Y-61207820D01*
X121345051Y-61207816D01*
X121349514Y-61199054D01*
X121397488Y-61148259D01*
X121465308Y-61131463D01*
X121531444Y-61153999D01*
X121570486Y-61199056D01*
X121574951Y-61207820D01*
X121699890Y-61379786D01*
X121850213Y-61530109D01*
X122022179Y-61655048D01*
X122022181Y-61655049D01*
X122022184Y-61655051D01*
X122211588Y-61751557D01*
X122413757Y-61817246D01*
X122623713Y-61850500D01*
X122623714Y-61850500D01*
X122836286Y-61850500D01*
X122836287Y-61850500D01*
X123046243Y-61817246D01*
X123248412Y-61751557D01*
X123437816Y-61655051D01*
X123524138Y-61592335D01*
X123609786Y-61530109D01*
X123609788Y-61530106D01*
X123609792Y-61530104D01*
X123760104Y-61379792D01*
X123760106Y-61379788D01*
X123760109Y-61379786D01*
X123885048Y-61207820D01*
X123885047Y-61207820D01*
X123885051Y-61207816D01*
X123889514Y-61199054D01*
X123937488Y-61148259D01*
X124005308Y-61131463D01*
X124071444Y-61153999D01*
X124110486Y-61199056D01*
X124114951Y-61207820D01*
X124239890Y-61379786D01*
X124390213Y-61530109D01*
X124562179Y-61655048D01*
X124562181Y-61655049D01*
X124562184Y-61655051D01*
X124751588Y-61751557D01*
X124953757Y-61817246D01*
X125163713Y-61850500D01*
X125163714Y-61850500D01*
X125376286Y-61850500D01*
X125376287Y-61850500D01*
X125586243Y-61817246D01*
X125788412Y-61751557D01*
X125977816Y-61655051D01*
X126064138Y-61592335D01*
X126149786Y-61530109D01*
X126149788Y-61530106D01*
X126149792Y-61530104D01*
X126300104Y-61379792D01*
X126300106Y-61379788D01*
X126300109Y-61379786D01*
X126425048Y-61207820D01*
X126425047Y-61207820D01*
X126425051Y-61207816D01*
X126429514Y-61199054D01*
X126477488Y-61148259D01*
X126545308Y-61131463D01*
X126611444Y-61153999D01*
X126650486Y-61199056D01*
X126654951Y-61207820D01*
X126779890Y-61379786D01*
X126930213Y-61530109D01*
X127102179Y-61655048D01*
X127102181Y-61655049D01*
X127102184Y-61655051D01*
X127291588Y-61751557D01*
X127493757Y-61817246D01*
X127703713Y-61850500D01*
X127703714Y-61850500D01*
X127916286Y-61850500D01*
X127916287Y-61850500D01*
X128126243Y-61817246D01*
X128328412Y-61751557D01*
X128517816Y-61655051D01*
X128604138Y-61592335D01*
X128689786Y-61530109D01*
X128689788Y-61530106D01*
X128689792Y-61530104D01*
X128840104Y-61379792D01*
X128840106Y-61379788D01*
X128840109Y-61379786D01*
X128925890Y-61261717D01*
X128965051Y-61207816D01*
X128969793Y-61198508D01*
X129017763Y-61147711D01*
X129085583Y-61130911D01*
X129151719Y-61153445D01*
X129190763Y-61198500D01*
X129195373Y-61207547D01*
X129234728Y-61261716D01*
X129867037Y-60629408D01*
X129884075Y-60692993D01*
X129949901Y-60807007D01*
X130042993Y-60900099D01*
X130157007Y-60965925D01*
X130220590Y-60982962D01*
X129588282Y-61615269D01*
X129588282Y-61615270D01*
X129642449Y-61654624D01*
X129831782Y-61751095D01*
X130033870Y-61816757D01*
X130243754Y-61850000D01*
X130456246Y-61850000D01*
X130666127Y-61816757D01*
X130666130Y-61816757D01*
X130868217Y-61751095D01*
X131057554Y-61654622D01*
X131111716Y-61615270D01*
X131111717Y-61615270D01*
X130479408Y-60982962D01*
X130542993Y-60965925D01*
X130657007Y-60900099D01*
X130750099Y-60807007D01*
X130815925Y-60692993D01*
X130832962Y-60629408D01*
X131465270Y-61261717D01*
X131465270Y-61261716D01*
X131504622Y-61207554D01*
X131601095Y-61018217D01*
X131666757Y-60816130D01*
X131666757Y-60816127D01*
X131700000Y-60606246D01*
X131700000Y-60393753D01*
X131666757Y-60183872D01*
X131666757Y-60183869D01*
X131601095Y-59981782D01*
X131504624Y-59792449D01*
X131465270Y-59738282D01*
X131465269Y-59738282D01*
X130832962Y-60370590D01*
X130815925Y-60307007D01*
X130750099Y-60192993D01*
X130657007Y-60099901D01*
X130542993Y-60034075D01*
X130479409Y-60017037D01*
X131111716Y-59384728D01*
X131057550Y-59345375D01*
X130868217Y-59248904D01*
X130666129Y-59183242D01*
X130456246Y-59150000D01*
X130243754Y-59150000D01*
X130033872Y-59183242D01*
X130033869Y-59183242D01*
X129831782Y-59248904D01*
X129642439Y-59345380D01*
X129588282Y-59384727D01*
X129588282Y-59384728D01*
X130220591Y-60017037D01*
X130157007Y-60034075D01*
X130042993Y-60099901D01*
X129949901Y-60192993D01*
X129884075Y-60307007D01*
X129867037Y-60370591D01*
X129234728Y-59738282D01*
X129234727Y-59738282D01*
X129195380Y-59792440D01*
X129195376Y-59792446D01*
X129190760Y-59801505D01*
X129142781Y-59852297D01*
X129074959Y-59869087D01*
X129008826Y-59846543D01*
X128969794Y-59801493D01*
X128965051Y-59792184D01*
X128965049Y-59792181D01*
X128965048Y-59792179D01*
X128840109Y-59620213D01*
X128689786Y-59469890D01*
X128517820Y-59344951D01*
X128328414Y-59248444D01*
X128328413Y-59248443D01*
X128328412Y-59248443D01*
X128126243Y-59182754D01*
X128126241Y-59182753D01*
X128126240Y-59182753D01*
X127964957Y-59157208D01*
X127916287Y-59149500D01*
X127703713Y-59149500D01*
X127655042Y-59157208D01*
X127493760Y-59182753D01*
X127291585Y-59248444D01*
X127102179Y-59344951D01*
X126930213Y-59469890D01*
X126779890Y-59620213D01*
X126654949Y-59792182D01*
X126650484Y-59800946D01*
X126602509Y-59851742D01*
X126534688Y-59868536D01*
X126468553Y-59845998D01*
X126429516Y-59800946D01*
X126425050Y-59792182D01*
X126300109Y-59620213D01*
X126149786Y-59469890D01*
X125977820Y-59344951D01*
X125788414Y-59248444D01*
X125788413Y-59248443D01*
X125788412Y-59248443D01*
X125586243Y-59182754D01*
X125586241Y-59182753D01*
X125586240Y-59182753D01*
X125424957Y-59157208D01*
X125376287Y-59149500D01*
X125163713Y-59149500D01*
X125115042Y-59157208D01*
X124953760Y-59182753D01*
X124751585Y-59248444D01*
X124562179Y-59344951D01*
X124390213Y-59469890D01*
X124239890Y-59620213D01*
X124114949Y-59792182D01*
X124110484Y-59800946D01*
X124062509Y-59851742D01*
X123994688Y-59868536D01*
X123928553Y-59845998D01*
X123889516Y-59800946D01*
X123885050Y-59792182D01*
X123760109Y-59620213D01*
X123609786Y-59469890D01*
X123437820Y-59344951D01*
X123248414Y-59248444D01*
X123248413Y-59248443D01*
X123248412Y-59248443D01*
X123046243Y-59182754D01*
X123046241Y-59182753D01*
X123046240Y-59182753D01*
X122884957Y-59157208D01*
X122836287Y-59149500D01*
X122623713Y-59149500D01*
X122575042Y-59157208D01*
X122413760Y-59182753D01*
X122211585Y-59248444D01*
X122022179Y-59344951D01*
X121850213Y-59469890D01*
X121699890Y-59620213D01*
X121574949Y-59792182D01*
X121570484Y-59800946D01*
X121522509Y-59851742D01*
X121454688Y-59868536D01*
X121388553Y-59845998D01*
X121349516Y-59800946D01*
X121345050Y-59792182D01*
X121220109Y-59620213D01*
X121069786Y-59469890D01*
X120897820Y-59344951D01*
X120708414Y-59248444D01*
X120708413Y-59248443D01*
X120708412Y-59248443D01*
X120506243Y-59182754D01*
X120506241Y-59182753D01*
X120506240Y-59182753D01*
X120344957Y-59157208D01*
X120296287Y-59149500D01*
X120083713Y-59149500D01*
X120035042Y-59157208D01*
X119873760Y-59182753D01*
X119671585Y-59248444D01*
X119482179Y-59344951D01*
X119310215Y-59469889D01*
X119196673Y-59583431D01*
X119135350Y-59616915D01*
X119065658Y-59611931D01*
X119009725Y-59570059D01*
X118992810Y-59539082D01*
X118943797Y-59407671D01*
X118943793Y-59407664D01*
X118857547Y-59292455D01*
X118857544Y-59292452D01*
X118742335Y-59206206D01*
X118742328Y-59206202D01*
X118607482Y-59155908D01*
X118607483Y-59155908D01*
X118547883Y-59149501D01*
X118547881Y-59149500D01*
X118547873Y-59149500D01*
X118547864Y-59149500D01*
X116752129Y-59149500D01*
X116752123Y-59149501D01*
X116692516Y-59155908D01*
X116557671Y-59206202D01*
X116557664Y-59206206D01*
X116442455Y-59292452D01*
X116442452Y-59292455D01*
X116356206Y-59407664D01*
X116356202Y-59407671D01*
X116305908Y-59542517D01*
X116299501Y-59602116D01*
X116299500Y-59602135D01*
X104295866Y-59602135D01*
X104295868Y-59602127D01*
X104300500Y-59578843D01*
X104300500Y-59421155D01*
X104300499Y-59421153D01*
X104296192Y-59399500D01*
X104269737Y-59266503D01*
X104262256Y-59248443D01*
X104209397Y-59120827D01*
X104209390Y-59120814D01*
X104121789Y-58989711D01*
X104121786Y-58989707D01*
X104010292Y-58878213D01*
X104010288Y-58878210D01*
X103879185Y-58790609D01*
X103879172Y-58790602D01*
X103733501Y-58730264D01*
X103733489Y-58730261D01*
X103578845Y-58699500D01*
X103578842Y-58699500D01*
X103421158Y-58699500D01*
X103421155Y-58699500D01*
X103266510Y-58730261D01*
X103266498Y-58730264D01*
X103120827Y-58790602D01*
X103120814Y-58790609D01*
X102989711Y-58878210D01*
X102989707Y-58878213D01*
X102878213Y-58989707D01*
X102878210Y-58989711D01*
X102790609Y-59120814D01*
X102790602Y-59120827D01*
X102730264Y-59266498D01*
X102730261Y-59266510D01*
X102699500Y-59421153D01*
X86500000Y-59421153D01*
X86500000Y-52131902D01*
X92499500Y-52131902D01*
X92499500Y-52368097D01*
X92536446Y-52601368D01*
X92609433Y-52825996D01*
X92716657Y-53036433D01*
X92855483Y-53227510D01*
X93022490Y-53394517D01*
X93213567Y-53533343D01*
X93312991Y-53584002D01*
X93424003Y-53640566D01*
X93424005Y-53640566D01*
X93424008Y-53640568D01*
X93544412Y-53679689D01*
X93648631Y-53713553D01*
X93881903Y-53750500D01*
X93881908Y-53750500D01*
X94118097Y-53750500D01*
X94351368Y-53713553D01*
X94575992Y-53640568D01*
X94786433Y-53533343D01*
X94977510Y-53394517D01*
X95144517Y-53227510D01*
X95283343Y-53036433D01*
X95390568Y-52825992D01*
X95463553Y-52601368D01*
X95500500Y-52368097D01*
X95500500Y-52131902D01*
X98999500Y-52131902D01*
X98999500Y-52368097D01*
X99036446Y-52601368D01*
X99109433Y-52825996D01*
X99216657Y-53036433D01*
X99355483Y-53227510D01*
X99522490Y-53394517D01*
X99713567Y-53533343D01*
X99812991Y-53584002D01*
X99924003Y-53640566D01*
X99924005Y-53640566D01*
X99924008Y-53640568D01*
X100044412Y-53679689D01*
X100148631Y-53713553D01*
X100381903Y-53750500D01*
X100381908Y-53750500D01*
X100618097Y-53750500D01*
X100851368Y-53713553D01*
X101075992Y-53640568D01*
X101286433Y-53533343D01*
X101477510Y-53394517D01*
X101644517Y-53227510D01*
X101783343Y-53036433D01*
X101890568Y-52825992D01*
X101963553Y-52601368D01*
X101998313Y-52381902D01*
X103499500Y-52381902D01*
X103499500Y-52618097D01*
X103536446Y-52851368D01*
X103609433Y-53075996D01*
X103686635Y-53227512D01*
X103716657Y-53286433D01*
X103855483Y-53477510D01*
X104022490Y-53644517D01*
X104213567Y-53783343D01*
X104312991Y-53834002D01*
X104424003Y-53890566D01*
X104424005Y-53890566D01*
X104424008Y-53890568D01*
X104544412Y-53929689D01*
X104648631Y-53963553D01*
X104881903Y-54000500D01*
X104881908Y-54000500D01*
X105118097Y-54000500D01*
X105351368Y-53963553D01*
X105575992Y-53890568D01*
X105786433Y-53783343D01*
X105977510Y-53644517D01*
X106144517Y-53477510D01*
X106283343Y-53286433D01*
X106390568Y-53075992D01*
X106463553Y-52851368D01*
X106500500Y-52618097D01*
X106500500Y-52381902D01*
X109999500Y-52381902D01*
X109999500Y-52618097D01*
X110036446Y-52851368D01*
X110109433Y-53075996D01*
X110186635Y-53227512D01*
X110216657Y-53286433D01*
X110355483Y-53477510D01*
X110522490Y-53644517D01*
X110713567Y-53783343D01*
X110812991Y-53834002D01*
X110924003Y-53890566D01*
X110924005Y-53890566D01*
X110924008Y-53890568D01*
X111044412Y-53929689D01*
X111148631Y-53963553D01*
X111381903Y-54000500D01*
X111381908Y-54000500D01*
X111618097Y-54000500D01*
X111851368Y-53963553D01*
X112075992Y-53890568D01*
X112286433Y-53783343D01*
X112477510Y-53644517D01*
X112644517Y-53477510D01*
X112783343Y-53286433D01*
X112890568Y-53075992D01*
X112963553Y-52851368D01*
X113000500Y-52618097D01*
X113000500Y-52381902D01*
X112963553Y-52148631D01*
X112890566Y-51924003D01*
X112783342Y-51713566D01*
X112644517Y-51522490D01*
X112477510Y-51355483D01*
X112286433Y-51216657D01*
X112075996Y-51109433D01*
X111851368Y-51036446D01*
X111618097Y-50999500D01*
X111618092Y-50999500D01*
X111381908Y-50999500D01*
X111381903Y-50999500D01*
X111148631Y-51036446D01*
X110924003Y-51109433D01*
X110713566Y-51216657D01*
X110604550Y-51295862D01*
X110522490Y-51355483D01*
X110522488Y-51355485D01*
X110522487Y-51355485D01*
X110355485Y-51522487D01*
X110355485Y-51522488D01*
X110355483Y-51522490D01*
X110295862Y-51604550D01*
X110216657Y-51713566D01*
X110109433Y-51924003D01*
X110036446Y-52148631D01*
X109999500Y-52381902D01*
X106500500Y-52381902D01*
X106463553Y-52148631D01*
X106390566Y-51924003D01*
X106283342Y-51713566D01*
X106144517Y-51522490D01*
X105977510Y-51355483D01*
X105786433Y-51216657D01*
X105575996Y-51109433D01*
X105351368Y-51036446D01*
X105118097Y-50999500D01*
X105118092Y-50999500D01*
X104881908Y-50999500D01*
X104881903Y-50999500D01*
X104648631Y-51036446D01*
X104424003Y-51109433D01*
X104213566Y-51216657D01*
X104104550Y-51295862D01*
X104022490Y-51355483D01*
X104022488Y-51355485D01*
X104022487Y-51355485D01*
X103855485Y-51522487D01*
X103855485Y-51522488D01*
X103855483Y-51522490D01*
X103795862Y-51604550D01*
X103716657Y-51713566D01*
X103609433Y-51924003D01*
X103536446Y-52148631D01*
X103499500Y-52381902D01*
X101998313Y-52381902D01*
X102000500Y-52368092D01*
X102000500Y-52131908D01*
X102000500Y-52131902D01*
X101963553Y-51898631D01*
X101929689Y-51794412D01*
X101890568Y-51674008D01*
X101890566Y-51674005D01*
X101890566Y-51674003D01*
X101783342Y-51463566D01*
X101644517Y-51272490D01*
X101477510Y-51105483D01*
X101286433Y-50966657D01*
X101075996Y-50859433D01*
X100851368Y-50786446D01*
X100618097Y-50749500D01*
X100618092Y-50749500D01*
X100381908Y-50749500D01*
X100381903Y-50749500D01*
X100148631Y-50786446D01*
X99924003Y-50859433D01*
X99713566Y-50966657D01*
X99604550Y-51045862D01*
X99522490Y-51105483D01*
X99522488Y-51105485D01*
X99522487Y-51105485D01*
X99355485Y-51272487D01*
X99355485Y-51272488D01*
X99355483Y-51272490D01*
X99295862Y-51354550D01*
X99216657Y-51463566D01*
X99109433Y-51674003D01*
X99036446Y-51898631D01*
X98999500Y-52131902D01*
X95500500Y-52131902D01*
X95463553Y-51898631D01*
X95429689Y-51794412D01*
X95390568Y-51674008D01*
X95390566Y-51674005D01*
X95390566Y-51674003D01*
X95283342Y-51463566D01*
X95144517Y-51272490D01*
X94977510Y-51105483D01*
X94786433Y-50966657D01*
X94575996Y-50859433D01*
X94351368Y-50786446D01*
X94118097Y-50749500D01*
X94118092Y-50749500D01*
X93881908Y-50749500D01*
X93881903Y-50749500D01*
X93648631Y-50786446D01*
X93424003Y-50859433D01*
X93213566Y-50966657D01*
X93104550Y-51045862D01*
X93022490Y-51105483D01*
X93022488Y-51105485D01*
X93022487Y-51105485D01*
X92855485Y-51272487D01*
X92855485Y-51272488D01*
X92855483Y-51272490D01*
X92795862Y-51354550D01*
X92716657Y-51463566D01*
X92609433Y-51674003D01*
X92536446Y-51898631D01*
X92499500Y-52131902D01*
X86500000Y-52131902D01*
X86500000Y-47631947D01*
X92500000Y-47631947D01*
X92500000Y-47868052D01*
X92536934Y-48101247D01*
X92609897Y-48325802D01*
X92717087Y-48536174D01*
X92777338Y-48619104D01*
X92777340Y-48619105D01*
X93476212Y-47920233D01*
X93487482Y-47962292D01*
X93559890Y-48087708D01*
X93662292Y-48190110D01*
X93787708Y-48262518D01*
X93829765Y-48273787D01*
X93130893Y-48972658D01*
X93213828Y-49032914D01*
X93424197Y-49140102D01*
X93648752Y-49213065D01*
X93648751Y-49213065D01*
X93881948Y-49250000D01*
X94118052Y-49250000D01*
X94351247Y-49213065D01*
X94575802Y-49140102D01*
X94786163Y-49032918D01*
X94786169Y-49032914D01*
X94869104Y-48972658D01*
X94869105Y-48972658D01*
X94170233Y-48273787D01*
X94212292Y-48262518D01*
X94337708Y-48190110D01*
X94440110Y-48087708D01*
X94512518Y-47962292D01*
X94523787Y-47920233D01*
X95222658Y-48619105D01*
X95222658Y-48619104D01*
X95282914Y-48536169D01*
X95282918Y-48536163D01*
X95390102Y-48325802D01*
X95463065Y-48101247D01*
X95500000Y-47868052D01*
X95500000Y-47631947D01*
X99000000Y-47631947D01*
X99000000Y-47868052D01*
X99036934Y-48101247D01*
X99109897Y-48325802D01*
X99217087Y-48536174D01*
X99277338Y-48619104D01*
X99277340Y-48619105D01*
X99976212Y-47920233D01*
X99987482Y-47962292D01*
X100059890Y-48087708D01*
X100162292Y-48190110D01*
X100287708Y-48262518D01*
X100329765Y-48273787D01*
X99630893Y-48972658D01*
X99713828Y-49032914D01*
X99924197Y-49140102D01*
X100148752Y-49213065D01*
X100148751Y-49213065D01*
X100381948Y-49250000D01*
X100618052Y-49250000D01*
X100851247Y-49213065D01*
X101075802Y-49140102D01*
X101223369Y-49064914D01*
X101286163Y-49032918D01*
X101286169Y-49032914D01*
X101369104Y-48972658D01*
X101369105Y-48972658D01*
X100670233Y-48273787D01*
X100712292Y-48262518D01*
X100837708Y-48190110D01*
X100940110Y-48087708D01*
X101012518Y-47962292D01*
X101023787Y-47920234D01*
X101722658Y-48619105D01*
X101722658Y-48619104D01*
X101782914Y-48536169D01*
X101782918Y-48536163D01*
X101890102Y-48325802D01*
X101963065Y-48101247D01*
X101997799Y-47881947D01*
X103500000Y-47881947D01*
X103500000Y-48118052D01*
X103536934Y-48351247D01*
X103609897Y-48575802D01*
X103717087Y-48786174D01*
X103777338Y-48869104D01*
X103777340Y-48869105D01*
X104476212Y-48170233D01*
X104487482Y-48212292D01*
X104559890Y-48337708D01*
X104662292Y-48440110D01*
X104787708Y-48512518D01*
X104829765Y-48523787D01*
X104130893Y-49222658D01*
X104213828Y-49282914D01*
X104424197Y-49390102D01*
X104648752Y-49463065D01*
X104648751Y-49463065D01*
X104881948Y-49500000D01*
X105118052Y-49500000D01*
X105351247Y-49463065D01*
X105575802Y-49390102D01*
X105786163Y-49282918D01*
X105786169Y-49282914D01*
X105869104Y-49222658D01*
X105869105Y-49222658D01*
X105170233Y-48523787D01*
X105212292Y-48512518D01*
X105337708Y-48440110D01*
X105440110Y-48337708D01*
X105512518Y-48212292D01*
X105523787Y-48170234D01*
X106222658Y-48869105D01*
X106222658Y-48869104D01*
X106282914Y-48786169D01*
X106282918Y-48786163D01*
X106390102Y-48575802D01*
X106463065Y-48351247D01*
X106500000Y-48118052D01*
X106500000Y-47881947D01*
X110000000Y-47881947D01*
X110000000Y-48118052D01*
X110036934Y-48351247D01*
X110109897Y-48575802D01*
X110217087Y-48786174D01*
X110277338Y-48869104D01*
X110277340Y-48869105D01*
X110976212Y-48170233D01*
X110987482Y-48212292D01*
X111059890Y-48337708D01*
X111162292Y-48440110D01*
X111287708Y-48512518D01*
X111329765Y-48523787D01*
X110630893Y-49222658D01*
X110713828Y-49282914D01*
X110924197Y-49390102D01*
X111148752Y-49463065D01*
X111148751Y-49463065D01*
X111381948Y-49500000D01*
X111618052Y-49500000D01*
X111851247Y-49463065D01*
X112075802Y-49390102D01*
X112286163Y-49282918D01*
X112286169Y-49282914D01*
X112369104Y-49222658D01*
X112369105Y-49222658D01*
X111670233Y-48523787D01*
X111712292Y-48512518D01*
X111837708Y-48440110D01*
X111940110Y-48337708D01*
X112012518Y-48212292D01*
X112023787Y-48170234D01*
X112722658Y-48869105D01*
X112722658Y-48869104D01*
X112782914Y-48786169D01*
X112782918Y-48786163D01*
X112890102Y-48575802D01*
X112963065Y-48351247D01*
X113000000Y-48118052D01*
X113000000Y-47881947D01*
X112963065Y-47648752D01*
X112890102Y-47424197D01*
X112782914Y-47213828D01*
X112722658Y-47130894D01*
X112722658Y-47130893D01*
X112023787Y-47829765D01*
X112012518Y-47787708D01*
X111940110Y-47662292D01*
X111837708Y-47559890D01*
X111712292Y-47487482D01*
X111670234Y-47476212D01*
X112369105Y-46777340D01*
X112369104Y-46777338D01*
X112286174Y-46717087D01*
X112075802Y-46609897D01*
X111851247Y-46536934D01*
X111851248Y-46536934D01*
X111618052Y-46500000D01*
X111381948Y-46500000D01*
X111148752Y-46536934D01*
X110924197Y-46609897D01*
X110713830Y-46717084D01*
X110630894Y-46777340D01*
X111329766Y-47476212D01*
X111287708Y-47487482D01*
X111162292Y-47559890D01*
X111059890Y-47662292D01*
X110987482Y-47787708D01*
X110976212Y-47829766D01*
X110277340Y-47130894D01*
X110217084Y-47213830D01*
X110109897Y-47424197D01*
X110036934Y-47648752D01*
X110000000Y-47881947D01*
X106500000Y-47881947D01*
X106463065Y-47648752D01*
X106390102Y-47424197D01*
X106282914Y-47213828D01*
X106222658Y-47130894D01*
X106222658Y-47130893D01*
X105523787Y-47829765D01*
X105512518Y-47787708D01*
X105440110Y-47662292D01*
X105337708Y-47559890D01*
X105212292Y-47487482D01*
X105170234Y-47476212D01*
X105869105Y-46777340D01*
X105869104Y-46777339D01*
X105786174Y-46717087D01*
X105575802Y-46609897D01*
X105351247Y-46536934D01*
X105351248Y-46536934D01*
X105118052Y-46500000D01*
X104881948Y-46500000D01*
X104648752Y-46536934D01*
X104424197Y-46609897D01*
X104213830Y-46717084D01*
X104130894Y-46777340D01*
X104829766Y-47476212D01*
X104787708Y-47487482D01*
X104662292Y-47559890D01*
X104559890Y-47662292D01*
X104487482Y-47787708D01*
X104476212Y-47829766D01*
X103777340Y-47130894D01*
X103717084Y-47213830D01*
X103609897Y-47424197D01*
X103536934Y-47648752D01*
X103500000Y-47881947D01*
X101997799Y-47881947D01*
X101999998Y-47868061D01*
X102000000Y-47868042D01*
X102000000Y-47631947D01*
X101963065Y-47398752D01*
X101890102Y-47174197D01*
X101782914Y-46963828D01*
X101734713Y-46897485D01*
X101722658Y-46880894D01*
X101722658Y-46880893D01*
X101023787Y-47579765D01*
X101012518Y-47537708D01*
X100940110Y-47412292D01*
X100837708Y-47309890D01*
X100712292Y-47237482D01*
X100670234Y-47226212D01*
X101369105Y-46527340D01*
X101369104Y-46527338D01*
X101286174Y-46467087D01*
X101075802Y-46359897D01*
X100851247Y-46286934D01*
X100851248Y-46286934D01*
X100618052Y-46250000D01*
X100381948Y-46250000D01*
X100148752Y-46286934D01*
X99924197Y-46359897D01*
X99713830Y-46467084D01*
X99630894Y-46527340D01*
X100329766Y-47226212D01*
X100287708Y-47237482D01*
X100162292Y-47309890D01*
X100059890Y-47412292D01*
X99987482Y-47537708D01*
X99976212Y-47579766D01*
X99277340Y-46880894D01*
X99217084Y-46963830D01*
X99109897Y-47174197D01*
X99036934Y-47398752D01*
X99000000Y-47631947D01*
X95500000Y-47631947D01*
X95463065Y-47398752D01*
X95390102Y-47174197D01*
X95282914Y-46963828D01*
X95222658Y-46880894D01*
X95222658Y-46880893D01*
X94523787Y-47579765D01*
X94512518Y-47537708D01*
X94440110Y-47412292D01*
X94337708Y-47309890D01*
X94212292Y-47237482D01*
X94170234Y-47226212D01*
X94869105Y-46527340D01*
X94869104Y-46527339D01*
X94786174Y-46467087D01*
X94575802Y-46359897D01*
X94351247Y-46286934D01*
X94351248Y-46286934D01*
X94118052Y-46250000D01*
X93881948Y-46250000D01*
X93648752Y-46286934D01*
X93424197Y-46359897D01*
X93213830Y-46467084D01*
X93130894Y-46527340D01*
X93829766Y-47226212D01*
X93787708Y-47237482D01*
X93662292Y-47309890D01*
X93559890Y-47412292D01*
X93487482Y-47537708D01*
X93476212Y-47579766D01*
X92777340Y-46880894D01*
X92717084Y-46963830D01*
X92609897Y-47174197D01*
X92536934Y-47398752D01*
X92500000Y-47631947D01*
X86500000Y-47631947D01*
X86500000Y-43883713D01*
X115029500Y-43883713D01*
X115029500Y-44096287D01*
X115062754Y-44306243D01*
X115128166Y-44507561D01*
X115128444Y-44508414D01*
X115224951Y-44697820D01*
X115349890Y-44869786D01*
X115500213Y-45020109D01*
X115672179Y-45145048D01*
X115672181Y-45145049D01*
X115672184Y-45145051D01*
X115861588Y-45241557D01*
X116063757Y-45307246D01*
X116273713Y-45340500D01*
X116273714Y-45340500D01*
X116486286Y-45340500D01*
X116486287Y-45340500D01*
X116696243Y-45307246D01*
X116898412Y-45241557D01*
X117087816Y-45145051D01*
X117145703Y-45102994D01*
X117259786Y-45020109D01*
X117259788Y-45020106D01*
X117259792Y-45020104D01*
X117410104Y-44869792D01*
X117410106Y-44869788D01*
X117410109Y-44869786D01*
X117535048Y-44697820D01*
X117535047Y-44697820D01*
X117535051Y-44697816D01*
X117631557Y-44508412D01*
X117697246Y-44306243D01*
X117730500Y-44096287D01*
X117730500Y-43883713D01*
X130269500Y-43883713D01*
X130269500Y-44096287D01*
X130302754Y-44306243D01*
X130368166Y-44507561D01*
X130368444Y-44508414D01*
X130464951Y-44697820D01*
X130589890Y-44869786D01*
X130740213Y-45020109D01*
X130912179Y-45145048D01*
X130912181Y-45145049D01*
X130912184Y-45145051D01*
X131101588Y-45241557D01*
X131303757Y-45307246D01*
X131513713Y-45340500D01*
X131513714Y-45340500D01*
X131726286Y-45340500D01*
X131726287Y-45340500D01*
X131936243Y-45307246D01*
X132138412Y-45241557D01*
X132327816Y-45145051D01*
X132385703Y-45102994D01*
X132499786Y-45020109D01*
X132499788Y-45020106D01*
X132499792Y-45020104D01*
X132520241Y-44999655D01*
X140989500Y-44999655D01*
X140989500Y-46000354D01*
X140995825Y-46069966D01*
X140995828Y-46069977D01*
X141045747Y-46230175D01*
X141045749Y-46230179D01*
X141132556Y-46373777D01*
X141132560Y-46373782D01*
X141251217Y-46492439D01*
X141251222Y-46492443D01*
X141371815Y-46565343D01*
X141394822Y-46579251D01*
X141555029Y-46629173D01*
X141624653Y-46635500D01*
X142625346Y-46635499D01*
X142625353Y-46635499D01*
X142694966Y-46629174D01*
X142694969Y-46629173D01*
X142694971Y-46629173D01*
X142855178Y-46579251D01*
X142986276Y-46500000D01*
X142998777Y-46492443D01*
X142998778Y-46492441D01*
X142998783Y-46492439D01*
X143117439Y-46373783D01*
X143125834Y-46359897D01*
X143192268Y-46250000D01*
X143204251Y-46230178D01*
X143254173Y-46069971D01*
X143260500Y-46000347D01*
X143260499Y-44999655D01*
X150489500Y-44999655D01*
X150489500Y-46000354D01*
X150495825Y-46069966D01*
X150495828Y-46069977D01*
X150545747Y-46230175D01*
X150545749Y-46230179D01*
X150632556Y-46373777D01*
X150632560Y-46373782D01*
X150751217Y-46492439D01*
X150751222Y-46492443D01*
X150871815Y-46565343D01*
X150894822Y-46579251D01*
X151055029Y-46629173D01*
X151124653Y-46635500D01*
X152125346Y-46635499D01*
X152125353Y-46635499D01*
X152194966Y-46629174D01*
X152194969Y-46629173D01*
X152194971Y-46629173D01*
X152355178Y-46579251D01*
X152486276Y-46500000D01*
X152498777Y-46492443D01*
X152498778Y-46492441D01*
X152498783Y-46492439D01*
X152617439Y-46373783D01*
X152625834Y-46359897D01*
X152692268Y-46250000D01*
X152704251Y-46230178D01*
X152754173Y-46069971D01*
X152760500Y-46000347D01*
X152760499Y-44999654D01*
X152760499Y-44999653D01*
X152760499Y-44999645D01*
X152754174Y-44930033D01*
X152754171Y-44930022D01*
X152704252Y-44769824D01*
X152704250Y-44769820D01*
X152617443Y-44626222D01*
X152617439Y-44626217D01*
X152498782Y-44507560D01*
X152498777Y-44507556D01*
X152355180Y-44420750D01*
X152355179Y-44420749D01*
X152355178Y-44420749D01*
X152194971Y-44370827D01*
X152194969Y-44370826D01*
X152194967Y-44370826D01*
X152146221Y-44366396D01*
X152125347Y-44364500D01*
X152125344Y-44364500D01*
X151124645Y-44364500D01*
X151055033Y-44370825D01*
X151055022Y-44370828D01*
X150894824Y-44420747D01*
X150894820Y-44420749D01*
X150751222Y-44507556D01*
X150751217Y-44507560D01*
X150632560Y-44626217D01*
X150632556Y-44626222D01*
X150545750Y-44769819D01*
X150495826Y-44930032D01*
X150489500Y-44999655D01*
X143260499Y-44999655D01*
X143260499Y-44999654D01*
X143260499Y-44999653D01*
X143260499Y-44999645D01*
X143254174Y-44930033D01*
X143254171Y-44930022D01*
X143204252Y-44769824D01*
X143204250Y-44769820D01*
X143117443Y-44626222D01*
X143117439Y-44626217D01*
X142998782Y-44507560D01*
X142998777Y-44507556D01*
X142855180Y-44420750D01*
X142855179Y-44420749D01*
X142855178Y-44420749D01*
X142694971Y-44370827D01*
X142694969Y-44370826D01*
X142694967Y-44370826D01*
X142646221Y-44366396D01*
X142625347Y-44364500D01*
X142625344Y-44364500D01*
X141624645Y-44364500D01*
X141555033Y-44370825D01*
X141555022Y-44370828D01*
X141394824Y-44420747D01*
X141394820Y-44420749D01*
X141251222Y-44507556D01*
X141251217Y-44507560D01*
X141132560Y-44626217D01*
X141132556Y-44626222D01*
X141045750Y-44769819D01*
X140995826Y-44930032D01*
X140989500Y-44999655D01*
X132520241Y-44999655D01*
X132650104Y-44869792D01*
X132650106Y-44869788D01*
X132650109Y-44869786D01*
X132775048Y-44697820D01*
X132775047Y-44697820D01*
X132775051Y-44697816D01*
X132871557Y-44508412D01*
X132937246Y-44306243D01*
X132970500Y-44096287D01*
X132970500Y-43999655D01*
X167164500Y-43999655D01*
X167164500Y-45000354D01*
X167170825Y-45069966D01*
X167170828Y-45069977D01*
X167220747Y-45230175D01*
X167220749Y-45230179D01*
X167307556Y-45373777D01*
X167307560Y-45373782D01*
X167426217Y-45492439D01*
X167426222Y-45492443D01*
X167546815Y-45565343D01*
X167569822Y-45579251D01*
X167730029Y-45629173D01*
X167799653Y-45635500D01*
X168800346Y-45635499D01*
X168800353Y-45635499D01*
X168869966Y-45629174D01*
X168869969Y-45629173D01*
X168869971Y-45629173D01*
X169030178Y-45579251D01*
X169148790Y-45507548D01*
X169173777Y-45492443D01*
X169173777Y-45492442D01*
X169173783Y-45492439D01*
X169248373Y-45417848D01*
X169309692Y-45384366D01*
X169379384Y-45389350D01*
X169435315Y-45431219D01*
X169492454Y-45507546D01*
X169492457Y-45507548D01*
X169607664Y-45593793D01*
X169607671Y-45593797D01*
X169742517Y-45644091D01*
X169742516Y-45644091D01*
X169749444Y-45644835D01*
X169802127Y-45650500D01*
X171197872Y-45650499D01*
X171257483Y-45644091D01*
X171392331Y-45593796D01*
X171507546Y-45507546D01*
X171582910Y-45406872D01*
X171638842Y-45365003D01*
X171708534Y-45360019D01*
X171755060Y-45380867D01*
X171897006Y-45483996D01*
X172002484Y-45537740D01*
X172058360Y-45566211D01*
X172058363Y-45566212D01*
X172143251Y-45593793D01*
X172230591Y-45622171D01*
X172313429Y-45635291D01*
X172409449Y-45650500D01*
X172409454Y-45650500D01*
X172590551Y-45650500D01*
X172677259Y-45636765D01*
X172769409Y-45622171D01*
X172941639Y-45566211D01*
X173102994Y-45483996D01*
X173249501Y-45377553D01*
X173377553Y-45249501D01*
X173399989Y-45218619D01*
X173455317Y-45175952D01*
X173524931Y-45169971D01*
X173586727Y-45202575D01*
X173600628Y-45218618D01*
X173622825Y-45249171D01*
X173750830Y-45377176D01*
X173897265Y-45483565D01*
X174058552Y-45565747D01*
X174058555Y-45565748D01*
X174230699Y-45621680D01*
X174230712Y-45621683D01*
X174250000Y-45624738D01*
X174250000Y-44744975D01*
X174285095Y-44780070D01*
X174364905Y-44826148D01*
X174453922Y-44850000D01*
X174546078Y-44850000D01*
X174635095Y-44826148D01*
X174714905Y-44780070D01*
X174750000Y-44744975D01*
X174750000Y-45624737D01*
X174769287Y-45621683D01*
X174769300Y-45621680D01*
X174941444Y-45565748D01*
X174941447Y-45565747D01*
X175102734Y-45483565D01*
X175249169Y-45377176D01*
X175377172Y-45249173D01*
X175377173Y-45249171D01*
X175407200Y-45207843D01*
X175462529Y-45165177D01*
X175532142Y-45159196D01*
X175593938Y-45191801D01*
X175616496Y-45223985D01*
X175616869Y-45223760D01*
X175620195Y-45229262D01*
X175620591Y-45229827D01*
X175620749Y-45230179D01*
X175707556Y-45373777D01*
X175707560Y-45373782D01*
X175826217Y-45492439D01*
X175826222Y-45492443D01*
X175946815Y-45565343D01*
X175969822Y-45579251D01*
X176130029Y-45629173D01*
X176199653Y-45635500D01*
X177200346Y-45635499D01*
X177200353Y-45635499D01*
X177269966Y-45629174D01*
X177269969Y-45629173D01*
X177269971Y-45629173D01*
X177430178Y-45579251D01*
X177548790Y-45507548D01*
X177573777Y-45492443D01*
X177573778Y-45492441D01*
X177573783Y-45492439D01*
X177692439Y-45373783D01*
X177779251Y-45230178D01*
X177829173Y-45069971D01*
X177835500Y-45000347D01*
X177835499Y-43999654D01*
X177835499Y-43999653D01*
X177835499Y-43999645D01*
X177829174Y-43930033D01*
X177829171Y-43930022D01*
X177779252Y-43769824D01*
X177779250Y-43769820D01*
X177692443Y-43626222D01*
X177692439Y-43626217D01*
X177573782Y-43507560D01*
X177573777Y-43507556D01*
X177430180Y-43420750D01*
X177430179Y-43420749D01*
X177430178Y-43420749D01*
X177269971Y-43370827D01*
X177269969Y-43370826D01*
X177269967Y-43370826D01*
X177221221Y-43366396D01*
X177200347Y-43364500D01*
X177200344Y-43364500D01*
X176199645Y-43364500D01*
X176130033Y-43370825D01*
X176130022Y-43370828D01*
X175969824Y-43420747D01*
X175969820Y-43420749D01*
X175826222Y-43507556D01*
X175826217Y-43507560D01*
X175707560Y-43626217D01*
X175707556Y-43626222D01*
X175620746Y-43769825D01*
X175620588Y-43770178D01*
X175620403Y-43770393D01*
X175616869Y-43776240D01*
X175615896Y-43775651D01*
X175575117Y-43823226D01*
X175508184Y-43843270D01*
X175441040Y-43823946D01*
X175407200Y-43792157D01*
X175377170Y-43750824D01*
X175249169Y-43622823D01*
X175102734Y-43516434D01*
X174941447Y-43434252D01*
X174941441Y-43434250D01*
X174769295Y-43378318D01*
X174769285Y-43378315D01*
X174750000Y-43375260D01*
X174750000Y-44255025D01*
X174714905Y-44219930D01*
X174635095Y-44173852D01*
X174546078Y-44150000D01*
X174453922Y-44150000D01*
X174364905Y-44173852D01*
X174285095Y-44219930D01*
X174250000Y-44255025D01*
X174250000Y-43375260D01*
X174230714Y-43378315D01*
X174230704Y-43378318D01*
X174058558Y-43434250D01*
X174058552Y-43434252D01*
X173897265Y-43516434D01*
X173750830Y-43622823D01*
X173622825Y-43750828D01*
X173600626Y-43781383D01*
X173545296Y-43824048D01*
X173475682Y-43830026D01*
X173413888Y-43797419D01*
X173399991Y-43781381D01*
X173377558Y-43750505D01*
X173377554Y-43750500D01*
X173249499Y-43622445D01*
X173249494Y-43622441D01*
X173102997Y-43516006D01*
X173102996Y-43516005D01*
X173102994Y-43516004D01*
X173051300Y-43489664D01*
X172941639Y-43433788D01*
X172941636Y-43433787D01*
X172769410Y-43377829D01*
X172590551Y-43349500D01*
X172590546Y-43349500D01*
X172409454Y-43349500D01*
X172409449Y-43349500D01*
X172230589Y-43377829D01*
X172058363Y-43433787D01*
X172058360Y-43433788D01*
X171897002Y-43516006D01*
X171755060Y-43619132D01*
X171689253Y-43642612D01*
X171621200Y-43626786D01*
X171582908Y-43593125D01*
X171507546Y-43492454D01*
X171479669Y-43471585D01*
X171392335Y-43406206D01*
X171392328Y-43406202D01*
X171257482Y-43355908D01*
X171257483Y-43355908D01*
X171197883Y-43349501D01*
X171197881Y-43349500D01*
X171197873Y-43349500D01*
X171197864Y-43349500D01*
X169802129Y-43349500D01*
X169802123Y-43349501D01*
X169742516Y-43355908D01*
X169607671Y-43406202D01*
X169607664Y-43406206D01*
X169492455Y-43492452D01*
X169492452Y-43492455D01*
X169435317Y-43568778D01*
X169379383Y-43610649D01*
X169309692Y-43615633D01*
X169248370Y-43582148D01*
X169173782Y-43507560D01*
X169173777Y-43507556D01*
X169030180Y-43420750D01*
X169030179Y-43420749D01*
X169030178Y-43420749D01*
X168869971Y-43370827D01*
X168869969Y-43370826D01*
X168869967Y-43370826D01*
X168821221Y-43366396D01*
X168800347Y-43364500D01*
X168800344Y-43364500D01*
X167799645Y-43364500D01*
X167730033Y-43370825D01*
X167730022Y-43370828D01*
X167569824Y-43420747D01*
X167569820Y-43420749D01*
X167426222Y-43507556D01*
X167426217Y-43507560D01*
X167307560Y-43626217D01*
X167307556Y-43626222D01*
X167220750Y-43769819D01*
X167220750Y-43769820D01*
X167220749Y-43769822D01*
X167213789Y-43792157D01*
X167170826Y-43930032D01*
X167164500Y-43999655D01*
X132970500Y-43999655D01*
X132970500Y-43883713D01*
X132937246Y-43673757D01*
X132871557Y-43471588D01*
X132775051Y-43282184D01*
X132775049Y-43282181D01*
X132775048Y-43282179D01*
X132650109Y-43110213D01*
X132499786Y-42959890D01*
X132327820Y-42834951D01*
X132138414Y-42738444D01*
X132138413Y-42738443D01*
X132138412Y-42738443D01*
X131936243Y-42672754D01*
X131936241Y-42672753D01*
X131936240Y-42672753D01*
X131774957Y-42647208D01*
X131726287Y-42639500D01*
X131513713Y-42639500D01*
X131465042Y-42647208D01*
X131303760Y-42672753D01*
X131101585Y-42738444D01*
X130912179Y-42834951D01*
X130740213Y-42959890D01*
X130589890Y-43110213D01*
X130464951Y-43282179D01*
X130368444Y-43471585D01*
X130302753Y-43673760D01*
X130270207Y-43879249D01*
X130269500Y-43883713D01*
X117730500Y-43883713D01*
X117697246Y-43673757D01*
X117631557Y-43471588D01*
X117535051Y-43282184D01*
X117535049Y-43282181D01*
X117535048Y-43282179D01*
X117410109Y-43110213D01*
X117259786Y-42959890D01*
X117087820Y-42834951D01*
X116898414Y-42738444D01*
X116898413Y-42738443D01*
X116898412Y-42738443D01*
X116696243Y-42672754D01*
X116696241Y-42672753D01*
X116696240Y-42672753D01*
X116534957Y-42647208D01*
X116486287Y-42639500D01*
X116273713Y-42639500D01*
X116225042Y-42647208D01*
X116063760Y-42672753D01*
X115861585Y-42738444D01*
X115672179Y-42834951D01*
X115500213Y-42959890D01*
X115349890Y-43110213D01*
X115224951Y-43282179D01*
X115128444Y-43471585D01*
X115062753Y-43673760D01*
X115030207Y-43879249D01*
X115029500Y-43883713D01*
X86500000Y-43883713D01*
X86500000Y-41626100D01*
X86519685Y-41559061D01*
X86572489Y-41513306D01*
X86624000Y-41502100D01*
X141311702Y-41502100D01*
X141378741Y-41521785D01*
G37*
%TD.AperFunction*%
%TD*%
M02*
