%TF.GenerationSoftware,KiCad,Pcbnew,10.0.5*%
%TF.CreationDate,2026-09-15T15:30:29+09:00*%
%TF.ProjectId,yomogame,796f6d6f-6761-46d6-952e-6b696361645f,rev?*%
%TF.SameCoordinates,Original*%
%TF.FileFunction,Soldermask,Bot*%
%TF.FilePolarity,Negative*%
%FSLAX46Y46*%
G04 Gerber Fmt 4.6, Leading zero omitted, Abs format (unit mm)*
G04 Created by KiCad (PCBNEW 10.0.5) date 2026-09-15 15:30:29*
%MOMM*%
%LPD*%
G01*
G04 APERTURE LIST*
G04 Aperture macros list*
%AMRoundRect*
0 Rectangle with rounded corners*
0 $1 Rounding radius*
0 $2 $3 $4 $5 $6 $7 $8 $9 X,Y pos of 4 corners*
0 Add a 4 corners polygon primitive as box body*
4,1,4,$2,$3,$4,$5,$6,$7,$8,$9,$2,$3,0*
0 Add four circle primitives for the rounded corners*
1,1,$1+$1,$2,$3*
1,1,$1+$1,$4,$5*
1,1,$1+$1,$6,$7*
1,1,$1+$1,$8,$9*
0 Add four rect primitives between the rounded corners*
20,1,$1+$1,$2,$3,$4,$5,0*
20,1,$1+$1,$4,$5,$6,$7,0*
20,1,$1+$1,$6,$7,$8,$9,0*
20,1,$1+$1,$8,$9,$2,$3,0*%
G04 Aperture macros list end*
%ADD10C,3.500000*%
%ADD11R,1.700000X1.700000*%
%ADD12C,1.700000*%
%ADD13C,2.000000*%
%ADD14RoundRect,0.250000X-0.625000X0.350000X-0.625000X-0.350000X0.625000X-0.350000X0.625000X0.350000X0*%
%ADD15O,1.750000X1.200000*%
%ADD16C,2.500000*%
%ADD17RoundRect,0.190500X0.444500X0.444500X-0.444500X0.444500X-0.444500X-0.444500X0.444500X-0.444500X0*%
%ADD18RoundRect,0.250000X0.550000X0.550000X-0.550000X0.550000X-0.550000X-0.550000X0.550000X-0.550000X0*%
%ADD19C,1.600000*%
%ADD20RoundRect,0.190500X-0.444500X-0.444500X0.444500X-0.444500X0.444500X0.444500X-0.444500X0.444500X0*%
%ADD21R,1.300000X1.300000*%
%ADD22C,1.300000*%
%ADD23R,2.500000X2.500000*%
%ADD24RoundRect,0.250000X0.625000X-0.350000X0.625000X0.350000X-0.625000X0.350000X-0.625000X-0.350000X0*%
%ADD25C,2.200000*%
G04 APERTURE END LIST*
D10*
%TO.C,J1*%
X121750000Y-138250000D03*
X137850000Y-138250000D03*
D11*
X123500000Y-129500000D03*
D12*
X126040000Y-129500000D03*
X128580000Y-129500000D03*
X131120000Y-129500000D03*
X133660000Y-129500000D03*
X136200000Y-129500000D03*
%TD*%
D13*
%TO.C,SW_RESET1*%
X94000000Y-47750000D03*
X100500000Y-47750000D03*
X94000000Y-52250000D03*
X100500000Y-52250000D03*
%TD*%
D14*
%TO.C,J_BAT1*%
X182000000Y-127000000D03*
D15*
X182000000Y-129000000D03*
%TD*%
D16*
%TO.C,U5*%
X119200000Y-92500000D03*
X153500000Y-92500000D03*
X119100000Y-69500000D03*
X153600000Y-69500000D03*
D11*
X118100000Y-89000000D03*
D12*
X118100000Y-86460000D03*
X118100000Y-83920000D03*
X118100000Y-81380000D03*
X118100000Y-78840000D03*
X118100000Y-76300000D03*
X118100000Y-73760000D03*
%TD*%
D10*
%TO.C,U4*%
X181200000Y-68800000D03*
X181200000Y-83200000D03*
D11*
X164800000Y-68100000D03*
D12*
X164800000Y-70640000D03*
X164800000Y-73180000D03*
X164800000Y-75720000D03*
X164800000Y-78260000D03*
X164800000Y-80800000D03*
X164800000Y-83340000D03*
X181800000Y-74000000D03*
X181800000Y-78000000D03*
%TD*%
D17*
%TO.C,SW_VOLDOWN1*%
X142125000Y-45500000D03*
X142125000Y-42800000D03*
%TD*%
D13*
%TO.C,SW_BOOT1*%
X105000000Y-48000000D03*
X111500000Y-48000000D03*
X105000000Y-52500000D03*
X111500000Y-52500000D03*
%TD*%
D17*
%TO.C,SW_VOLUP1*%
X151625000Y-45500000D03*
X151625000Y-42800000D03*
%TD*%
D18*
%TO.C,C22*%
X164205113Y-94000000D03*
D19*
X161705113Y-94000000D03*
%TD*%
D20*
%TO.C,SW_PWR1*%
X168300000Y-44500000D03*
X176700000Y-44500000D03*
D21*
X170500000Y-44500000D03*
D22*
X172500000Y-44500000D03*
X174500000Y-44500000D03*
%TD*%
D23*
%TO.C,U7*%
X149800000Y-125200000D03*
D16*
X149800000Y-139200000D03*
X172600000Y-125200000D03*
X172600000Y-128400000D03*
X172600000Y-136000000D03*
X172600000Y-139200000D03*
%TD*%
D24*
%TO.C,J_SPK1*%
X179000000Y-62500000D03*
D15*
X179000000Y-60500000D03*
%TD*%
D25*
%TO.C,U6*%
X116380000Y-43990000D03*
X131620000Y-43990000D03*
D11*
X117650000Y-60500000D03*
D12*
X120190000Y-60500000D03*
X122730000Y-60500000D03*
X125270000Y-60500000D03*
X127810000Y-60500000D03*
X130350000Y-60500000D03*
%TD*%
M02*
