%TF.GenerationSoftware,KiCad,Pcbnew,10.0.5*%
%TF.CreationDate,2026-09-15T15:30:29+09:00*%
%TF.ProjectId,yomogame,796f6d6f-6761-46d6-952e-6b696361645f,rev?*%
%TF.SameCoordinates,Original*%
%TF.FileFunction,Legend,Top*%
%TF.FilePolarity,Positive*%
%FSLAX46Y46*%
G04 Gerber Fmt 4.6, Leading zero omitted, Abs format (unit mm)*
G04 Created by KiCad (PCBNEW 10.0.5) date 2026-09-15 15:30:29*
%MOMM*%
%LPD*%
G01*
G04 APERTURE LIST*
G04 Aperture macros list*
%AMRoundRect*
0 Rectangle with rounded corners*
0 $1 Rounding radius*
0 $2 $3 $4 $5 $6 $7 $8 $9 X,Y pos of 4 corners*
0 Add a 4 corners polygon primitive as box body*
4,1,4,$2,$3,$4,$5,$6,$7,$8,$9,$2,$3,0*
0 Add four circle primitives for the rounded corners*
1,1,$1+$1,$2,$3*
1,1,$1+$1,$4,$5*
1,1,$1+$1,$6,$7*
1,1,$1+$1,$8,$9*
0 Add four rect primitives between the rounded corners*
20,1,$1+$1,$2,$3,$4,$5,0*
20,1,$1+$1,$4,$5,$6,$7,0*
20,1,$1+$1,$6,$7,$8,$9,0*
20,1,$1+$1,$8,$9,$2,$3,0*%
G04 Aperture macros list end*
%ADD10C,0.300000*%
%ADD11C,0.150000*%
%ADD12C,0.120000*%
%ADD13C,0.050000*%
%ADD14C,0.100000*%
%ADD15RoundRect,0.250000X0.450000X-0.350000X0.450000X0.350000X-0.450000X0.350000X-0.450000X-0.350000X0*%
%ADD16RoundRect,0.200000X-0.750000X-0.200000X0.750000X-0.200000X0.750000X0.200000X-0.750000X0.200000X0*%
%ADD17RoundRect,0.250000X0.475000X-0.337500X0.475000X0.337500X-0.475000X0.337500X-0.475000X-0.337500X0*%
%ADD18RoundRect,0.250000X-0.450000X0.350000X-0.450000X-0.350000X0.450000X-0.350000X0.450000X0.350000X0*%
%ADD19C,3.500000*%
%ADD20R,1.700000X1.700000*%
%ADD21C,1.700000*%
%ADD22C,2.000000*%
%ADD23RoundRect,0.250000X-0.625000X0.350000X-0.625000X-0.350000X0.625000X-0.350000X0.625000X0.350000X0*%
%ADD24O,1.750000X1.200000*%
%ADD25RoundRect,0.250000X-0.475000X0.337500X-0.475000X-0.337500X0.475000X-0.337500X0.475000X0.337500X0*%
%ADD26R,1.200000X0.150000*%
%ADD27R,0.900000X1.500000*%
%ADD28R,1.500000X0.900000*%
%ADD29C,0.800000*%
%ADD30R,3.900000X3.900000*%
%ADD31R,2.500000X0.300000*%
%ADD32RoundRect,0.162500X0.162500X-0.617500X0.162500X0.617500X-0.162500X0.617500X-0.162500X-0.617500X0*%
%ADD33RoundRect,0.250000X0.337500X0.475000X-0.337500X0.475000X-0.337500X-0.475000X0.337500X-0.475000X0*%
%ADD34RoundRect,0.250000X-0.350000X-0.450000X0.350000X-0.450000X0.350000X0.450000X-0.350000X0.450000X0*%
%ADD35C,2.500000*%
%ADD36RoundRect,0.250000X0.650000X-0.412500X0.650000X0.412500X-0.650000X0.412500X-0.650000X-0.412500X0*%
%ADD37RoundRect,0.250000X0.350000X0.450000X-0.350000X0.450000X-0.350000X-0.450000X0.350000X-0.450000X0*%
%ADD38RoundRect,0.250000X-0.337500X-0.475000X0.337500X-0.475000X0.337500X0.475000X-0.337500X0.475000X0*%
%ADD39R,1.000000X1.500000*%
%ADD40RoundRect,0.190500X0.444500X0.444500X-0.444500X0.444500X-0.444500X-0.444500X0.444500X-0.444500X0*%
%ADD41RoundRect,0.150000X0.625000X0.350000X-0.625000X0.350000X-0.625000X-0.350000X0.625000X-0.350000X0*%
%ADD42RoundRect,0.200000X0.750000X0.200000X-0.750000X0.200000X-0.750000X-0.200000X0.750000X-0.200000X0*%
%ADD43RoundRect,0.250000X0.550000X0.550000X-0.550000X0.550000X-0.550000X-0.550000X0.550000X-0.550000X0*%
%ADD44C,1.600000*%
%ADD45RoundRect,0.190500X-0.444500X-0.444500X0.444500X-0.444500X0.444500X0.444500X-0.444500X0.444500X0*%
%ADD46R,1.300000X1.300000*%
%ADD47C,1.300000*%
%ADD48R,2.500000X2.500000*%
%ADD49RoundRect,0.162500X-0.617500X-0.162500X0.617500X-0.162500X0.617500X0.162500X-0.617500X0.162500X0*%
%ADD50RoundRect,0.250000X0.625000X-0.350000X0.625000X0.350000X-0.625000X0.350000X-0.625000X-0.350000X0*%
%ADD51RoundRect,0.250000X-0.275000X-0.350000X0.275000X-0.350000X0.275000X0.350000X-0.275000X0.350000X0*%
%ADD52C,2.200000*%
G04 APERTURE END LIST*
D10*
X94254510Y-139586542D02*
X94254510Y-140300828D01*
X93821177Y-138800828D02*
X94254510Y-139586542D01*
X94254510Y-139586542D02*
X94687844Y-138800828D01*
X95306892Y-140300828D02*
X95183082Y-140229400D01*
X95183082Y-140229400D02*
X95121177Y-140157971D01*
X95121177Y-140157971D02*
X95059273Y-140015114D01*
X95059273Y-140015114D02*
X95059273Y-139586542D01*
X95059273Y-139586542D02*
X95121177Y-139443685D01*
X95121177Y-139443685D02*
X95183082Y-139372257D01*
X95183082Y-139372257D02*
X95306892Y-139300828D01*
X95306892Y-139300828D02*
X95492606Y-139300828D01*
X95492606Y-139300828D02*
X95616415Y-139372257D01*
X95616415Y-139372257D02*
X95678320Y-139443685D01*
X95678320Y-139443685D02*
X95740225Y-139586542D01*
X95740225Y-139586542D02*
X95740225Y-140015114D01*
X95740225Y-140015114D02*
X95678320Y-140157971D01*
X95678320Y-140157971D02*
X95616415Y-140229400D01*
X95616415Y-140229400D02*
X95492606Y-140300828D01*
X95492606Y-140300828D02*
X95306892Y-140300828D01*
X96297367Y-140300828D02*
X96297367Y-139300828D01*
X96297367Y-139443685D02*
X96359272Y-139372257D01*
X96359272Y-139372257D02*
X96483082Y-139300828D01*
X96483082Y-139300828D02*
X96668796Y-139300828D01*
X96668796Y-139300828D02*
X96792605Y-139372257D01*
X96792605Y-139372257D02*
X96854510Y-139515114D01*
X96854510Y-139515114D02*
X96854510Y-140300828D01*
X96854510Y-139515114D02*
X96916415Y-139372257D01*
X96916415Y-139372257D02*
X97040224Y-139300828D01*
X97040224Y-139300828D02*
X97225939Y-139300828D01*
X97225939Y-139300828D02*
X97349748Y-139372257D01*
X97349748Y-139372257D02*
X97411653Y-139515114D01*
X97411653Y-139515114D02*
X97411653Y-140300828D01*
X98216415Y-140300828D02*
X98092605Y-140229400D01*
X98092605Y-140229400D02*
X98030700Y-140157971D01*
X98030700Y-140157971D02*
X97968796Y-140015114D01*
X97968796Y-140015114D02*
X97968796Y-139586542D01*
X97968796Y-139586542D02*
X98030700Y-139443685D01*
X98030700Y-139443685D02*
X98092605Y-139372257D01*
X98092605Y-139372257D02*
X98216415Y-139300828D01*
X98216415Y-139300828D02*
X98402129Y-139300828D01*
X98402129Y-139300828D02*
X98525938Y-139372257D01*
X98525938Y-139372257D02*
X98587843Y-139443685D01*
X98587843Y-139443685D02*
X98649748Y-139586542D01*
X98649748Y-139586542D02*
X98649748Y-140015114D01*
X98649748Y-140015114D02*
X98587843Y-140157971D01*
X98587843Y-140157971D02*
X98525938Y-140229400D01*
X98525938Y-140229400D02*
X98402129Y-140300828D01*
X98402129Y-140300828D02*
X98216415Y-140300828D01*
X99887843Y-138872257D02*
X99764033Y-138800828D01*
X99764033Y-138800828D02*
X99578319Y-138800828D01*
X99578319Y-138800828D02*
X99392605Y-138872257D01*
X99392605Y-138872257D02*
X99268795Y-139015114D01*
X99268795Y-139015114D02*
X99206890Y-139157971D01*
X99206890Y-139157971D02*
X99144986Y-139443685D01*
X99144986Y-139443685D02*
X99144986Y-139657971D01*
X99144986Y-139657971D02*
X99206890Y-139943685D01*
X99206890Y-139943685D02*
X99268795Y-140086542D01*
X99268795Y-140086542D02*
X99392605Y-140229400D01*
X99392605Y-140229400D02*
X99578319Y-140300828D01*
X99578319Y-140300828D02*
X99702128Y-140300828D01*
X99702128Y-140300828D02*
X99887843Y-140229400D01*
X99887843Y-140229400D02*
X99949747Y-140157971D01*
X99949747Y-140157971D02*
X99949747Y-139657971D01*
X99949747Y-139657971D02*
X99702128Y-139657971D01*
X101064033Y-140300828D02*
X101064033Y-139515114D01*
X101064033Y-139515114D02*
X101002128Y-139372257D01*
X101002128Y-139372257D02*
X100878319Y-139300828D01*
X100878319Y-139300828D02*
X100630700Y-139300828D01*
X100630700Y-139300828D02*
X100506890Y-139372257D01*
X101064033Y-140229400D02*
X100940224Y-140300828D01*
X100940224Y-140300828D02*
X100630700Y-140300828D01*
X100630700Y-140300828D02*
X100506890Y-140229400D01*
X100506890Y-140229400D02*
X100444986Y-140086542D01*
X100444986Y-140086542D02*
X100444986Y-139943685D01*
X100444986Y-139943685D02*
X100506890Y-139800828D01*
X100506890Y-139800828D02*
X100630700Y-139729400D01*
X100630700Y-139729400D02*
X100940224Y-139729400D01*
X100940224Y-139729400D02*
X101064033Y-139657971D01*
X101683080Y-140300828D02*
X101683080Y-139300828D01*
X101683080Y-139443685D02*
X101744985Y-139372257D01*
X101744985Y-139372257D02*
X101868795Y-139300828D01*
X101868795Y-139300828D02*
X102054509Y-139300828D01*
X102054509Y-139300828D02*
X102178318Y-139372257D01*
X102178318Y-139372257D02*
X102240223Y-139515114D01*
X102240223Y-139515114D02*
X102240223Y-140300828D01*
X102240223Y-139515114D02*
X102302128Y-139372257D01*
X102302128Y-139372257D02*
X102425937Y-139300828D01*
X102425937Y-139300828D02*
X102611652Y-139300828D01*
X102611652Y-139300828D02*
X102735461Y-139372257D01*
X102735461Y-139372257D02*
X102797366Y-139515114D01*
X102797366Y-139515114D02*
X102797366Y-140300828D01*
X103911651Y-140229400D02*
X103787842Y-140300828D01*
X103787842Y-140300828D02*
X103540223Y-140300828D01*
X103540223Y-140300828D02*
X103416413Y-140229400D01*
X103416413Y-140229400D02*
X103354509Y-140086542D01*
X103354509Y-140086542D02*
X103354509Y-139515114D01*
X103354509Y-139515114D02*
X103416413Y-139372257D01*
X103416413Y-139372257D02*
X103540223Y-139300828D01*
X103540223Y-139300828D02*
X103787842Y-139300828D01*
X103787842Y-139300828D02*
X103911651Y-139372257D01*
X103911651Y-139372257D02*
X103973556Y-139515114D01*
X103973556Y-139515114D02*
X103973556Y-139657971D01*
X103973556Y-139657971D02*
X103354509Y-139800828D01*
X105521175Y-140300828D02*
X105521175Y-138800828D01*
X105521175Y-139372257D02*
X105644985Y-139300828D01*
X105644985Y-139300828D02*
X105892604Y-139300828D01*
X105892604Y-139300828D02*
X106016413Y-139372257D01*
X106016413Y-139372257D02*
X106078318Y-139443685D01*
X106078318Y-139443685D02*
X106140223Y-139586542D01*
X106140223Y-139586542D02*
X106140223Y-140015114D01*
X106140223Y-140015114D02*
X106078318Y-140157971D01*
X106078318Y-140157971D02*
X106016413Y-140229400D01*
X106016413Y-140229400D02*
X105892604Y-140300828D01*
X105892604Y-140300828D02*
X105644985Y-140300828D01*
X105644985Y-140300828D02*
X105521175Y-140229400D01*
X106573556Y-139300828D02*
X106883080Y-140300828D01*
X107192603Y-139300828D02*
X106883080Y-140300828D01*
X106883080Y-140300828D02*
X106759270Y-140657971D01*
X106759270Y-140657971D02*
X106697365Y-140729400D01*
X106697365Y-140729400D02*
X106573556Y-140800828D01*
X108678317Y-140300828D02*
X108678317Y-138800828D01*
X108678317Y-139515114D02*
X109421174Y-139515114D01*
X109421174Y-140300828D02*
X109421174Y-138800828D01*
X110040222Y-140300828D02*
X110040222Y-139300828D01*
X110040222Y-138800828D02*
X109978318Y-138872257D01*
X109978318Y-138872257D02*
X110040222Y-138943685D01*
X110040222Y-138943685D02*
X110102127Y-138872257D01*
X110102127Y-138872257D02*
X110040222Y-138800828D01*
X110040222Y-138800828D02*
X110040222Y-138943685D01*
X111216413Y-140300828D02*
X111216413Y-138800828D01*
X111216413Y-140229400D02*
X111092604Y-140300828D01*
X111092604Y-140300828D02*
X110844985Y-140300828D01*
X110844985Y-140300828D02*
X110721175Y-140229400D01*
X110721175Y-140229400D02*
X110659270Y-140157971D01*
X110659270Y-140157971D02*
X110597366Y-140015114D01*
X110597366Y-140015114D02*
X110597366Y-139586542D01*
X110597366Y-139586542D02*
X110659270Y-139443685D01*
X110659270Y-139443685D02*
X110721175Y-139372257D01*
X110721175Y-139372257D02*
X110844985Y-139300828D01*
X110844985Y-139300828D02*
X111092604Y-139300828D01*
X111092604Y-139300828D02*
X111216413Y-139372257D01*
X112330698Y-140229400D02*
X112206889Y-140300828D01*
X112206889Y-140300828D02*
X111959270Y-140300828D01*
X111959270Y-140300828D02*
X111835460Y-140229400D01*
X111835460Y-140229400D02*
X111773556Y-140086542D01*
X111773556Y-140086542D02*
X111773556Y-139515114D01*
X111773556Y-139515114D02*
X111835460Y-139372257D01*
X111835460Y-139372257D02*
X111959270Y-139300828D01*
X111959270Y-139300828D02*
X112206889Y-139300828D01*
X112206889Y-139300828D02*
X112330698Y-139372257D01*
X112330698Y-139372257D02*
X112392603Y-139515114D01*
X112392603Y-139515114D02*
X112392603Y-139657971D01*
X112392603Y-139657971D02*
X111773556Y-139800828D01*
X112764032Y-139300828D02*
X113259270Y-139300828D01*
X112949746Y-138800828D02*
X112949746Y-140086542D01*
X112949746Y-140086542D02*
X113011651Y-140229400D01*
X113011651Y-140229400D02*
X113135461Y-140300828D01*
X113135461Y-140300828D02*
X113259270Y-140300828D01*
X114249746Y-140300828D02*
X114249746Y-139515114D01*
X114249746Y-139515114D02*
X114187841Y-139372257D01*
X114187841Y-139372257D02*
X114064032Y-139300828D01*
X114064032Y-139300828D02*
X113816413Y-139300828D01*
X113816413Y-139300828D02*
X113692603Y-139372257D01*
X114249746Y-140229400D02*
X114125937Y-140300828D01*
X114125937Y-140300828D02*
X113816413Y-140300828D01*
X113816413Y-140300828D02*
X113692603Y-140229400D01*
X113692603Y-140229400D02*
X113630699Y-140086542D01*
X113630699Y-140086542D02*
X113630699Y-139943685D01*
X113630699Y-139943685D02*
X113692603Y-139800828D01*
X113692603Y-139800828D02*
X113816413Y-139729400D01*
X113816413Y-139729400D02*
X114125937Y-139729400D01*
X114125937Y-139729400D02*
X114249746Y-139657971D01*
X114683079Y-139300828D02*
X115178317Y-139300828D01*
X114868793Y-138800828D02*
X114868793Y-140086542D01*
X114868793Y-140086542D02*
X114930698Y-140229400D01*
X114930698Y-140229400D02*
X115054508Y-140300828D01*
X115054508Y-140300828D02*
X115178317Y-140300828D01*
X115549746Y-140229400D02*
X115673555Y-140300828D01*
X115673555Y-140300828D02*
X115921174Y-140300828D01*
X115921174Y-140300828D02*
X116044984Y-140229400D01*
X116044984Y-140229400D02*
X116106888Y-140086542D01*
X116106888Y-140086542D02*
X116106888Y-140015114D01*
X116106888Y-140015114D02*
X116044984Y-139872257D01*
X116044984Y-139872257D02*
X115921174Y-139800828D01*
X115921174Y-139800828D02*
X115735460Y-139800828D01*
X115735460Y-139800828D02*
X115611650Y-139729400D01*
X115611650Y-139729400D02*
X115549746Y-139586542D01*
X115549746Y-139586542D02*
X115549746Y-139515114D01*
X115549746Y-139515114D02*
X115611650Y-139372257D01*
X115611650Y-139372257D02*
X115735460Y-139300828D01*
X115735460Y-139300828D02*
X115921174Y-139300828D01*
X115921174Y-139300828D02*
X116044984Y-139372257D01*
X117221174Y-139300828D02*
X117221174Y-140300828D01*
X116664031Y-139300828D02*
X116664031Y-140086542D01*
X116664031Y-140086542D02*
X116725936Y-140229400D01*
X116725936Y-140229400D02*
X116849746Y-140300828D01*
X116849746Y-140300828D02*
X117035460Y-140300828D01*
X117035460Y-140300828D02*
X117159269Y-140229400D01*
X117159269Y-140229400D02*
X117221174Y-140157971D01*
D11*
X130304819Y-65142857D02*
X129828628Y-65476190D01*
X130304819Y-65714285D02*
X129304819Y-65714285D01*
X129304819Y-65714285D02*
X129304819Y-65333333D01*
X129304819Y-65333333D02*
X129352438Y-65238095D01*
X129352438Y-65238095D02*
X129400057Y-65190476D01*
X129400057Y-65190476D02*
X129495295Y-65142857D01*
X129495295Y-65142857D02*
X129638152Y-65142857D01*
X129638152Y-65142857D02*
X129733390Y-65190476D01*
X129733390Y-65190476D02*
X129781009Y-65238095D01*
X129781009Y-65238095D02*
X129828628Y-65333333D01*
X129828628Y-65333333D02*
X129828628Y-65714285D01*
X130304819Y-64190476D02*
X130304819Y-64761904D01*
X130304819Y-64476190D02*
X129304819Y-64476190D01*
X129304819Y-64476190D02*
X129447676Y-64571428D01*
X129447676Y-64571428D02*
X129542914Y-64666666D01*
X129542914Y-64666666D02*
X129590533Y-64761904D01*
X129304819Y-63571428D02*
X129304819Y-63476190D01*
X129304819Y-63476190D02*
X129352438Y-63380952D01*
X129352438Y-63380952D02*
X129400057Y-63333333D01*
X129400057Y-63333333D02*
X129495295Y-63285714D01*
X129495295Y-63285714D02*
X129685771Y-63238095D01*
X129685771Y-63238095D02*
X129923866Y-63238095D01*
X129923866Y-63238095D02*
X130114342Y-63285714D01*
X130114342Y-63285714D02*
X130209580Y-63333333D01*
X130209580Y-63333333D02*
X130257200Y-63380952D01*
X130257200Y-63380952D02*
X130304819Y-63476190D01*
X130304819Y-63476190D02*
X130304819Y-63571428D01*
X130304819Y-63571428D02*
X130257200Y-63666666D01*
X130257200Y-63666666D02*
X130209580Y-63714285D01*
X130209580Y-63714285D02*
X130114342Y-63761904D01*
X130114342Y-63761904D02*
X129923866Y-63809523D01*
X129923866Y-63809523D02*
X129685771Y-63809523D01*
X129685771Y-63809523D02*
X129495295Y-63761904D01*
X129495295Y-63761904D02*
X129400057Y-63714285D01*
X129400057Y-63714285D02*
X129352438Y-63666666D01*
X129352438Y-63666666D02*
X129304819Y-63571428D01*
X112404761Y-69300057D02*
X112309523Y-69252438D01*
X112309523Y-69252438D02*
X112214285Y-69157200D01*
X112214285Y-69157200D02*
X112071428Y-69014342D01*
X112071428Y-69014342D02*
X111976190Y-68966723D01*
X111976190Y-68966723D02*
X111880952Y-68966723D01*
X111928571Y-69204819D02*
X111833333Y-69157200D01*
X111833333Y-69157200D02*
X111738095Y-69061961D01*
X111738095Y-69061961D02*
X111690476Y-68871485D01*
X111690476Y-68871485D02*
X111690476Y-68538152D01*
X111690476Y-68538152D02*
X111738095Y-68347676D01*
X111738095Y-68347676D02*
X111833333Y-68252438D01*
X111833333Y-68252438D02*
X111928571Y-68204819D01*
X111928571Y-68204819D02*
X112119047Y-68204819D01*
X112119047Y-68204819D02*
X112214285Y-68252438D01*
X112214285Y-68252438D02*
X112309523Y-68347676D01*
X112309523Y-68347676D02*
X112357142Y-68538152D01*
X112357142Y-68538152D02*
X112357142Y-68871485D01*
X112357142Y-68871485D02*
X112309523Y-69061961D01*
X112309523Y-69061961D02*
X112214285Y-69157200D01*
X112214285Y-69157200D02*
X112119047Y-69204819D01*
X112119047Y-69204819D02*
X111928571Y-69204819D01*
X113309523Y-69204819D02*
X112738095Y-69204819D01*
X113023809Y-69204819D02*
X113023809Y-68204819D01*
X113023809Y-68204819D02*
X112928571Y-68347676D01*
X112928571Y-68347676D02*
X112833333Y-68442914D01*
X112833333Y-68442914D02*
X112738095Y-68490533D01*
X153179580Y-59142857D02*
X153227200Y-59190476D01*
X153227200Y-59190476D02*
X153274819Y-59333333D01*
X153274819Y-59333333D02*
X153274819Y-59428571D01*
X153274819Y-59428571D02*
X153227200Y-59571428D01*
X153227200Y-59571428D02*
X153131961Y-59666666D01*
X153131961Y-59666666D02*
X153036723Y-59714285D01*
X153036723Y-59714285D02*
X152846247Y-59761904D01*
X152846247Y-59761904D02*
X152703390Y-59761904D01*
X152703390Y-59761904D02*
X152512914Y-59714285D01*
X152512914Y-59714285D02*
X152417676Y-59666666D01*
X152417676Y-59666666D02*
X152322438Y-59571428D01*
X152322438Y-59571428D02*
X152274819Y-59428571D01*
X152274819Y-59428571D02*
X152274819Y-59333333D01*
X152274819Y-59333333D02*
X152322438Y-59190476D01*
X152322438Y-59190476D02*
X152370057Y-59142857D01*
X153274819Y-58190476D02*
X153274819Y-58761904D01*
X153274819Y-58476190D02*
X152274819Y-58476190D01*
X152274819Y-58476190D02*
X152417676Y-58571428D01*
X152417676Y-58571428D02*
X152512914Y-58666666D01*
X152512914Y-58666666D02*
X152560533Y-58761904D01*
X152274819Y-57571428D02*
X152274819Y-57476190D01*
X152274819Y-57476190D02*
X152322438Y-57380952D01*
X152322438Y-57380952D02*
X152370057Y-57333333D01*
X152370057Y-57333333D02*
X152465295Y-57285714D01*
X152465295Y-57285714D02*
X152655771Y-57238095D01*
X152655771Y-57238095D02*
X152893866Y-57238095D01*
X152893866Y-57238095D02*
X153084342Y-57285714D01*
X153084342Y-57285714D02*
X153179580Y-57333333D01*
X153179580Y-57333333D02*
X153227200Y-57380952D01*
X153227200Y-57380952D02*
X153274819Y-57476190D01*
X153274819Y-57476190D02*
X153274819Y-57571428D01*
X153274819Y-57571428D02*
X153227200Y-57666666D01*
X153227200Y-57666666D02*
X153179580Y-57714285D01*
X153179580Y-57714285D02*
X153084342Y-57761904D01*
X153084342Y-57761904D02*
X152893866Y-57809523D01*
X152893866Y-57809523D02*
X152655771Y-57809523D01*
X152655771Y-57809523D02*
X152465295Y-57761904D01*
X152465295Y-57761904D02*
X152370057Y-57714285D01*
X152370057Y-57714285D02*
X152322438Y-57666666D01*
X152322438Y-57666666D02*
X152274819Y-57571428D01*
X141104819Y-119642857D02*
X140628628Y-119976190D01*
X141104819Y-120214285D02*
X140104819Y-120214285D01*
X140104819Y-120214285D02*
X140104819Y-119833333D01*
X140104819Y-119833333D02*
X140152438Y-119738095D01*
X140152438Y-119738095D02*
X140200057Y-119690476D01*
X140200057Y-119690476D02*
X140295295Y-119642857D01*
X140295295Y-119642857D02*
X140438152Y-119642857D01*
X140438152Y-119642857D02*
X140533390Y-119690476D01*
X140533390Y-119690476D02*
X140581009Y-119738095D01*
X140581009Y-119738095D02*
X140628628Y-119833333D01*
X140628628Y-119833333D02*
X140628628Y-120214285D01*
X141104819Y-118690476D02*
X141104819Y-119261904D01*
X141104819Y-118976190D02*
X140104819Y-118976190D01*
X140104819Y-118976190D02*
X140247676Y-119071428D01*
X140247676Y-119071428D02*
X140342914Y-119166666D01*
X140342914Y-119166666D02*
X140390533Y-119261904D01*
X140200057Y-118309523D02*
X140152438Y-118261904D01*
X140152438Y-118261904D02*
X140104819Y-118166666D01*
X140104819Y-118166666D02*
X140104819Y-117928571D01*
X140104819Y-117928571D02*
X140152438Y-117833333D01*
X140152438Y-117833333D02*
X140200057Y-117785714D01*
X140200057Y-117785714D02*
X140295295Y-117738095D01*
X140295295Y-117738095D02*
X140390533Y-117738095D01*
X140390533Y-117738095D02*
X140533390Y-117785714D01*
X140533390Y-117785714D02*
X141104819Y-118357142D01*
X141104819Y-118357142D02*
X141104819Y-117738095D01*
X128804819Y-124704166D02*
X128328628Y-125037499D01*
X128804819Y-125275594D02*
X127804819Y-125275594D01*
X127804819Y-125275594D02*
X127804819Y-124894642D01*
X127804819Y-124894642D02*
X127852438Y-124799404D01*
X127852438Y-124799404D02*
X127900057Y-124751785D01*
X127900057Y-124751785D02*
X127995295Y-124704166D01*
X127995295Y-124704166D02*
X128138152Y-124704166D01*
X128138152Y-124704166D02*
X128233390Y-124751785D01*
X128233390Y-124751785D02*
X128281009Y-124799404D01*
X128281009Y-124799404D02*
X128328628Y-124894642D01*
X128328628Y-124894642D02*
X128328628Y-125275594D01*
X127804819Y-123799404D02*
X127804819Y-124275594D01*
X127804819Y-124275594D02*
X128281009Y-124323213D01*
X128281009Y-124323213D02*
X128233390Y-124275594D01*
X128233390Y-124275594D02*
X128185771Y-124180356D01*
X128185771Y-124180356D02*
X128185771Y-123942261D01*
X128185771Y-123942261D02*
X128233390Y-123847023D01*
X128233390Y-123847023D02*
X128281009Y-123799404D01*
X128281009Y-123799404D02*
X128376247Y-123751785D01*
X128376247Y-123751785D02*
X128614342Y-123751785D01*
X128614342Y-123751785D02*
X128709580Y-123799404D01*
X128709580Y-123799404D02*
X128757200Y-123847023D01*
X128757200Y-123847023D02*
X128804819Y-123942261D01*
X128804819Y-123942261D02*
X128804819Y-124180356D01*
X128804819Y-124180356D02*
X128757200Y-124275594D01*
X128757200Y-124275594D02*
X128709580Y-124323213D01*
X113804819Y-75666666D02*
X113328628Y-75999999D01*
X113804819Y-76238094D02*
X112804819Y-76238094D01*
X112804819Y-76238094D02*
X112804819Y-75857142D01*
X112804819Y-75857142D02*
X112852438Y-75761904D01*
X112852438Y-75761904D02*
X112900057Y-75714285D01*
X112900057Y-75714285D02*
X112995295Y-75666666D01*
X112995295Y-75666666D02*
X113138152Y-75666666D01*
X113138152Y-75666666D02*
X113233390Y-75714285D01*
X113233390Y-75714285D02*
X113281009Y-75761904D01*
X113281009Y-75761904D02*
X113328628Y-75857142D01*
X113328628Y-75857142D02*
X113328628Y-76238094D01*
X113233390Y-75095237D02*
X113185771Y-75190475D01*
X113185771Y-75190475D02*
X113138152Y-75238094D01*
X113138152Y-75238094D02*
X113042914Y-75285713D01*
X113042914Y-75285713D02*
X112995295Y-75285713D01*
X112995295Y-75285713D02*
X112900057Y-75238094D01*
X112900057Y-75238094D02*
X112852438Y-75190475D01*
X112852438Y-75190475D02*
X112804819Y-75095237D01*
X112804819Y-75095237D02*
X112804819Y-74904761D01*
X112804819Y-74904761D02*
X112852438Y-74809523D01*
X112852438Y-74809523D02*
X112900057Y-74761904D01*
X112900057Y-74761904D02*
X112995295Y-74714285D01*
X112995295Y-74714285D02*
X113042914Y-74714285D01*
X113042914Y-74714285D02*
X113138152Y-74761904D01*
X113138152Y-74761904D02*
X113185771Y-74809523D01*
X113185771Y-74809523D02*
X113233390Y-74904761D01*
X113233390Y-74904761D02*
X113233390Y-75095237D01*
X113233390Y-75095237D02*
X113281009Y-75190475D01*
X113281009Y-75190475D02*
X113328628Y-75238094D01*
X113328628Y-75238094D02*
X113423866Y-75285713D01*
X113423866Y-75285713D02*
X113614342Y-75285713D01*
X113614342Y-75285713D02*
X113709580Y-75238094D01*
X113709580Y-75238094D02*
X113757200Y-75190475D01*
X113757200Y-75190475D02*
X113804819Y-75095237D01*
X113804819Y-75095237D02*
X113804819Y-74904761D01*
X113804819Y-74904761D02*
X113757200Y-74809523D01*
X113757200Y-74809523D02*
X113709580Y-74761904D01*
X113709580Y-74761904D02*
X113614342Y-74714285D01*
X113614342Y-74714285D02*
X113423866Y-74714285D01*
X113423866Y-74714285D02*
X113328628Y-74761904D01*
X113328628Y-74761904D02*
X113281009Y-74809523D01*
X113281009Y-74809523D02*
X113233390Y-74904761D01*
X93273809Y-46157200D02*
X93416666Y-46204819D01*
X93416666Y-46204819D02*
X93654761Y-46204819D01*
X93654761Y-46204819D02*
X93749999Y-46157200D01*
X93749999Y-46157200D02*
X93797618Y-46109580D01*
X93797618Y-46109580D02*
X93845237Y-46014342D01*
X93845237Y-46014342D02*
X93845237Y-45919104D01*
X93845237Y-45919104D02*
X93797618Y-45823866D01*
X93797618Y-45823866D02*
X93749999Y-45776247D01*
X93749999Y-45776247D02*
X93654761Y-45728628D01*
X93654761Y-45728628D02*
X93464285Y-45681009D01*
X93464285Y-45681009D02*
X93369047Y-45633390D01*
X93369047Y-45633390D02*
X93321428Y-45585771D01*
X93321428Y-45585771D02*
X93273809Y-45490533D01*
X93273809Y-45490533D02*
X93273809Y-45395295D01*
X93273809Y-45395295D02*
X93321428Y-45300057D01*
X93321428Y-45300057D02*
X93369047Y-45252438D01*
X93369047Y-45252438D02*
X93464285Y-45204819D01*
X93464285Y-45204819D02*
X93702380Y-45204819D01*
X93702380Y-45204819D02*
X93845237Y-45252438D01*
X94178571Y-45204819D02*
X94416666Y-46204819D01*
X94416666Y-46204819D02*
X94607142Y-45490533D01*
X94607142Y-45490533D02*
X94797618Y-46204819D01*
X94797618Y-46204819D02*
X95035714Y-45204819D01*
X95178571Y-46300057D02*
X95940475Y-46300057D01*
X96749999Y-46204819D02*
X96416666Y-45728628D01*
X96178571Y-46204819D02*
X96178571Y-45204819D01*
X96178571Y-45204819D02*
X96559523Y-45204819D01*
X96559523Y-45204819D02*
X96654761Y-45252438D01*
X96654761Y-45252438D02*
X96702380Y-45300057D01*
X96702380Y-45300057D02*
X96749999Y-45395295D01*
X96749999Y-45395295D02*
X96749999Y-45538152D01*
X96749999Y-45538152D02*
X96702380Y-45633390D01*
X96702380Y-45633390D02*
X96654761Y-45681009D01*
X96654761Y-45681009D02*
X96559523Y-45728628D01*
X96559523Y-45728628D02*
X96178571Y-45728628D01*
X97178571Y-45681009D02*
X97511904Y-45681009D01*
X97654761Y-46204819D02*
X97178571Y-46204819D01*
X97178571Y-46204819D02*
X97178571Y-45204819D01*
X97178571Y-45204819D02*
X97654761Y-45204819D01*
X98035714Y-46157200D02*
X98178571Y-46204819D01*
X98178571Y-46204819D02*
X98416666Y-46204819D01*
X98416666Y-46204819D02*
X98511904Y-46157200D01*
X98511904Y-46157200D02*
X98559523Y-46109580D01*
X98559523Y-46109580D02*
X98607142Y-46014342D01*
X98607142Y-46014342D02*
X98607142Y-45919104D01*
X98607142Y-45919104D02*
X98559523Y-45823866D01*
X98559523Y-45823866D02*
X98511904Y-45776247D01*
X98511904Y-45776247D02*
X98416666Y-45728628D01*
X98416666Y-45728628D02*
X98226190Y-45681009D01*
X98226190Y-45681009D02*
X98130952Y-45633390D01*
X98130952Y-45633390D02*
X98083333Y-45585771D01*
X98083333Y-45585771D02*
X98035714Y-45490533D01*
X98035714Y-45490533D02*
X98035714Y-45395295D01*
X98035714Y-45395295D02*
X98083333Y-45300057D01*
X98083333Y-45300057D02*
X98130952Y-45252438D01*
X98130952Y-45252438D02*
X98226190Y-45204819D01*
X98226190Y-45204819D02*
X98464285Y-45204819D01*
X98464285Y-45204819D02*
X98607142Y-45252438D01*
X99035714Y-45681009D02*
X99369047Y-45681009D01*
X99511904Y-46204819D02*
X99035714Y-46204819D01*
X99035714Y-46204819D02*
X99035714Y-45204819D01*
X99035714Y-45204819D02*
X99511904Y-45204819D01*
X99797619Y-45204819D02*
X100369047Y-45204819D01*
X100083333Y-46204819D02*
X100083333Y-45204819D01*
X101226190Y-46204819D02*
X100654762Y-46204819D01*
X100940476Y-46204819D02*
X100940476Y-45204819D01*
X100940476Y-45204819D02*
X100845238Y-45347676D01*
X100845238Y-45347676D02*
X100750000Y-45442914D01*
X100750000Y-45442914D02*
X100654762Y-45490533D01*
X184354819Y-130023809D02*
X185069104Y-130023809D01*
X185069104Y-130023809D02*
X185211961Y-130071428D01*
X185211961Y-130071428D02*
X185307200Y-130166666D01*
X185307200Y-130166666D02*
X185354819Y-130309523D01*
X185354819Y-130309523D02*
X185354819Y-130404761D01*
X185450057Y-129785714D02*
X185450057Y-129023809D01*
X184831009Y-128452380D02*
X184878628Y-128309523D01*
X184878628Y-128309523D02*
X184926247Y-128261904D01*
X184926247Y-128261904D02*
X185021485Y-128214285D01*
X185021485Y-128214285D02*
X185164342Y-128214285D01*
X185164342Y-128214285D02*
X185259580Y-128261904D01*
X185259580Y-128261904D02*
X185307200Y-128309523D01*
X185307200Y-128309523D02*
X185354819Y-128404761D01*
X185354819Y-128404761D02*
X185354819Y-128785713D01*
X185354819Y-128785713D02*
X184354819Y-128785713D01*
X184354819Y-128785713D02*
X184354819Y-128452380D01*
X184354819Y-128452380D02*
X184402438Y-128357142D01*
X184402438Y-128357142D02*
X184450057Y-128309523D01*
X184450057Y-128309523D02*
X184545295Y-128261904D01*
X184545295Y-128261904D02*
X184640533Y-128261904D01*
X184640533Y-128261904D02*
X184735771Y-128309523D01*
X184735771Y-128309523D02*
X184783390Y-128357142D01*
X184783390Y-128357142D02*
X184831009Y-128452380D01*
X184831009Y-128452380D02*
X184831009Y-128785713D01*
X185069104Y-127833332D02*
X185069104Y-127357142D01*
X185354819Y-127928570D02*
X184354819Y-127595237D01*
X184354819Y-127595237D02*
X185354819Y-127261904D01*
X184354819Y-127071427D02*
X184354819Y-126499999D01*
X185354819Y-126785713D02*
X184354819Y-126785713D01*
X185354819Y-125642856D02*
X185354819Y-126214284D01*
X185354819Y-125928570D02*
X184354819Y-125928570D01*
X184354819Y-125928570D02*
X184497676Y-126023808D01*
X184497676Y-126023808D02*
X184592914Y-126119046D01*
X184592914Y-126119046D02*
X184640533Y-126214284D01*
X91039580Y-132642857D02*
X91087200Y-132690476D01*
X91087200Y-132690476D02*
X91134819Y-132833333D01*
X91134819Y-132833333D02*
X91134819Y-132928571D01*
X91134819Y-132928571D02*
X91087200Y-133071428D01*
X91087200Y-133071428D02*
X90991961Y-133166666D01*
X90991961Y-133166666D02*
X90896723Y-133214285D01*
X90896723Y-133214285D02*
X90706247Y-133261904D01*
X90706247Y-133261904D02*
X90563390Y-133261904D01*
X90563390Y-133261904D02*
X90372914Y-133214285D01*
X90372914Y-133214285D02*
X90277676Y-133166666D01*
X90277676Y-133166666D02*
X90182438Y-133071428D01*
X90182438Y-133071428D02*
X90134819Y-132928571D01*
X90134819Y-132928571D02*
X90134819Y-132833333D01*
X90134819Y-132833333D02*
X90182438Y-132690476D01*
X90182438Y-132690476D02*
X90230057Y-132642857D01*
X91134819Y-131690476D02*
X91134819Y-132261904D01*
X91134819Y-131976190D02*
X90134819Y-131976190D01*
X90134819Y-131976190D02*
X90277676Y-132071428D01*
X90277676Y-132071428D02*
X90372914Y-132166666D01*
X90372914Y-132166666D02*
X90420533Y-132261904D01*
X90134819Y-130833333D02*
X90134819Y-131023809D01*
X90134819Y-131023809D02*
X90182438Y-131119047D01*
X90182438Y-131119047D02*
X90230057Y-131166666D01*
X90230057Y-131166666D02*
X90372914Y-131261904D01*
X90372914Y-131261904D02*
X90563390Y-131309523D01*
X90563390Y-131309523D02*
X90944342Y-131309523D01*
X90944342Y-131309523D02*
X91039580Y-131261904D01*
X91039580Y-131261904D02*
X91087200Y-131214285D01*
X91087200Y-131214285D02*
X91134819Y-131119047D01*
X91134819Y-131119047D02*
X91134819Y-130928571D01*
X91134819Y-130928571D02*
X91087200Y-130833333D01*
X91087200Y-130833333D02*
X91039580Y-130785714D01*
X91039580Y-130785714D02*
X90944342Y-130738095D01*
X90944342Y-130738095D02*
X90706247Y-130738095D01*
X90706247Y-130738095D02*
X90611009Y-130785714D01*
X90611009Y-130785714D02*
X90563390Y-130833333D01*
X90563390Y-130833333D02*
X90515771Y-130928571D01*
X90515771Y-130928571D02*
X90515771Y-131119047D01*
X90515771Y-131119047D02*
X90563390Y-131214285D01*
X90563390Y-131214285D02*
X90611009Y-131261904D01*
X90611009Y-131261904D02*
X90706247Y-131309523D01*
X111661904Y-97145180D02*
X111661904Y-96335657D01*
X111661904Y-96335657D02*
X111614285Y-96240419D01*
X111614285Y-96240419D02*
X111566666Y-96192800D01*
X111566666Y-96192800D02*
X111471428Y-96145180D01*
X111471428Y-96145180D02*
X111280952Y-96145180D01*
X111280952Y-96145180D02*
X111185714Y-96192800D01*
X111185714Y-96192800D02*
X111138095Y-96240419D01*
X111138095Y-96240419D02*
X111090476Y-96335657D01*
X111090476Y-96335657D02*
X111090476Y-97145180D01*
X110090476Y-96145180D02*
X110661904Y-96145180D01*
X110376190Y-96145180D02*
X110376190Y-97145180D01*
X110376190Y-97145180D02*
X110471428Y-97002323D01*
X110471428Y-97002323D02*
X110566666Y-96907085D01*
X110566666Y-96907085D02*
X110661904Y-96859466D01*
X140679580Y-58704166D02*
X140727200Y-58751785D01*
X140727200Y-58751785D02*
X140774819Y-58894642D01*
X140774819Y-58894642D02*
X140774819Y-58989880D01*
X140774819Y-58989880D02*
X140727200Y-59132737D01*
X140727200Y-59132737D02*
X140631961Y-59227975D01*
X140631961Y-59227975D02*
X140536723Y-59275594D01*
X140536723Y-59275594D02*
X140346247Y-59323213D01*
X140346247Y-59323213D02*
X140203390Y-59323213D01*
X140203390Y-59323213D02*
X140012914Y-59275594D01*
X140012914Y-59275594D02*
X139917676Y-59227975D01*
X139917676Y-59227975D02*
X139822438Y-59132737D01*
X139822438Y-59132737D02*
X139774819Y-58989880D01*
X139774819Y-58989880D02*
X139774819Y-58894642D01*
X139774819Y-58894642D02*
X139822438Y-58751785D01*
X139822438Y-58751785D02*
X139870057Y-58704166D01*
X139774819Y-57799404D02*
X139774819Y-58275594D01*
X139774819Y-58275594D02*
X140251009Y-58323213D01*
X140251009Y-58323213D02*
X140203390Y-58275594D01*
X140203390Y-58275594D02*
X140155771Y-58180356D01*
X140155771Y-58180356D02*
X140155771Y-57942261D01*
X140155771Y-57942261D02*
X140203390Y-57847023D01*
X140203390Y-57847023D02*
X140251009Y-57799404D01*
X140251009Y-57799404D02*
X140346247Y-57751785D01*
X140346247Y-57751785D02*
X140584342Y-57751785D01*
X140584342Y-57751785D02*
X140679580Y-57799404D01*
X140679580Y-57799404D02*
X140727200Y-57847023D01*
X140727200Y-57847023D02*
X140774819Y-57942261D01*
X140774819Y-57942261D02*
X140774819Y-58180356D01*
X140774819Y-58180356D02*
X140727200Y-58275594D01*
X140727200Y-58275594D02*
X140679580Y-58323213D01*
X164104819Y-58611904D02*
X164914342Y-58611904D01*
X164914342Y-58611904D02*
X165009580Y-58564285D01*
X165009580Y-58564285D02*
X165057200Y-58516666D01*
X165057200Y-58516666D02*
X165104819Y-58421428D01*
X165104819Y-58421428D02*
X165104819Y-58230952D01*
X165104819Y-58230952D02*
X165057200Y-58135714D01*
X165057200Y-58135714D02*
X165009580Y-58088095D01*
X165009580Y-58088095D02*
X164914342Y-58040476D01*
X164914342Y-58040476D02*
X164104819Y-58040476D01*
X164104819Y-57659523D02*
X164104819Y-57040476D01*
X164104819Y-57040476D02*
X164485771Y-57373809D01*
X164485771Y-57373809D02*
X164485771Y-57230952D01*
X164485771Y-57230952D02*
X164533390Y-57135714D01*
X164533390Y-57135714D02*
X164581009Y-57088095D01*
X164581009Y-57088095D02*
X164676247Y-57040476D01*
X164676247Y-57040476D02*
X164914342Y-57040476D01*
X164914342Y-57040476D02*
X165009580Y-57088095D01*
X165009580Y-57088095D02*
X165057200Y-57135714D01*
X165057200Y-57135714D02*
X165104819Y-57230952D01*
X165104819Y-57230952D02*
X165104819Y-57516666D01*
X165104819Y-57516666D02*
X165057200Y-57611904D01*
X165057200Y-57611904D02*
X165009580Y-57659523D01*
X162894642Y-123039580D02*
X162847023Y-123087200D01*
X162847023Y-123087200D02*
X162704166Y-123134819D01*
X162704166Y-123134819D02*
X162608928Y-123134819D01*
X162608928Y-123134819D02*
X162466071Y-123087200D01*
X162466071Y-123087200D02*
X162370833Y-122991961D01*
X162370833Y-122991961D02*
X162323214Y-122896723D01*
X162323214Y-122896723D02*
X162275595Y-122706247D01*
X162275595Y-122706247D02*
X162275595Y-122563390D01*
X162275595Y-122563390D02*
X162323214Y-122372914D01*
X162323214Y-122372914D02*
X162370833Y-122277676D01*
X162370833Y-122277676D02*
X162466071Y-122182438D01*
X162466071Y-122182438D02*
X162608928Y-122134819D01*
X162608928Y-122134819D02*
X162704166Y-122134819D01*
X162704166Y-122134819D02*
X162847023Y-122182438D01*
X162847023Y-122182438D02*
X162894642Y-122230057D01*
X163275595Y-122230057D02*
X163323214Y-122182438D01*
X163323214Y-122182438D02*
X163418452Y-122134819D01*
X163418452Y-122134819D02*
X163656547Y-122134819D01*
X163656547Y-122134819D02*
X163751785Y-122182438D01*
X163751785Y-122182438D02*
X163799404Y-122230057D01*
X163799404Y-122230057D02*
X163847023Y-122325295D01*
X163847023Y-122325295D02*
X163847023Y-122420533D01*
X163847023Y-122420533D02*
X163799404Y-122563390D01*
X163799404Y-122563390D02*
X163227976Y-123134819D01*
X163227976Y-123134819D02*
X163847023Y-123134819D01*
X164751785Y-122134819D02*
X164275595Y-122134819D01*
X164275595Y-122134819D02*
X164227976Y-122611009D01*
X164227976Y-122611009D02*
X164275595Y-122563390D01*
X164275595Y-122563390D02*
X164370833Y-122515771D01*
X164370833Y-122515771D02*
X164608928Y-122515771D01*
X164608928Y-122515771D02*
X164704166Y-122563390D01*
X164704166Y-122563390D02*
X164751785Y-122611009D01*
X164751785Y-122611009D02*
X164799404Y-122706247D01*
X164799404Y-122706247D02*
X164799404Y-122944342D01*
X164799404Y-122944342D02*
X164751785Y-123039580D01*
X164751785Y-123039580D02*
X164704166Y-123087200D01*
X164704166Y-123087200D02*
X164608928Y-123134819D01*
X164608928Y-123134819D02*
X164370833Y-123134819D01*
X164370833Y-123134819D02*
X164275595Y-123087200D01*
X164275595Y-123087200D02*
X164227976Y-123039580D01*
X137539580Y-113680357D02*
X137587200Y-113727976D01*
X137587200Y-113727976D02*
X137634819Y-113870833D01*
X137634819Y-113870833D02*
X137634819Y-113966071D01*
X137634819Y-113966071D02*
X137587200Y-114108928D01*
X137587200Y-114108928D02*
X137491961Y-114204166D01*
X137491961Y-114204166D02*
X137396723Y-114251785D01*
X137396723Y-114251785D02*
X137206247Y-114299404D01*
X137206247Y-114299404D02*
X137063390Y-114299404D01*
X137063390Y-114299404D02*
X136872914Y-114251785D01*
X136872914Y-114251785D02*
X136777676Y-114204166D01*
X136777676Y-114204166D02*
X136682438Y-114108928D01*
X136682438Y-114108928D02*
X136634819Y-113966071D01*
X136634819Y-113966071D02*
X136634819Y-113870833D01*
X136634819Y-113870833D02*
X136682438Y-113727976D01*
X136682438Y-113727976D02*
X136730057Y-113680357D01*
X137634819Y-112727976D02*
X137634819Y-113299404D01*
X137634819Y-113013690D02*
X136634819Y-113013690D01*
X136634819Y-113013690D02*
X136777676Y-113108928D01*
X136777676Y-113108928D02*
X136872914Y-113204166D01*
X136872914Y-113204166D02*
X136920533Y-113299404D01*
X136730057Y-112347023D02*
X136682438Y-112299404D01*
X136682438Y-112299404D02*
X136634819Y-112204166D01*
X136634819Y-112204166D02*
X136634819Y-111966071D01*
X136634819Y-111966071D02*
X136682438Y-111870833D01*
X136682438Y-111870833D02*
X136730057Y-111823214D01*
X136730057Y-111823214D02*
X136825295Y-111775595D01*
X136825295Y-111775595D02*
X136920533Y-111775595D01*
X136920533Y-111775595D02*
X137063390Y-111823214D01*
X137063390Y-111823214D02*
X137634819Y-112394642D01*
X137634819Y-112394642D02*
X137634819Y-111775595D01*
X118333333Y-64304819D02*
X118000000Y-63828628D01*
X117761905Y-64304819D02*
X117761905Y-63304819D01*
X117761905Y-63304819D02*
X118142857Y-63304819D01*
X118142857Y-63304819D02*
X118238095Y-63352438D01*
X118238095Y-63352438D02*
X118285714Y-63400057D01*
X118285714Y-63400057D02*
X118333333Y-63495295D01*
X118333333Y-63495295D02*
X118333333Y-63638152D01*
X118333333Y-63638152D02*
X118285714Y-63733390D01*
X118285714Y-63733390D02*
X118238095Y-63781009D01*
X118238095Y-63781009D02*
X118142857Y-63828628D01*
X118142857Y-63828628D02*
X117761905Y-63828628D01*
X118666667Y-63304819D02*
X119333333Y-63304819D01*
X119333333Y-63304819D02*
X118904762Y-64304819D01*
X114039580Y-103180357D02*
X114087200Y-103227976D01*
X114087200Y-103227976D02*
X114134819Y-103370833D01*
X114134819Y-103370833D02*
X114134819Y-103466071D01*
X114134819Y-103466071D02*
X114087200Y-103608928D01*
X114087200Y-103608928D02*
X113991961Y-103704166D01*
X113991961Y-103704166D02*
X113896723Y-103751785D01*
X113896723Y-103751785D02*
X113706247Y-103799404D01*
X113706247Y-103799404D02*
X113563390Y-103799404D01*
X113563390Y-103799404D02*
X113372914Y-103751785D01*
X113372914Y-103751785D02*
X113277676Y-103704166D01*
X113277676Y-103704166D02*
X113182438Y-103608928D01*
X113182438Y-103608928D02*
X113134819Y-103466071D01*
X113134819Y-103466071D02*
X113134819Y-103370833D01*
X113134819Y-103370833D02*
X113182438Y-103227976D01*
X113182438Y-103227976D02*
X113230057Y-103180357D01*
X114134819Y-102227976D02*
X114134819Y-102799404D01*
X114134819Y-102513690D02*
X113134819Y-102513690D01*
X113134819Y-102513690D02*
X113277676Y-102608928D01*
X113277676Y-102608928D02*
X113372914Y-102704166D01*
X113372914Y-102704166D02*
X113420533Y-102799404D01*
X113468152Y-101370833D02*
X114134819Y-101370833D01*
X113087200Y-101608928D02*
X113801485Y-101847023D01*
X113801485Y-101847023D02*
X113801485Y-101227976D01*
X126304819Y-64666666D02*
X125828628Y-64999999D01*
X126304819Y-65238094D02*
X125304819Y-65238094D01*
X125304819Y-65238094D02*
X125304819Y-64857142D01*
X125304819Y-64857142D02*
X125352438Y-64761904D01*
X125352438Y-64761904D02*
X125400057Y-64714285D01*
X125400057Y-64714285D02*
X125495295Y-64666666D01*
X125495295Y-64666666D02*
X125638152Y-64666666D01*
X125638152Y-64666666D02*
X125733390Y-64714285D01*
X125733390Y-64714285D02*
X125781009Y-64761904D01*
X125781009Y-64761904D02*
X125828628Y-64857142D01*
X125828628Y-64857142D02*
X125828628Y-65238094D01*
X126304819Y-64190475D02*
X126304819Y-63999999D01*
X126304819Y-63999999D02*
X126257200Y-63904761D01*
X126257200Y-63904761D02*
X126209580Y-63857142D01*
X126209580Y-63857142D02*
X126066723Y-63761904D01*
X126066723Y-63761904D02*
X125876247Y-63714285D01*
X125876247Y-63714285D02*
X125495295Y-63714285D01*
X125495295Y-63714285D02*
X125400057Y-63761904D01*
X125400057Y-63761904D02*
X125352438Y-63809523D01*
X125352438Y-63809523D02*
X125304819Y-63904761D01*
X125304819Y-63904761D02*
X125304819Y-64095237D01*
X125304819Y-64095237D02*
X125352438Y-64190475D01*
X125352438Y-64190475D02*
X125400057Y-64238094D01*
X125400057Y-64238094D02*
X125495295Y-64285713D01*
X125495295Y-64285713D02*
X125733390Y-64285713D01*
X125733390Y-64285713D02*
X125828628Y-64238094D01*
X125828628Y-64238094D02*
X125876247Y-64190475D01*
X125876247Y-64190475D02*
X125923866Y-64095237D01*
X125923866Y-64095237D02*
X125923866Y-63904761D01*
X125923866Y-63904761D02*
X125876247Y-63809523D01*
X125876247Y-63809523D02*
X125828628Y-63761904D01*
X125828628Y-63761904D02*
X125733390Y-63714285D01*
X135509580Y-58704166D02*
X135557200Y-58751785D01*
X135557200Y-58751785D02*
X135604819Y-58894642D01*
X135604819Y-58894642D02*
X135604819Y-58989880D01*
X135604819Y-58989880D02*
X135557200Y-59132737D01*
X135557200Y-59132737D02*
X135461961Y-59227975D01*
X135461961Y-59227975D02*
X135366723Y-59275594D01*
X135366723Y-59275594D02*
X135176247Y-59323213D01*
X135176247Y-59323213D02*
X135033390Y-59323213D01*
X135033390Y-59323213D02*
X134842914Y-59275594D01*
X134842914Y-59275594D02*
X134747676Y-59227975D01*
X134747676Y-59227975D02*
X134652438Y-59132737D01*
X134652438Y-59132737D02*
X134604819Y-58989880D01*
X134604819Y-58989880D02*
X134604819Y-58894642D01*
X134604819Y-58894642D02*
X134652438Y-58751785D01*
X134652438Y-58751785D02*
X134700057Y-58704166D01*
X134938152Y-57847023D02*
X135604819Y-57847023D01*
X134557200Y-58085118D02*
X135271485Y-58323213D01*
X135271485Y-58323213D02*
X135271485Y-57704166D01*
X135539580Y-119166666D02*
X135587200Y-119214285D01*
X135587200Y-119214285D02*
X135634819Y-119357142D01*
X135634819Y-119357142D02*
X135634819Y-119452380D01*
X135634819Y-119452380D02*
X135587200Y-119595237D01*
X135587200Y-119595237D02*
X135491961Y-119690475D01*
X135491961Y-119690475D02*
X135396723Y-119738094D01*
X135396723Y-119738094D02*
X135206247Y-119785713D01*
X135206247Y-119785713D02*
X135063390Y-119785713D01*
X135063390Y-119785713D02*
X134872914Y-119738094D01*
X134872914Y-119738094D02*
X134777676Y-119690475D01*
X134777676Y-119690475D02*
X134682438Y-119595237D01*
X134682438Y-119595237D02*
X134634819Y-119452380D01*
X134634819Y-119452380D02*
X134634819Y-119357142D01*
X134634819Y-119357142D02*
X134682438Y-119214285D01*
X134682438Y-119214285D02*
X134730057Y-119166666D01*
X135063390Y-118595237D02*
X135015771Y-118690475D01*
X135015771Y-118690475D02*
X134968152Y-118738094D01*
X134968152Y-118738094D02*
X134872914Y-118785713D01*
X134872914Y-118785713D02*
X134825295Y-118785713D01*
X134825295Y-118785713D02*
X134730057Y-118738094D01*
X134730057Y-118738094D02*
X134682438Y-118690475D01*
X134682438Y-118690475D02*
X134634819Y-118595237D01*
X134634819Y-118595237D02*
X134634819Y-118404761D01*
X134634819Y-118404761D02*
X134682438Y-118309523D01*
X134682438Y-118309523D02*
X134730057Y-118261904D01*
X134730057Y-118261904D02*
X134825295Y-118214285D01*
X134825295Y-118214285D02*
X134872914Y-118214285D01*
X134872914Y-118214285D02*
X134968152Y-118261904D01*
X134968152Y-118261904D02*
X135015771Y-118309523D01*
X135015771Y-118309523D02*
X135063390Y-118404761D01*
X135063390Y-118404761D02*
X135063390Y-118595237D01*
X135063390Y-118595237D02*
X135111009Y-118690475D01*
X135111009Y-118690475D02*
X135158628Y-118738094D01*
X135158628Y-118738094D02*
X135253866Y-118785713D01*
X135253866Y-118785713D02*
X135444342Y-118785713D01*
X135444342Y-118785713D02*
X135539580Y-118738094D01*
X135539580Y-118738094D02*
X135587200Y-118690475D01*
X135587200Y-118690475D02*
X135634819Y-118595237D01*
X135634819Y-118595237D02*
X135634819Y-118404761D01*
X135634819Y-118404761D02*
X135587200Y-118309523D01*
X135587200Y-118309523D02*
X135539580Y-118261904D01*
X135539580Y-118261904D02*
X135444342Y-118214285D01*
X135444342Y-118214285D02*
X135253866Y-118214285D01*
X135253866Y-118214285D02*
X135158628Y-118261904D01*
X135158628Y-118261904D02*
X135111009Y-118309523D01*
X135111009Y-118309523D02*
X135063390Y-118404761D01*
X148679580Y-58679166D02*
X148727200Y-58726785D01*
X148727200Y-58726785D02*
X148774819Y-58869642D01*
X148774819Y-58869642D02*
X148774819Y-58964880D01*
X148774819Y-58964880D02*
X148727200Y-59107737D01*
X148727200Y-59107737D02*
X148631961Y-59202975D01*
X148631961Y-59202975D02*
X148536723Y-59250594D01*
X148536723Y-59250594D02*
X148346247Y-59298213D01*
X148346247Y-59298213D02*
X148203390Y-59298213D01*
X148203390Y-59298213D02*
X148012914Y-59250594D01*
X148012914Y-59250594D02*
X147917676Y-59202975D01*
X147917676Y-59202975D02*
X147822438Y-59107737D01*
X147822438Y-59107737D02*
X147774819Y-58964880D01*
X147774819Y-58964880D02*
X147774819Y-58869642D01*
X147774819Y-58869642D02*
X147822438Y-58726785D01*
X147822438Y-58726785D02*
X147870057Y-58679166D01*
X148774819Y-58202975D02*
X148774819Y-58012499D01*
X148774819Y-58012499D02*
X148727200Y-57917261D01*
X148727200Y-57917261D02*
X148679580Y-57869642D01*
X148679580Y-57869642D02*
X148536723Y-57774404D01*
X148536723Y-57774404D02*
X148346247Y-57726785D01*
X148346247Y-57726785D02*
X147965295Y-57726785D01*
X147965295Y-57726785D02*
X147870057Y-57774404D01*
X147870057Y-57774404D02*
X147822438Y-57822023D01*
X147822438Y-57822023D02*
X147774819Y-57917261D01*
X147774819Y-57917261D02*
X147774819Y-58107737D01*
X147774819Y-58107737D02*
X147822438Y-58202975D01*
X147822438Y-58202975D02*
X147870057Y-58250594D01*
X147870057Y-58250594D02*
X147965295Y-58298213D01*
X147965295Y-58298213D02*
X148203390Y-58298213D01*
X148203390Y-58298213D02*
X148298628Y-58250594D01*
X148298628Y-58250594D02*
X148346247Y-58202975D01*
X148346247Y-58202975D02*
X148393866Y-58107737D01*
X148393866Y-58107737D02*
X148393866Y-57917261D01*
X148393866Y-57917261D02*
X148346247Y-57822023D01*
X148346247Y-57822023D02*
X148298628Y-57774404D01*
X148298628Y-57774404D02*
X148203390Y-57726785D01*
X176833333Y-53604819D02*
X176500000Y-53128628D01*
X176261905Y-53604819D02*
X176261905Y-52604819D01*
X176261905Y-52604819D02*
X176642857Y-52604819D01*
X176642857Y-52604819D02*
X176738095Y-52652438D01*
X176738095Y-52652438D02*
X176785714Y-52700057D01*
X176785714Y-52700057D02*
X176833333Y-52795295D01*
X176833333Y-52795295D02*
X176833333Y-52938152D01*
X176833333Y-52938152D02*
X176785714Y-53033390D01*
X176785714Y-53033390D02*
X176738095Y-53081009D01*
X176738095Y-53081009D02*
X176642857Y-53128628D01*
X176642857Y-53128628D02*
X176261905Y-53128628D01*
X177690476Y-52938152D02*
X177690476Y-53604819D01*
X177452381Y-52557200D02*
X177214286Y-53271485D01*
X177214286Y-53271485D02*
X177833333Y-53271485D01*
X94857142Y-106539580D02*
X94809523Y-106587200D01*
X94809523Y-106587200D02*
X94666666Y-106634819D01*
X94666666Y-106634819D02*
X94571428Y-106634819D01*
X94571428Y-106634819D02*
X94428571Y-106587200D01*
X94428571Y-106587200D02*
X94333333Y-106491961D01*
X94333333Y-106491961D02*
X94285714Y-106396723D01*
X94285714Y-106396723D02*
X94238095Y-106206247D01*
X94238095Y-106206247D02*
X94238095Y-106063390D01*
X94238095Y-106063390D02*
X94285714Y-105872914D01*
X94285714Y-105872914D02*
X94333333Y-105777676D01*
X94333333Y-105777676D02*
X94428571Y-105682438D01*
X94428571Y-105682438D02*
X94571428Y-105634819D01*
X94571428Y-105634819D02*
X94666666Y-105634819D01*
X94666666Y-105634819D02*
X94809523Y-105682438D01*
X94809523Y-105682438D02*
X94857142Y-105730057D01*
X95809523Y-106634819D02*
X95238095Y-106634819D01*
X95523809Y-106634819D02*
X95523809Y-105634819D01*
X95523809Y-105634819D02*
X95428571Y-105777676D01*
X95428571Y-105777676D02*
X95333333Y-105872914D01*
X95333333Y-105872914D02*
X95238095Y-105920533D01*
X96714285Y-105634819D02*
X96238095Y-105634819D01*
X96238095Y-105634819D02*
X96190476Y-106111009D01*
X96190476Y-106111009D02*
X96238095Y-106063390D01*
X96238095Y-106063390D02*
X96333333Y-106015771D01*
X96333333Y-106015771D02*
X96571428Y-106015771D01*
X96571428Y-106015771D02*
X96666666Y-106063390D01*
X96666666Y-106063390D02*
X96714285Y-106111009D01*
X96714285Y-106111009D02*
X96761904Y-106206247D01*
X96761904Y-106206247D02*
X96761904Y-106444342D01*
X96761904Y-106444342D02*
X96714285Y-106539580D01*
X96714285Y-106539580D02*
X96666666Y-106587200D01*
X96666666Y-106587200D02*
X96571428Y-106634819D01*
X96571428Y-106634819D02*
X96333333Y-106634819D01*
X96333333Y-106634819D02*
X96238095Y-106587200D01*
X96238095Y-106587200D02*
X96190476Y-106539580D01*
X178333333Y-103679580D02*
X178285714Y-103727200D01*
X178285714Y-103727200D02*
X178142857Y-103774819D01*
X178142857Y-103774819D02*
X178047619Y-103774819D01*
X178047619Y-103774819D02*
X177904762Y-103727200D01*
X177904762Y-103727200D02*
X177809524Y-103631961D01*
X177809524Y-103631961D02*
X177761905Y-103536723D01*
X177761905Y-103536723D02*
X177714286Y-103346247D01*
X177714286Y-103346247D02*
X177714286Y-103203390D01*
X177714286Y-103203390D02*
X177761905Y-103012914D01*
X177761905Y-103012914D02*
X177809524Y-102917676D01*
X177809524Y-102917676D02*
X177904762Y-102822438D01*
X177904762Y-102822438D02*
X178047619Y-102774819D01*
X178047619Y-102774819D02*
X178142857Y-102774819D01*
X178142857Y-102774819D02*
X178285714Y-102822438D01*
X178285714Y-102822438D02*
X178333333Y-102870057D01*
X178714286Y-102870057D02*
X178761905Y-102822438D01*
X178761905Y-102822438D02*
X178857143Y-102774819D01*
X178857143Y-102774819D02*
X179095238Y-102774819D01*
X179095238Y-102774819D02*
X179190476Y-102822438D01*
X179190476Y-102822438D02*
X179238095Y-102870057D01*
X179238095Y-102870057D02*
X179285714Y-102965295D01*
X179285714Y-102965295D02*
X179285714Y-103060533D01*
X179285714Y-103060533D02*
X179238095Y-103203390D01*
X179238095Y-103203390D02*
X178666667Y-103774819D01*
X178666667Y-103774819D02*
X179285714Y-103774819D01*
X150857142Y-49179580D02*
X150809523Y-49227200D01*
X150809523Y-49227200D02*
X150666666Y-49274819D01*
X150666666Y-49274819D02*
X150571428Y-49274819D01*
X150571428Y-49274819D02*
X150428571Y-49227200D01*
X150428571Y-49227200D02*
X150333333Y-49131961D01*
X150333333Y-49131961D02*
X150285714Y-49036723D01*
X150285714Y-49036723D02*
X150238095Y-48846247D01*
X150238095Y-48846247D02*
X150238095Y-48703390D01*
X150238095Y-48703390D02*
X150285714Y-48512914D01*
X150285714Y-48512914D02*
X150333333Y-48417676D01*
X150333333Y-48417676D02*
X150428571Y-48322438D01*
X150428571Y-48322438D02*
X150571428Y-48274819D01*
X150571428Y-48274819D02*
X150666666Y-48274819D01*
X150666666Y-48274819D02*
X150809523Y-48322438D01*
X150809523Y-48322438D02*
X150857142Y-48370057D01*
X151809523Y-49274819D02*
X151238095Y-49274819D01*
X151523809Y-49274819D02*
X151523809Y-48274819D01*
X151523809Y-48274819D02*
X151428571Y-48417676D01*
X151428571Y-48417676D02*
X151333333Y-48512914D01*
X151333333Y-48512914D02*
X151238095Y-48560533D01*
X152142857Y-48274819D02*
X152809523Y-48274819D01*
X152809523Y-48274819D02*
X152380952Y-49274819D01*
X162357142Y-91039580D02*
X162309523Y-91087200D01*
X162309523Y-91087200D02*
X162166666Y-91134819D01*
X162166666Y-91134819D02*
X162071428Y-91134819D01*
X162071428Y-91134819D02*
X161928571Y-91087200D01*
X161928571Y-91087200D02*
X161833333Y-90991961D01*
X161833333Y-90991961D02*
X161785714Y-90896723D01*
X161785714Y-90896723D02*
X161738095Y-90706247D01*
X161738095Y-90706247D02*
X161738095Y-90563390D01*
X161738095Y-90563390D02*
X161785714Y-90372914D01*
X161785714Y-90372914D02*
X161833333Y-90277676D01*
X161833333Y-90277676D02*
X161928571Y-90182438D01*
X161928571Y-90182438D02*
X162071428Y-90134819D01*
X162071428Y-90134819D02*
X162166666Y-90134819D01*
X162166666Y-90134819D02*
X162309523Y-90182438D01*
X162309523Y-90182438D02*
X162357142Y-90230057D01*
X162738095Y-90230057D02*
X162785714Y-90182438D01*
X162785714Y-90182438D02*
X162880952Y-90134819D01*
X162880952Y-90134819D02*
X163119047Y-90134819D01*
X163119047Y-90134819D02*
X163214285Y-90182438D01*
X163214285Y-90182438D02*
X163261904Y-90230057D01*
X163261904Y-90230057D02*
X163309523Y-90325295D01*
X163309523Y-90325295D02*
X163309523Y-90420533D01*
X163309523Y-90420533D02*
X163261904Y-90563390D01*
X163261904Y-90563390D02*
X162690476Y-91134819D01*
X162690476Y-91134819D02*
X163309523Y-91134819D01*
X163642857Y-90134819D02*
X164261904Y-90134819D01*
X164261904Y-90134819D02*
X163928571Y-90515771D01*
X163928571Y-90515771D02*
X164071428Y-90515771D01*
X164071428Y-90515771D02*
X164166666Y-90563390D01*
X164166666Y-90563390D02*
X164214285Y-90611009D01*
X164214285Y-90611009D02*
X164261904Y-90706247D01*
X164261904Y-90706247D02*
X164261904Y-90944342D01*
X164261904Y-90944342D02*
X164214285Y-91039580D01*
X164214285Y-91039580D02*
X164166666Y-91087200D01*
X164166666Y-91087200D02*
X164071428Y-91134819D01*
X164071428Y-91134819D02*
X163785714Y-91134819D01*
X163785714Y-91134819D02*
X163690476Y-91087200D01*
X163690476Y-91087200D02*
X163642857Y-91039580D01*
X178333333Y-100179580D02*
X178285714Y-100227200D01*
X178285714Y-100227200D02*
X178142857Y-100274819D01*
X178142857Y-100274819D02*
X178047619Y-100274819D01*
X178047619Y-100274819D02*
X177904762Y-100227200D01*
X177904762Y-100227200D02*
X177809524Y-100131961D01*
X177809524Y-100131961D02*
X177761905Y-100036723D01*
X177761905Y-100036723D02*
X177714286Y-99846247D01*
X177714286Y-99846247D02*
X177714286Y-99703390D01*
X177714286Y-99703390D02*
X177761905Y-99512914D01*
X177761905Y-99512914D02*
X177809524Y-99417676D01*
X177809524Y-99417676D02*
X177904762Y-99322438D01*
X177904762Y-99322438D02*
X178047619Y-99274819D01*
X178047619Y-99274819D02*
X178142857Y-99274819D01*
X178142857Y-99274819D02*
X178285714Y-99322438D01*
X178285714Y-99322438D02*
X178333333Y-99370057D01*
X179285714Y-100274819D02*
X178714286Y-100274819D01*
X179000000Y-100274819D02*
X179000000Y-99274819D01*
X179000000Y-99274819D02*
X178904762Y-99417676D01*
X178904762Y-99417676D02*
X178809524Y-99512914D01*
X178809524Y-99512914D02*
X178714286Y-99560533D01*
X141894642Y-49179580D02*
X141847023Y-49227200D01*
X141847023Y-49227200D02*
X141704166Y-49274819D01*
X141704166Y-49274819D02*
X141608928Y-49274819D01*
X141608928Y-49274819D02*
X141466071Y-49227200D01*
X141466071Y-49227200D02*
X141370833Y-49131961D01*
X141370833Y-49131961D02*
X141323214Y-49036723D01*
X141323214Y-49036723D02*
X141275595Y-48846247D01*
X141275595Y-48846247D02*
X141275595Y-48703390D01*
X141275595Y-48703390D02*
X141323214Y-48512914D01*
X141323214Y-48512914D02*
X141370833Y-48417676D01*
X141370833Y-48417676D02*
X141466071Y-48322438D01*
X141466071Y-48322438D02*
X141608928Y-48274819D01*
X141608928Y-48274819D02*
X141704166Y-48274819D01*
X141704166Y-48274819D02*
X141847023Y-48322438D01*
X141847023Y-48322438D02*
X141894642Y-48370057D01*
X142847023Y-49274819D02*
X142275595Y-49274819D01*
X142561309Y-49274819D02*
X142561309Y-48274819D01*
X142561309Y-48274819D02*
X142466071Y-48417676D01*
X142466071Y-48417676D02*
X142370833Y-48512914D01*
X142370833Y-48512914D02*
X142275595Y-48560533D01*
X143418452Y-48703390D02*
X143323214Y-48655771D01*
X143323214Y-48655771D02*
X143275595Y-48608152D01*
X143275595Y-48608152D02*
X143227976Y-48512914D01*
X143227976Y-48512914D02*
X143227976Y-48465295D01*
X143227976Y-48465295D02*
X143275595Y-48370057D01*
X143275595Y-48370057D02*
X143323214Y-48322438D01*
X143323214Y-48322438D02*
X143418452Y-48274819D01*
X143418452Y-48274819D02*
X143608928Y-48274819D01*
X143608928Y-48274819D02*
X143704166Y-48322438D01*
X143704166Y-48322438D02*
X143751785Y-48370057D01*
X143751785Y-48370057D02*
X143799404Y-48465295D01*
X143799404Y-48465295D02*
X143799404Y-48512914D01*
X143799404Y-48512914D02*
X143751785Y-48608152D01*
X143751785Y-48608152D02*
X143704166Y-48655771D01*
X143704166Y-48655771D02*
X143608928Y-48703390D01*
X143608928Y-48703390D02*
X143418452Y-48703390D01*
X143418452Y-48703390D02*
X143323214Y-48751009D01*
X143323214Y-48751009D02*
X143275595Y-48798628D01*
X143275595Y-48798628D02*
X143227976Y-48893866D01*
X143227976Y-48893866D02*
X143227976Y-49084342D01*
X143227976Y-49084342D02*
X143275595Y-49179580D01*
X143275595Y-49179580D02*
X143323214Y-49227200D01*
X143323214Y-49227200D02*
X143418452Y-49274819D01*
X143418452Y-49274819D02*
X143608928Y-49274819D01*
X143608928Y-49274819D02*
X143704166Y-49227200D01*
X143704166Y-49227200D02*
X143751785Y-49179580D01*
X143751785Y-49179580D02*
X143799404Y-49084342D01*
X143799404Y-49084342D02*
X143799404Y-48893866D01*
X143799404Y-48893866D02*
X143751785Y-48798628D01*
X143751785Y-48798628D02*
X143704166Y-48751009D01*
X143704166Y-48751009D02*
X143608928Y-48703390D01*
X144679580Y-58704166D02*
X144727200Y-58751785D01*
X144727200Y-58751785D02*
X144774819Y-58894642D01*
X144774819Y-58894642D02*
X144774819Y-58989880D01*
X144774819Y-58989880D02*
X144727200Y-59132737D01*
X144727200Y-59132737D02*
X144631961Y-59227975D01*
X144631961Y-59227975D02*
X144536723Y-59275594D01*
X144536723Y-59275594D02*
X144346247Y-59323213D01*
X144346247Y-59323213D02*
X144203390Y-59323213D01*
X144203390Y-59323213D02*
X144012914Y-59275594D01*
X144012914Y-59275594D02*
X143917676Y-59227975D01*
X143917676Y-59227975D02*
X143822438Y-59132737D01*
X143822438Y-59132737D02*
X143774819Y-58989880D01*
X143774819Y-58989880D02*
X143774819Y-58894642D01*
X143774819Y-58894642D02*
X143822438Y-58751785D01*
X143822438Y-58751785D02*
X143870057Y-58704166D01*
X143774819Y-57847023D02*
X143774819Y-58037499D01*
X143774819Y-58037499D02*
X143822438Y-58132737D01*
X143822438Y-58132737D02*
X143870057Y-58180356D01*
X143870057Y-58180356D02*
X144012914Y-58275594D01*
X144012914Y-58275594D02*
X144203390Y-58323213D01*
X144203390Y-58323213D02*
X144584342Y-58323213D01*
X144584342Y-58323213D02*
X144679580Y-58275594D01*
X144679580Y-58275594D02*
X144727200Y-58227975D01*
X144727200Y-58227975D02*
X144774819Y-58132737D01*
X144774819Y-58132737D02*
X144774819Y-57942261D01*
X144774819Y-57942261D02*
X144727200Y-57847023D01*
X144727200Y-57847023D02*
X144679580Y-57799404D01*
X144679580Y-57799404D02*
X144584342Y-57751785D01*
X144584342Y-57751785D02*
X144346247Y-57751785D01*
X144346247Y-57751785D02*
X144251009Y-57799404D01*
X144251009Y-57799404D02*
X144203390Y-57847023D01*
X144203390Y-57847023D02*
X144155771Y-57942261D01*
X144155771Y-57942261D02*
X144155771Y-58132737D01*
X144155771Y-58132737D02*
X144203390Y-58227975D01*
X144203390Y-58227975D02*
X144251009Y-58275594D01*
X144251009Y-58275594D02*
X144346247Y-58323213D01*
X121357142Y-117179580D02*
X121309523Y-117227200D01*
X121309523Y-117227200D02*
X121166666Y-117274819D01*
X121166666Y-117274819D02*
X121071428Y-117274819D01*
X121071428Y-117274819D02*
X120928571Y-117227200D01*
X120928571Y-117227200D02*
X120833333Y-117131961D01*
X120833333Y-117131961D02*
X120785714Y-117036723D01*
X120785714Y-117036723D02*
X120738095Y-116846247D01*
X120738095Y-116846247D02*
X120738095Y-116703390D01*
X120738095Y-116703390D02*
X120785714Y-116512914D01*
X120785714Y-116512914D02*
X120833333Y-116417676D01*
X120833333Y-116417676D02*
X120928571Y-116322438D01*
X120928571Y-116322438D02*
X121071428Y-116274819D01*
X121071428Y-116274819D02*
X121166666Y-116274819D01*
X121166666Y-116274819D02*
X121309523Y-116322438D01*
X121309523Y-116322438D02*
X121357142Y-116370057D01*
X121738095Y-116370057D02*
X121785714Y-116322438D01*
X121785714Y-116322438D02*
X121880952Y-116274819D01*
X121880952Y-116274819D02*
X122119047Y-116274819D01*
X122119047Y-116274819D02*
X122214285Y-116322438D01*
X122214285Y-116322438D02*
X122261904Y-116370057D01*
X122261904Y-116370057D02*
X122309523Y-116465295D01*
X122309523Y-116465295D02*
X122309523Y-116560533D01*
X122309523Y-116560533D02*
X122261904Y-116703390D01*
X122261904Y-116703390D02*
X121690476Y-117274819D01*
X121690476Y-117274819D02*
X122309523Y-117274819D01*
X123261904Y-117274819D02*
X122690476Y-117274819D01*
X122976190Y-117274819D02*
X122976190Y-116274819D01*
X122976190Y-116274819D02*
X122880952Y-116417676D01*
X122880952Y-116417676D02*
X122785714Y-116512914D01*
X122785714Y-116512914D02*
X122690476Y-116560533D01*
X100819642Y-106539580D02*
X100772023Y-106587200D01*
X100772023Y-106587200D02*
X100629166Y-106634819D01*
X100629166Y-106634819D02*
X100533928Y-106634819D01*
X100533928Y-106634819D02*
X100391071Y-106587200D01*
X100391071Y-106587200D02*
X100295833Y-106491961D01*
X100295833Y-106491961D02*
X100248214Y-106396723D01*
X100248214Y-106396723D02*
X100200595Y-106206247D01*
X100200595Y-106206247D02*
X100200595Y-106063390D01*
X100200595Y-106063390D02*
X100248214Y-105872914D01*
X100248214Y-105872914D02*
X100295833Y-105777676D01*
X100295833Y-105777676D02*
X100391071Y-105682438D01*
X100391071Y-105682438D02*
X100533928Y-105634819D01*
X100533928Y-105634819D02*
X100629166Y-105634819D01*
X100629166Y-105634819D02*
X100772023Y-105682438D01*
X100772023Y-105682438D02*
X100819642Y-105730057D01*
X101200595Y-105730057D02*
X101248214Y-105682438D01*
X101248214Y-105682438D02*
X101343452Y-105634819D01*
X101343452Y-105634819D02*
X101581547Y-105634819D01*
X101581547Y-105634819D02*
X101676785Y-105682438D01*
X101676785Y-105682438D02*
X101724404Y-105730057D01*
X101724404Y-105730057D02*
X101772023Y-105825295D01*
X101772023Y-105825295D02*
X101772023Y-105920533D01*
X101772023Y-105920533D02*
X101724404Y-106063390D01*
X101724404Y-106063390D02*
X101152976Y-106634819D01*
X101152976Y-106634819D02*
X101772023Y-106634819D01*
X102391071Y-105634819D02*
X102486309Y-105634819D01*
X102486309Y-105634819D02*
X102581547Y-105682438D01*
X102581547Y-105682438D02*
X102629166Y-105730057D01*
X102629166Y-105730057D02*
X102676785Y-105825295D01*
X102676785Y-105825295D02*
X102724404Y-106015771D01*
X102724404Y-106015771D02*
X102724404Y-106253866D01*
X102724404Y-106253866D02*
X102676785Y-106444342D01*
X102676785Y-106444342D02*
X102629166Y-106539580D01*
X102629166Y-106539580D02*
X102581547Y-106587200D01*
X102581547Y-106587200D02*
X102486309Y-106634819D01*
X102486309Y-106634819D02*
X102391071Y-106634819D01*
X102391071Y-106634819D02*
X102295833Y-106587200D01*
X102295833Y-106587200D02*
X102248214Y-106539580D01*
X102248214Y-106539580D02*
X102200595Y-106444342D01*
X102200595Y-106444342D02*
X102152976Y-106253866D01*
X102152976Y-106253866D02*
X102152976Y-106015771D01*
X102152976Y-106015771D02*
X102200595Y-105825295D01*
X102200595Y-105825295D02*
X102248214Y-105730057D01*
X102248214Y-105730057D02*
X102295833Y-105682438D01*
X102295833Y-105682438D02*
X102391071Y-105634819D01*
X113166666Y-64154819D02*
X113166666Y-64869104D01*
X113166666Y-64869104D02*
X113119047Y-65011961D01*
X113119047Y-65011961D02*
X113023809Y-65107200D01*
X113023809Y-65107200D02*
X112880952Y-65154819D01*
X112880952Y-65154819D02*
X112785714Y-65154819D01*
X113642857Y-65154819D02*
X113642857Y-64154819D01*
X113642857Y-64154819D02*
X114023809Y-64154819D01*
X114023809Y-64154819D02*
X114119047Y-64202438D01*
X114119047Y-64202438D02*
X114166666Y-64250057D01*
X114166666Y-64250057D02*
X114214285Y-64345295D01*
X114214285Y-64345295D02*
X114214285Y-64488152D01*
X114214285Y-64488152D02*
X114166666Y-64583390D01*
X114166666Y-64583390D02*
X114119047Y-64631009D01*
X114119047Y-64631009D02*
X114023809Y-64678628D01*
X114023809Y-64678628D02*
X113642857Y-64678628D01*
X115166666Y-65154819D02*
X114595238Y-65154819D01*
X114880952Y-65154819D02*
X114880952Y-64154819D01*
X114880952Y-64154819D02*
X114785714Y-64297676D01*
X114785714Y-64297676D02*
X114690476Y-64392914D01*
X114690476Y-64392914D02*
X114595238Y-64440533D01*
X142539580Y-113642857D02*
X142587200Y-113690476D01*
X142587200Y-113690476D02*
X142634819Y-113833333D01*
X142634819Y-113833333D02*
X142634819Y-113928571D01*
X142634819Y-113928571D02*
X142587200Y-114071428D01*
X142587200Y-114071428D02*
X142491961Y-114166666D01*
X142491961Y-114166666D02*
X142396723Y-114214285D01*
X142396723Y-114214285D02*
X142206247Y-114261904D01*
X142206247Y-114261904D02*
X142063390Y-114261904D01*
X142063390Y-114261904D02*
X141872914Y-114214285D01*
X141872914Y-114214285D02*
X141777676Y-114166666D01*
X141777676Y-114166666D02*
X141682438Y-114071428D01*
X141682438Y-114071428D02*
X141634819Y-113928571D01*
X141634819Y-113928571D02*
X141634819Y-113833333D01*
X141634819Y-113833333D02*
X141682438Y-113690476D01*
X141682438Y-113690476D02*
X141730057Y-113642857D01*
X142634819Y-112690476D02*
X142634819Y-113261904D01*
X142634819Y-112976190D02*
X141634819Y-112976190D01*
X141634819Y-112976190D02*
X141777676Y-113071428D01*
X141777676Y-113071428D02*
X141872914Y-113166666D01*
X141872914Y-113166666D02*
X141920533Y-113261904D01*
X142634819Y-111738095D02*
X142634819Y-112309523D01*
X142634819Y-112023809D02*
X141634819Y-112023809D01*
X141634819Y-112023809D02*
X141777676Y-112119047D01*
X141777676Y-112119047D02*
X141872914Y-112214285D01*
X141872914Y-112214285D02*
X141920533Y-112309523D01*
X167357142Y-121104819D02*
X167023809Y-120628628D01*
X166785714Y-121104819D02*
X166785714Y-120104819D01*
X166785714Y-120104819D02*
X167166666Y-120104819D01*
X167166666Y-120104819D02*
X167261904Y-120152438D01*
X167261904Y-120152438D02*
X167309523Y-120200057D01*
X167309523Y-120200057D02*
X167357142Y-120295295D01*
X167357142Y-120295295D02*
X167357142Y-120438152D01*
X167357142Y-120438152D02*
X167309523Y-120533390D01*
X167309523Y-120533390D02*
X167261904Y-120581009D01*
X167261904Y-120581009D02*
X167166666Y-120628628D01*
X167166666Y-120628628D02*
X166785714Y-120628628D01*
X168309523Y-121104819D02*
X167738095Y-121104819D01*
X168023809Y-121104819D02*
X168023809Y-120104819D01*
X168023809Y-120104819D02*
X167928571Y-120247676D01*
X167928571Y-120247676D02*
X167833333Y-120342914D01*
X167833333Y-120342914D02*
X167738095Y-120390533D01*
X169261904Y-121104819D02*
X168690476Y-121104819D01*
X168976190Y-121104819D02*
X168976190Y-120104819D01*
X168976190Y-120104819D02*
X168880952Y-120247676D01*
X168880952Y-120247676D02*
X168785714Y-120342914D01*
X168785714Y-120342914D02*
X168690476Y-120390533D01*
X104607143Y-46407200D02*
X104750000Y-46454819D01*
X104750000Y-46454819D02*
X104988095Y-46454819D01*
X104988095Y-46454819D02*
X105083333Y-46407200D01*
X105083333Y-46407200D02*
X105130952Y-46359580D01*
X105130952Y-46359580D02*
X105178571Y-46264342D01*
X105178571Y-46264342D02*
X105178571Y-46169104D01*
X105178571Y-46169104D02*
X105130952Y-46073866D01*
X105130952Y-46073866D02*
X105083333Y-46026247D01*
X105083333Y-46026247D02*
X104988095Y-45978628D01*
X104988095Y-45978628D02*
X104797619Y-45931009D01*
X104797619Y-45931009D02*
X104702381Y-45883390D01*
X104702381Y-45883390D02*
X104654762Y-45835771D01*
X104654762Y-45835771D02*
X104607143Y-45740533D01*
X104607143Y-45740533D02*
X104607143Y-45645295D01*
X104607143Y-45645295D02*
X104654762Y-45550057D01*
X104654762Y-45550057D02*
X104702381Y-45502438D01*
X104702381Y-45502438D02*
X104797619Y-45454819D01*
X104797619Y-45454819D02*
X105035714Y-45454819D01*
X105035714Y-45454819D02*
X105178571Y-45502438D01*
X105511905Y-45454819D02*
X105750000Y-46454819D01*
X105750000Y-46454819D02*
X105940476Y-45740533D01*
X105940476Y-45740533D02*
X106130952Y-46454819D01*
X106130952Y-46454819D02*
X106369048Y-45454819D01*
X106511905Y-46550057D02*
X107273809Y-46550057D01*
X107845238Y-45931009D02*
X107988095Y-45978628D01*
X107988095Y-45978628D02*
X108035714Y-46026247D01*
X108035714Y-46026247D02*
X108083333Y-46121485D01*
X108083333Y-46121485D02*
X108083333Y-46264342D01*
X108083333Y-46264342D02*
X108035714Y-46359580D01*
X108035714Y-46359580D02*
X107988095Y-46407200D01*
X107988095Y-46407200D02*
X107892857Y-46454819D01*
X107892857Y-46454819D02*
X107511905Y-46454819D01*
X107511905Y-46454819D02*
X107511905Y-45454819D01*
X107511905Y-45454819D02*
X107845238Y-45454819D01*
X107845238Y-45454819D02*
X107940476Y-45502438D01*
X107940476Y-45502438D02*
X107988095Y-45550057D01*
X107988095Y-45550057D02*
X108035714Y-45645295D01*
X108035714Y-45645295D02*
X108035714Y-45740533D01*
X108035714Y-45740533D02*
X107988095Y-45835771D01*
X107988095Y-45835771D02*
X107940476Y-45883390D01*
X107940476Y-45883390D02*
X107845238Y-45931009D01*
X107845238Y-45931009D02*
X107511905Y-45931009D01*
X108702381Y-45454819D02*
X108892857Y-45454819D01*
X108892857Y-45454819D02*
X108988095Y-45502438D01*
X108988095Y-45502438D02*
X109083333Y-45597676D01*
X109083333Y-45597676D02*
X109130952Y-45788152D01*
X109130952Y-45788152D02*
X109130952Y-46121485D01*
X109130952Y-46121485D02*
X109083333Y-46311961D01*
X109083333Y-46311961D02*
X108988095Y-46407200D01*
X108988095Y-46407200D02*
X108892857Y-46454819D01*
X108892857Y-46454819D02*
X108702381Y-46454819D01*
X108702381Y-46454819D02*
X108607143Y-46407200D01*
X108607143Y-46407200D02*
X108511905Y-46311961D01*
X108511905Y-46311961D02*
X108464286Y-46121485D01*
X108464286Y-46121485D02*
X108464286Y-45788152D01*
X108464286Y-45788152D02*
X108511905Y-45597676D01*
X108511905Y-45597676D02*
X108607143Y-45502438D01*
X108607143Y-45502438D02*
X108702381Y-45454819D01*
X109750000Y-45454819D02*
X109940476Y-45454819D01*
X109940476Y-45454819D02*
X110035714Y-45502438D01*
X110035714Y-45502438D02*
X110130952Y-45597676D01*
X110130952Y-45597676D02*
X110178571Y-45788152D01*
X110178571Y-45788152D02*
X110178571Y-46121485D01*
X110178571Y-46121485D02*
X110130952Y-46311961D01*
X110130952Y-46311961D02*
X110035714Y-46407200D01*
X110035714Y-46407200D02*
X109940476Y-46454819D01*
X109940476Y-46454819D02*
X109750000Y-46454819D01*
X109750000Y-46454819D02*
X109654762Y-46407200D01*
X109654762Y-46407200D02*
X109559524Y-46311961D01*
X109559524Y-46311961D02*
X109511905Y-46121485D01*
X109511905Y-46121485D02*
X109511905Y-45788152D01*
X109511905Y-45788152D02*
X109559524Y-45597676D01*
X109559524Y-45597676D02*
X109654762Y-45502438D01*
X109654762Y-45502438D02*
X109750000Y-45454819D01*
X110464286Y-45454819D02*
X111035714Y-45454819D01*
X110750000Y-46454819D02*
X110750000Y-45454819D01*
X111892857Y-46454819D02*
X111321429Y-46454819D01*
X111607143Y-46454819D02*
X111607143Y-45454819D01*
X111607143Y-45454819D02*
X111511905Y-45597676D01*
X111511905Y-45597676D02*
X111416667Y-45692914D01*
X111416667Y-45692914D02*
X111321429Y-45740533D01*
X175654761Y-122800057D02*
X175559523Y-122752438D01*
X175559523Y-122752438D02*
X175464285Y-122657200D01*
X175464285Y-122657200D02*
X175321428Y-122514342D01*
X175321428Y-122514342D02*
X175226190Y-122466723D01*
X175226190Y-122466723D02*
X175130952Y-122466723D01*
X175178571Y-122704819D02*
X175083333Y-122657200D01*
X175083333Y-122657200D02*
X174988095Y-122561961D01*
X174988095Y-122561961D02*
X174940476Y-122371485D01*
X174940476Y-122371485D02*
X174940476Y-122038152D01*
X174940476Y-122038152D02*
X174988095Y-121847676D01*
X174988095Y-121847676D02*
X175083333Y-121752438D01*
X175083333Y-121752438D02*
X175178571Y-121704819D01*
X175178571Y-121704819D02*
X175369047Y-121704819D01*
X175369047Y-121704819D02*
X175464285Y-121752438D01*
X175464285Y-121752438D02*
X175559523Y-121847676D01*
X175559523Y-121847676D02*
X175607142Y-122038152D01*
X175607142Y-122038152D02*
X175607142Y-122371485D01*
X175607142Y-122371485D02*
X175559523Y-122561961D01*
X175559523Y-122561961D02*
X175464285Y-122657200D01*
X175464285Y-122657200D02*
X175369047Y-122704819D01*
X175369047Y-122704819D02*
X175178571Y-122704819D01*
X175988095Y-121800057D02*
X176035714Y-121752438D01*
X176035714Y-121752438D02*
X176130952Y-121704819D01*
X176130952Y-121704819D02*
X176369047Y-121704819D01*
X176369047Y-121704819D02*
X176464285Y-121752438D01*
X176464285Y-121752438D02*
X176511904Y-121800057D01*
X176511904Y-121800057D02*
X176559523Y-121895295D01*
X176559523Y-121895295D02*
X176559523Y-121990533D01*
X176559523Y-121990533D02*
X176511904Y-122133390D01*
X176511904Y-122133390D02*
X175940476Y-122704819D01*
X175940476Y-122704819D02*
X176559523Y-122704819D01*
X178295833Y-107179580D02*
X178248214Y-107227200D01*
X178248214Y-107227200D02*
X178105357Y-107274819D01*
X178105357Y-107274819D02*
X178010119Y-107274819D01*
X178010119Y-107274819D02*
X177867262Y-107227200D01*
X177867262Y-107227200D02*
X177772024Y-107131961D01*
X177772024Y-107131961D02*
X177724405Y-107036723D01*
X177724405Y-107036723D02*
X177676786Y-106846247D01*
X177676786Y-106846247D02*
X177676786Y-106703390D01*
X177676786Y-106703390D02*
X177724405Y-106512914D01*
X177724405Y-106512914D02*
X177772024Y-106417676D01*
X177772024Y-106417676D02*
X177867262Y-106322438D01*
X177867262Y-106322438D02*
X178010119Y-106274819D01*
X178010119Y-106274819D02*
X178105357Y-106274819D01*
X178105357Y-106274819D02*
X178248214Y-106322438D01*
X178248214Y-106322438D02*
X178295833Y-106370057D01*
X178629167Y-106274819D02*
X179248214Y-106274819D01*
X179248214Y-106274819D02*
X178914881Y-106655771D01*
X178914881Y-106655771D02*
X179057738Y-106655771D01*
X179057738Y-106655771D02*
X179152976Y-106703390D01*
X179152976Y-106703390D02*
X179200595Y-106751009D01*
X179200595Y-106751009D02*
X179248214Y-106846247D01*
X179248214Y-106846247D02*
X179248214Y-107084342D01*
X179248214Y-107084342D02*
X179200595Y-107179580D01*
X179200595Y-107179580D02*
X179152976Y-107227200D01*
X179152976Y-107227200D02*
X179057738Y-107274819D01*
X179057738Y-107274819D02*
X178772024Y-107274819D01*
X178772024Y-107274819D02*
X178676786Y-107227200D01*
X178676786Y-107227200D02*
X178629167Y-107179580D01*
X162312255Y-98109580D02*
X162264636Y-98157200D01*
X162264636Y-98157200D02*
X162121779Y-98204819D01*
X162121779Y-98204819D02*
X162026541Y-98204819D01*
X162026541Y-98204819D02*
X161883684Y-98157200D01*
X161883684Y-98157200D02*
X161788446Y-98061961D01*
X161788446Y-98061961D02*
X161740827Y-97966723D01*
X161740827Y-97966723D02*
X161693208Y-97776247D01*
X161693208Y-97776247D02*
X161693208Y-97633390D01*
X161693208Y-97633390D02*
X161740827Y-97442914D01*
X161740827Y-97442914D02*
X161788446Y-97347676D01*
X161788446Y-97347676D02*
X161883684Y-97252438D01*
X161883684Y-97252438D02*
X162026541Y-97204819D01*
X162026541Y-97204819D02*
X162121779Y-97204819D01*
X162121779Y-97204819D02*
X162264636Y-97252438D01*
X162264636Y-97252438D02*
X162312255Y-97300057D01*
X162693208Y-97300057D02*
X162740827Y-97252438D01*
X162740827Y-97252438D02*
X162836065Y-97204819D01*
X162836065Y-97204819D02*
X163074160Y-97204819D01*
X163074160Y-97204819D02*
X163169398Y-97252438D01*
X163169398Y-97252438D02*
X163217017Y-97300057D01*
X163217017Y-97300057D02*
X163264636Y-97395295D01*
X163264636Y-97395295D02*
X163264636Y-97490533D01*
X163264636Y-97490533D02*
X163217017Y-97633390D01*
X163217017Y-97633390D02*
X162645589Y-98204819D01*
X162645589Y-98204819D02*
X163264636Y-98204819D01*
X163645589Y-97300057D02*
X163693208Y-97252438D01*
X163693208Y-97252438D02*
X163788446Y-97204819D01*
X163788446Y-97204819D02*
X164026541Y-97204819D01*
X164026541Y-97204819D02*
X164121779Y-97252438D01*
X164121779Y-97252438D02*
X164169398Y-97300057D01*
X164169398Y-97300057D02*
X164217017Y-97395295D01*
X164217017Y-97395295D02*
X164217017Y-97490533D01*
X164217017Y-97490533D02*
X164169398Y-97633390D01*
X164169398Y-97633390D02*
X163597970Y-98204819D01*
X163597970Y-98204819D02*
X164217017Y-98204819D01*
X95295833Y-57179580D02*
X95248214Y-57227200D01*
X95248214Y-57227200D02*
X95105357Y-57274819D01*
X95105357Y-57274819D02*
X95010119Y-57274819D01*
X95010119Y-57274819D02*
X94867262Y-57227200D01*
X94867262Y-57227200D02*
X94772024Y-57131961D01*
X94772024Y-57131961D02*
X94724405Y-57036723D01*
X94724405Y-57036723D02*
X94676786Y-56846247D01*
X94676786Y-56846247D02*
X94676786Y-56703390D01*
X94676786Y-56703390D02*
X94724405Y-56512914D01*
X94724405Y-56512914D02*
X94772024Y-56417676D01*
X94772024Y-56417676D02*
X94867262Y-56322438D01*
X94867262Y-56322438D02*
X95010119Y-56274819D01*
X95010119Y-56274819D02*
X95105357Y-56274819D01*
X95105357Y-56274819D02*
X95248214Y-56322438D01*
X95248214Y-56322438D02*
X95295833Y-56370057D01*
X95629167Y-56274819D02*
X96295833Y-56274819D01*
X96295833Y-56274819D02*
X95867262Y-57274819D01*
X95295833Y-63104819D02*
X94962500Y-62628628D01*
X94724405Y-63104819D02*
X94724405Y-62104819D01*
X94724405Y-62104819D02*
X95105357Y-62104819D01*
X95105357Y-62104819D02*
X95200595Y-62152438D01*
X95200595Y-62152438D02*
X95248214Y-62200057D01*
X95248214Y-62200057D02*
X95295833Y-62295295D01*
X95295833Y-62295295D02*
X95295833Y-62438152D01*
X95295833Y-62438152D02*
X95248214Y-62533390D01*
X95248214Y-62533390D02*
X95200595Y-62581009D01*
X95200595Y-62581009D02*
X95105357Y-62628628D01*
X95105357Y-62628628D02*
X94724405Y-62628628D01*
X96248214Y-63104819D02*
X95676786Y-63104819D01*
X95962500Y-63104819D02*
X95962500Y-62104819D01*
X95962500Y-62104819D02*
X95867262Y-62247676D01*
X95867262Y-62247676D02*
X95772024Y-62342914D01*
X95772024Y-62342914D02*
X95676786Y-62390533D01*
X142238095Y-121454819D02*
X142238095Y-122264342D01*
X142238095Y-122264342D02*
X142285714Y-122359580D01*
X142285714Y-122359580D02*
X142333333Y-122407200D01*
X142333333Y-122407200D02*
X142428571Y-122454819D01*
X142428571Y-122454819D02*
X142619047Y-122454819D01*
X142619047Y-122454819D02*
X142714285Y-122407200D01*
X142714285Y-122407200D02*
X142761904Y-122359580D01*
X142761904Y-122359580D02*
X142809523Y-122264342D01*
X142809523Y-122264342D02*
X142809523Y-121454819D01*
X143238095Y-121550057D02*
X143285714Y-121502438D01*
X143285714Y-121502438D02*
X143380952Y-121454819D01*
X143380952Y-121454819D02*
X143619047Y-121454819D01*
X143619047Y-121454819D02*
X143714285Y-121502438D01*
X143714285Y-121502438D02*
X143761904Y-121550057D01*
X143761904Y-121550057D02*
X143809523Y-121645295D01*
X143809523Y-121645295D02*
X143809523Y-121740533D01*
X143809523Y-121740533D02*
X143761904Y-121883390D01*
X143761904Y-121883390D02*
X143190476Y-122454819D01*
X143190476Y-122454819D02*
X143809523Y-122454819D01*
X175554819Y-63690476D02*
X176269104Y-63690476D01*
X176269104Y-63690476D02*
X176411961Y-63738095D01*
X176411961Y-63738095D02*
X176507200Y-63833333D01*
X176507200Y-63833333D02*
X176554819Y-63976190D01*
X176554819Y-63976190D02*
X176554819Y-64071428D01*
X176650057Y-63452381D02*
X176650057Y-62690476D01*
X176507200Y-62499999D02*
X176554819Y-62357142D01*
X176554819Y-62357142D02*
X176554819Y-62119047D01*
X176554819Y-62119047D02*
X176507200Y-62023809D01*
X176507200Y-62023809D02*
X176459580Y-61976190D01*
X176459580Y-61976190D02*
X176364342Y-61928571D01*
X176364342Y-61928571D02*
X176269104Y-61928571D01*
X176269104Y-61928571D02*
X176173866Y-61976190D01*
X176173866Y-61976190D02*
X176126247Y-62023809D01*
X176126247Y-62023809D02*
X176078628Y-62119047D01*
X176078628Y-62119047D02*
X176031009Y-62309523D01*
X176031009Y-62309523D02*
X175983390Y-62404761D01*
X175983390Y-62404761D02*
X175935771Y-62452380D01*
X175935771Y-62452380D02*
X175840533Y-62499999D01*
X175840533Y-62499999D02*
X175745295Y-62499999D01*
X175745295Y-62499999D02*
X175650057Y-62452380D01*
X175650057Y-62452380D02*
X175602438Y-62404761D01*
X175602438Y-62404761D02*
X175554819Y-62309523D01*
X175554819Y-62309523D02*
X175554819Y-62071428D01*
X175554819Y-62071428D02*
X175602438Y-61928571D01*
X176554819Y-61499999D02*
X175554819Y-61499999D01*
X175554819Y-61499999D02*
X175554819Y-61119047D01*
X175554819Y-61119047D02*
X175602438Y-61023809D01*
X175602438Y-61023809D02*
X175650057Y-60976190D01*
X175650057Y-60976190D02*
X175745295Y-60928571D01*
X175745295Y-60928571D02*
X175888152Y-60928571D01*
X175888152Y-60928571D02*
X175983390Y-60976190D01*
X175983390Y-60976190D02*
X176031009Y-61023809D01*
X176031009Y-61023809D02*
X176078628Y-61119047D01*
X176078628Y-61119047D02*
X176078628Y-61499999D01*
X176554819Y-60499999D02*
X175554819Y-60499999D01*
X176554819Y-59928571D02*
X175983390Y-60357142D01*
X175554819Y-59928571D02*
X176126247Y-60499999D01*
X176554819Y-58976190D02*
X176554819Y-59547618D01*
X176554819Y-59261904D02*
X175554819Y-59261904D01*
X175554819Y-59261904D02*
X175697676Y-59357142D01*
X175697676Y-59357142D02*
X175792914Y-59452380D01*
X175792914Y-59452380D02*
X175840533Y-59547618D01*
X105833333Y-61104819D02*
X105500000Y-60628628D01*
X105261905Y-61104819D02*
X105261905Y-60104819D01*
X105261905Y-60104819D02*
X105642857Y-60104819D01*
X105642857Y-60104819D02*
X105738095Y-60152438D01*
X105738095Y-60152438D02*
X105785714Y-60200057D01*
X105785714Y-60200057D02*
X105833333Y-60295295D01*
X105833333Y-60295295D02*
X105833333Y-60438152D01*
X105833333Y-60438152D02*
X105785714Y-60533390D01*
X105785714Y-60533390D02*
X105738095Y-60581009D01*
X105738095Y-60581009D02*
X105642857Y-60628628D01*
X105642857Y-60628628D02*
X105261905Y-60628628D01*
X106214286Y-60200057D02*
X106261905Y-60152438D01*
X106261905Y-60152438D02*
X106357143Y-60104819D01*
X106357143Y-60104819D02*
X106595238Y-60104819D01*
X106595238Y-60104819D02*
X106690476Y-60152438D01*
X106690476Y-60152438D02*
X106738095Y-60200057D01*
X106738095Y-60200057D02*
X106785714Y-60295295D01*
X106785714Y-60295295D02*
X106785714Y-60390533D01*
X106785714Y-60390533D02*
X106738095Y-60533390D01*
X106738095Y-60533390D02*
X106166667Y-61104819D01*
X106166667Y-61104819D02*
X106785714Y-61104819D01*
X118539580Y-103180357D02*
X118587200Y-103227976D01*
X118587200Y-103227976D02*
X118634819Y-103370833D01*
X118634819Y-103370833D02*
X118634819Y-103466071D01*
X118634819Y-103466071D02*
X118587200Y-103608928D01*
X118587200Y-103608928D02*
X118491961Y-103704166D01*
X118491961Y-103704166D02*
X118396723Y-103751785D01*
X118396723Y-103751785D02*
X118206247Y-103799404D01*
X118206247Y-103799404D02*
X118063390Y-103799404D01*
X118063390Y-103799404D02*
X117872914Y-103751785D01*
X117872914Y-103751785D02*
X117777676Y-103704166D01*
X117777676Y-103704166D02*
X117682438Y-103608928D01*
X117682438Y-103608928D02*
X117634819Y-103466071D01*
X117634819Y-103466071D02*
X117634819Y-103370833D01*
X117634819Y-103370833D02*
X117682438Y-103227976D01*
X117682438Y-103227976D02*
X117730057Y-103180357D01*
X118634819Y-102227976D02*
X118634819Y-102799404D01*
X118634819Y-102513690D02*
X117634819Y-102513690D01*
X117634819Y-102513690D02*
X117777676Y-102608928D01*
X117777676Y-102608928D02*
X117872914Y-102704166D01*
X117872914Y-102704166D02*
X117920533Y-102799404D01*
X117634819Y-101894642D02*
X117634819Y-101275595D01*
X117634819Y-101275595D02*
X118015771Y-101608928D01*
X118015771Y-101608928D02*
X118015771Y-101466071D01*
X118015771Y-101466071D02*
X118063390Y-101370833D01*
X118063390Y-101370833D02*
X118111009Y-101323214D01*
X118111009Y-101323214D02*
X118206247Y-101275595D01*
X118206247Y-101275595D02*
X118444342Y-101275595D01*
X118444342Y-101275595D02*
X118539580Y-101323214D01*
X118539580Y-101323214D02*
X118587200Y-101370833D01*
X118587200Y-101370833D02*
X118634819Y-101466071D01*
X118634819Y-101466071D02*
X118634819Y-101751785D01*
X118634819Y-101751785D02*
X118587200Y-101847023D01*
X118587200Y-101847023D02*
X118539580Y-101894642D01*
X172166666Y-94881009D02*
X171833333Y-94881009D01*
X171833333Y-95404819D02*
X171833333Y-94404819D01*
X171833333Y-94404819D02*
X172309523Y-94404819D01*
X173023809Y-94881009D02*
X173166666Y-94928628D01*
X173166666Y-94928628D02*
X173214285Y-94976247D01*
X173214285Y-94976247D02*
X173261904Y-95071485D01*
X173261904Y-95071485D02*
X173261904Y-95214342D01*
X173261904Y-95214342D02*
X173214285Y-95309580D01*
X173214285Y-95309580D02*
X173166666Y-95357200D01*
X173166666Y-95357200D02*
X173071428Y-95404819D01*
X173071428Y-95404819D02*
X172690476Y-95404819D01*
X172690476Y-95404819D02*
X172690476Y-94404819D01*
X172690476Y-94404819D02*
X173023809Y-94404819D01*
X173023809Y-94404819D02*
X173119047Y-94452438D01*
X173119047Y-94452438D02*
X173166666Y-94500057D01*
X173166666Y-94500057D02*
X173214285Y-94595295D01*
X173214285Y-94595295D02*
X173214285Y-94690533D01*
X173214285Y-94690533D02*
X173166666Y-94785771D01*
X173166666Y-94785771D02*
X173119047Y-94833390D01*
X173119047Y-94833390D02*
X173023809Y-94881009D01*
X173023809Y-94881009D02*
X172690476Y-94881009D01*
X174214285Y-95404819D02*
X173642857Y-95404819D01*
X173928571Y-95404819D02*
X173928571Y-94404819D01*
X173928571Y-94404819D02*
X173833333Y-94547676D01*
X173833333Y-94547676D02*
X173738095Y-94642914D01*
X173738095Y-94642914D02*
X173642857Y-94690533D01*
X158357142Y-123039580D02*
X158309523Y-123087200D01*
X158309523Y-123087200D02*
X158166666Y-123134819D01*
X158166666Y-123134819D02*
X158071428Y-123134819D01*
X158071428Y-123134819D02*
X157928571Y-123087200D01*
X157928571Y-123087200D02*
X157833333Y-122991961D01*
X157833333Y-122991961D02*
X157785714Y-122896723D01*
X157785714Y-122896723D02*
X157738095Y-122706247D01*
X157738095Y-122706247D02*
X157738095Y-122563390D01*
X157738095Y-122563390D02*
X157785714Y-122372914D01*
X157785714Y-122372914D02*
X157833333Y-122277676D01*
X157833333Y-122277676D02*
X157928571Y-122182438D01*
X157928571Y-122182438D02*
X158071428Y-122134819D01*
X158071428Y-122134819D02*
X158166666Y-122134819D01*
X158166666Y-122134819D02*
X158309523Y-122182438D01*
X158309523Y-122182438D02*
X158357142Y-122230057D01*
X158738095Y-122230057D02*
X158785714Y-122182438D01*
X158785714Y-122182438D02*
X158880952Y-122134819D01*
X158880952Y-122134819D02*
X159119047Y-122134819D01*
X159119047Y-122134819D02*
X159214285Y-122182438D01*
X159214285Y-122182438D02*
X159261904Y-122230057D01*
X159261904Y-122230057D02*
X159309523Y-122325295D01*
X159309523Y-122325295D02*
X159309523Y-122420533D01*
X159309523Y-122420533D02*
X159261904Y-122563390D01*
X159261904Y-122563390D02*
X158690476Y-123134819D01*
X158690476Y-123134819D02*
X159309523Y-123134819D01*
X160166666Y-122468152D02*
X160166666Y-123134819D01*
X159928571Y-122087200D02*
X159690476Y-122801485D01*
X159690476Y-122801485D02*
X160309523Y-122801485D01*
X124954819Y-124704166D02*
X124478628Y-125037499D01*
X124954819Y-125275594D02*
X123954819Y-125275594D01*
X123954819Y-125275594D02*
X123954819Y-124894642D01*
X123954819Y-124894642D02*
X124002438Y-124799404D01*
X124002438Y-124799404D02*
X124050057Y-124751785D01*
X124050057Y-124751785D02*
X124145295Y-124704166D01*
X124145295Y-124704166D02*
X124288152Y-124704166D01*
X124288152Y-124704166D02*
X124383390Y-124751785D01*
X124383390Y-124751785D02*
X124431009Y-124799404D01*
X124431009Y-124799404D02*
X124478628Y-124894642D01*
X124478628Y-124894642D02*
X124478628Y-125275594D01*
X123954819Y-123847023D02*
X123954819Y-124037499D01*
X123954819Y-124037499D02*
X124002438Y-124132737D01*
X124002438Y-124132737D02*
X124050057Y-124180356D01*
X124050057Y-124180356D02*
X124192914Y-124275594D01*
X124192914Y-124275594D02*
X124383390Y-124323213D01*
X124383390Y-124323213D02*
X124764342Y-124323213D01*
X124764342Y-124323213D02*
X124859580Y-124275594D01*
X124859580Y-124275594D02*
X124907200Y-124227975D01*
X124907200Y-124227975D02*
X124954819Y-124132737D01*
X124954819Y-124132737D02*
X124954819Y-123942261D01*
X124954819Y-123942261D02*
X124907200Y-123847023D01*
X124907200Y-123847023D02*
X124859580Y-123799404D01*
X124859580Y-123799404D02*
X124764342Y-123751785D01*
X124764342Y-123751785D02*
X124526247Y-123751785D01*
X124526247Y-123751785D02*
X124431009Y-123799404D01*
X124431009Y-123799404D02*
X124383390Y-123847023D01*
X124383390Y-123847023D02*
X124335771Y-123942261D01*
X124335771Y-123942261D02*
X124335771Y-124132737D01*
X124335771Y-124132737D02*
X124383390Y-124227975D01*
X124383390Y-124227975D02*
X124431009Y-124275594D01*
X124431009Y-124275594D02*
X124526247Y-124323213D01*
%TO.C,R10*%
D12*
X130765000Y-64727064D02*
X130765000Y-64272936D01*
X132235000Y-64727064D02*
X132235000Y-64272936D01*
%TO.C,Q1*%
X112460000Y-69920000D02*
X111660000Y-69920000D01*
X112460000Y-69920000D02*
X113260000Y-69920000D01*
X113260000Y-69920000D02*
X113260000Y-70850000D01*
X113260000Y-73080000D02*
X111800000Y-73080000D01*
X113260000Y-73080000D02*
X113260000Y-72150000D01*
X111160000Y-69890000D02*
X110920000Y-69560000D01*
X111400000Y-69560000D01*
X111160000Y-69890000D01*
G36*
X111160000Y-69890000D02*
G01*
X110920000Y-69560000D01*
X111400000Y-69560000D01*
X111160000Y-69890000D01*
G37*
%TO.C,C10*%
X153765000Y-58761252D02*
X153765000Y-58238748D01*
X155235000Y-58761252D02*
X155235000Y-58238748D01*
%TO.C,R12*%
X138265000Y-118772936D02*
X138265000Y-119227064D01*
X139735000Y-118772936D02*
X139735000Y-119227064D01*
%TO.C,J1*%
D13*
X119000000Y-128400000D02*
X140600000Y-128400000D01*
X140600000Y-141000000D01*
X119000000Y-141000000D01*
X119000000Y-128400000D01*
%TO.C,R5*%
D12*
X129265000Y-124764564D02*
X129265000Y-124310436D01*
X130735000Y-124764564D02*
X130735000Y-124310436D01*
%TO.C,R8*%
X114265000Y-75727064D02*
X114265000Y-75272936D01*
X115735000Y-75727064D02*
X115735000Y-75272936D01*
%TO.C,SW_RESET1*%
X93750000Y-49250000D02*
X93750000Y-50750000D01*
X95000000Y-53250000D02*
X99500000Y-53250000D01*
X99500000Y-46750000D02*
X95000000Y-46750000D01*
X100750000Y-50750000D02*
X100750000Y-49250000D01*
%TO.C,J_BAT1*%
X179700000Y-125550000D02*
X179700000Y-130450000D01*
X179700000Y-127900000D02*
X180200000Y-127900000D01*
X179700000Y-128000000D02*
X180200000Y-128000000D01*
X179700000Y-130450000D02*
X183200000Y-130450000D01*
X180200000Y-127900000D02*
X180200000Y-128100000D01*
X180200000Y-128100000D02*
X179700000Y-128100000D01*
X181200000Y-124940000D02*
X181200000Y-125550000D01*
X181200000Y-131060000D02*
X181200000Y-130450000D01*
X182500000Y-124940000D02*
X182500000Y-125550000D01*
X182500000Y-131060000D02*
X182500000Y-130450000D01*
X183200000Y-125550000D02*
X179700000Y-125550000D01*
X183200000Y-127500000D02*
X183200000Y-125550000D01*
X183200000Y-128500000D02*
X183810000Y-128500000D01*
X183200000Y-130450000D02*
X183200000Y-128500000D01*
X183810000Y-126700000D02*
X184010000Y-126700000D01*
X183810000Y-127500000D02*
X183200000Y-127500000D01*
X183910000Y-126700000D02*
X183910000Y-126400000D01*
X184010000Y-126400000D02*
X183810000Y-126400000D01*
X184010000Y-126700000D02*
X184010000Y-126400000D01*
X184110000Y-124640000D02*
X182860000Y-124640000D01*
X184110000Y-125890000D02*
X184110000Y-124640000D01*
X179090000Y-124940000D02*
X183810000Y-124940000D01*
X183810000Y-131060000D01*
X179090000Y-131060000D01*
X179090000Y-124940000D01*
%TO.C,C16*%
X88265000Y-131738748D02*
X88265000Y-132261252D01*
X89735000Y-131738748D02*
X89735000Y-132261252D01*
%TO.C,SW1*%
D13*
X122785979Y-99823465D02*
X132486714Y-95805289D01*
X141117488Y-106842599D02*
X125694373Y-106844949D01*
X141117488Y-106842599D02*
X150818224Y-102824423D01*
X147909829Y-95802939D02*
X132486714Y-95805289D01*
X125694373Y-106844949D02*
G75*
G02*
X122785979Y-99823464I-1501551J3491128D01*
G01*
X147909829Y-95802939D02*
G75*
G02*
X150818224Y-102824423I1454198J-3510742D01*
G01*
%TO.C,U1*%
D12*
X86600000Y-76900000D02*
X92800000Y-76900000D01*
X86600000Y-95300000D02*
X86600000Y-76900000D01*
X86600000Y-95300000D02*
X92800000Y-95300000D01*
X111450000Y-95300000D02*
X112450000Y-95300000D01*
X112450000Y-76900000D02*
X111450000Y-76900000D01*
X112450000Y-76900000D02*
X112450000Y-78400000D01*
X112450000Y-95300000D02*
X112450000Y-93800000D01*
X93475000Y-95300000D02*
X93475000Y-95800000D01*
X92975000Y-95300000D01*
X93475000Y-95300000D01*
G36*
X93475000Y-95800000D02*
G01*
X92975000Y-95300000D01*
X93475000Y-95300000D01*
X93475000Y-95800000D01*
G37*
%TO.C,SW2*%
D14*
X120000000Y-122650000D02*
G75*
G02*
X89000000Y-122650000I-15500000J0D01*
G01*
X89000000Y-122650000D02*
G75*
G02*
X120000000Y-122650000I15500000J0D01*
G01*
%TO.C,C5*%
D12*
X141265000Y-58798752D02*
X141265000Y-58276248D01*
X142735000Y-58798752D02*
X142735000Y-58276248D01*
%TO.C,U3*%
X165940000Y-57750000D02*
X165940000Y-56950000D01*
X165940000Y-57750000D02*
X165940000Y-58550000D01*
X169160000Y-58750000D02*
X169160000Y-56950000D01*
X165990000Y-59050000D02*
X165660000Y-59290000D01*
X165660000Y-58810000D01*
X165990000Y-59050000D01*
G36*
X165990000Y-59050000D02*
G01*
X165660000Y-59290000D01*
X165660000Y-58810000D01*
X165990000Y-59050000D01*
G37*
%TO.C,C25*%
X163798752Y-120265000D02*
X163276248Y-120265000D01*
X163798752Y-121735000D02*
X163276248Y-121735000D01*
%TO.C,C12*%
X134765000Y-112776248D02*
X134765000Y-113298752D01*
X136235000Y-112776248D02*
X136235000Y-113298752D01*
%TO.C,R7*%
X118272936Y-64765000D02*
X118727064Y-64765000D01*
X118272936Y-66235000D02*
X118727064Y-66235000D01*
%TO.C,C14*%
X111265000Y-102276248D02*
X111265000Y-102798752D01*
X112735000Y-102276248D02*
X112735000Y-102798752D01*
%TO.C,U5*%
D13*
X117000000Y-67000000D02*
X156000000Y-67000000D01*
X156000000Y-95000000D01*
X117000000Y-95000000D01*
X117000000Y-67000000D01*
%TO.C,R9*%
D12*
X126765000Y-64727064D02*
X126765000Y-64272936D01*
X128235000Y-64727064D02*
X128235000Y-64272936D01*
%TO.C,C4*%
X136090000Y-59248752D02*
X136090000Y-57826248D01*
X137910000Y-59248752D02*
X137910000Y-57826248D01*
%TO.C,C8*%
X132765000Y-118738748D02*
X132765000Y-119261252D01*
X134235000Y-118738748D02*
X134235000Y-119261252D01*
%TO.C,C9*%
X149265000Y-58773752D02*
X149265000Y-58251248D01*
X150735000Y-58773752D02*
X150735000Y-58251248D01*
%TO.C,R4*%
X177227064Y-50765000D02*
X176772936Y-50765000D01*
X177227064Y-52235000D02*
X176772936Y-52235000D01*
%TO.C,C15*%
X95761252Y-103765000D02*
X95238748Y-103765000D01*
X95761252Y-105235000D02*
X95238748Y-105235000D01*
%TO.C,C2*%
X178238748Y-104265000D02*
X178761252Y-104265000D01*
X178238748Y-105735000D02*
X178761252Y-105735000D01*
%TO.C,C17*%
X151238748Y-49765000D02*
X151761252Y-49765000D01*
X151238748Y-51235000D02*
X151761252Y-51235000D01*
%TO.C,C23*%
X163261252Y-88265000D02*
X162738748Y-88265000D01*
X163261252Y-89735000D02*
X162738748Y-89735000D01*
%TO.C,C1*%
X178238748Y-100765000D02*
X178761252Y-100765000D01*
X178238748Y-102235000D02*
X178761252Y-102235000D01*
%TO.C,C18*%
X142276248Y-49765000D02*
X142798752Y-49765000D01*
X142276248Y-51235000D02*
X142798752Y-51235000D01*
%TO.C,C6*%
X145265000Y-58798752D02*
X145265000Y-58276248D01*
X146735000Y-58798752D02*
X146735000Y-58276248D01*
%TO.C,U4*%
D13*
X163800000Y-65800000D02*
X184200000Y-65800000D01*
X184200000Y-86200000D01*
X163800000Y-86200000D01*
X163800000Y-65800000D01*
%TO.C,C21*%
D12*
X121738748Y-117765000D02*
X122261252Y-117765000D01*
X121738748Y-119235000D02*
X122261252Y-119235000D01*
%TO.C,C20*%
X101723752Y-103765000D02*
X101201248Y-103765000D01*
X101723752Y-105235000D02*
X101201248Y-105235000D01*
%TO.C,JP1*%
X112600000Y-65500000D02*
X115400000Y-65500000D01*
X112600000Y-67500000D02*
X112600000Y-65500000D01*
X115400000Y-65500000D02*
X115400000Y-67500000D01*
X115400000Y-67500000D02*
X112600000Y-67500000D01*
%TO.C,SW_VOLDOWN1*%
D14*
X138425000Y-41650000D02*
X145825000Y-41650000D01*
X145825000Y-46650000D01*
X138425000Y-46650000D01*
X138425000Y-41650000D01*
%TO.C,C11*%
D12*
X139765000Y-112738748D02*
X139765000Y-113261252D01*
X141235000Y-112738748D02*
X141235000Y-113261252D01*
%TO.C,R11*%
X168227064Y-118265000D02*
X167772936Y-118265000D01*
X168227064Y-119735000D02*
X167772936Y-119735000D01*
%TO.C,SW_BOOT1*%
X104750000Y-49500000D02*
X104750000Y-51000000D01*
X106000000Y-53500000D02*
X110500000Y-53500000D01*
X110500000Y-47000000D02*
X106000000Y-47000000D01*
X111750000Y-51000000D02*
X111750000Y-49500000D01*
%TO.C,Q2*%
X174990000Y-117920000D02*
X174990000Y-118850000D01*
X174990000Y-117920000D02*
X176450000Y-117920000D01*
X174990000Y-121080000D02*
X174990000Y-120150000D01*
X175790000Y-121080000D02*
X174990000Y-121080000D01*
X175790000Y-121080000D02*
X176590000Y-121080000D01*
X177090000Y-121110000D02*
X177330000Y-121440000D01*
X176850000Y-121440000D01*
X177090000Y-121110000D01*
G36*
X177330000Y-121440000D02*
G01*
X176850000Y-121440000D01*
X177090000Y-121110000D01*
X177330000Y-121440000D01*
G37*
%TO.C,SW_VOLUP1*%
D14*
X147925000Y-41650000D02*
X155325000Y-41650000D01*
X155325000Y-46650000D01*
X147925000Y-46650000D01*
X147925000Y-41650000D01*
%TO.C,C3*%
D12*
X178201248Y-107765000D02*
X178723752Y-107765000D01*
X178201248Y-109235000D02*
X178723752Y-109235000D01*
%TO.C,C22*%
X160355113Y-94283000D02*
X160355113Y-93717000D01*
X160395113Y-94517000D02*
X160395113Y-93483000D01*
X160435113Y-94677000D02*
X160435113Y-93323000D01*
X160475113Y-94805000D02*
X160475113Y-93195000D01*
X160515113Y-94914000D02*
X160515113Y-93086000D01*
X160555113Y-95011000D02*
X160555113Y-92989000D01*
X160595113Y-95098000D02*
X160595113Y-92902000D01*
X160635113Y-95177000D02*
X160635113Y-92823000D01*
X160675113Y-92960000D02*
X160675113Y-92749000D01*
X160675113Y-95251000D02*
X160675113Y-95040000D01*
X160715113Y-92960000D02*
X160715113Y-92681000D01*
X160715113Y-95319000D02*
X160715113Y-95040000D01*
X160755113Y-92960000D02*
X160755113Y-92617000D01*
X160755113Y-95383000D02*
X160755113Y-95040000D01*
X160795113Y-92960000D02*
X160795113Y-92557000D01*
X160795113Y-95443000D02*
X160795113Y-95040000D01*
X160835113Y-92960000D02*
X160835113Y-92501000D01*
X160835113Y-95499000D02*
X160835113Y-95040000D01*
X160875113Y-92960000D02*
X160875113Y-92447000D01*
X160875113Y-95553000D02*
X160875113Y-95040000D01*
X160915113Y-92960000D02*
X160915113Y-92396000D01*
X160915113Y-95604000D02*
X160915113Y-95040000D01*
X160955113Y-92960000D02*
X160955113Y-92348000D01*
X160955113Y-95652000D02*
X160955113Y-95040000D01*
X160995113Y-92960000D02*
X160995113Y-92301000D01*
X160995113Y-95699000D02*
X160995113Y-95040000D01*
X161035113Y-92960000D02*
X161035113Y-92257000D01*
X161035113Y-95743000D02*
X161035113Y-95040000D01*
X161075113Y-92960000D02*
X161075113Y-92215000D01*
X161075113Y-95785000D02*
X161075113Y-95040000D01*
X161115113Y-92960000D02*
X161115113Y-92175000D01*
X161115113Y-95825000D02*
X161115113Y-95040000D01*
X161155113Y-92960000D02*
X161155113Y-92136000D01*
X161155113Y-95864000D02*
X161155113Y-95040000D01*
X161195113Y-92960000D02*
X161195113Y-92099000D01*
X161195113Y-95901000D02*
X161195113Y-95040000D01*
X161235113Y-92960000D02*
X161235113Y-92064000D01*
X161235113Y-95936000D02*
X161235113Y-95040000D01*
X161275113Y-92960000D02*
X161275113Y-92030000D01*
X161275113Y-95970000D02*
X161275113Y-95040000D01*
X161315113Y-92960000D02*
X161315113Y-91997000D01*
X161315113Y-96003000D02*
X161315113Y-95040000D01*
X161355113Y-92960000D02*
X161355113Y-91965000D01*
X161355113Y-96035000D02*
X161355113Y-95040000D01*
X161395113Y-92960000D02*
X161395113Y-91935000D01*
X161395113Y-96065000D02*
X161395113Y-95040000D01*
X161435113Y-92960000D02*
X161435113Y-91906000D01*
X161435113Y-96094000D02*
X161435113Y-95040000D01*
X161475113Y-92960000D02*
X161475113Y-91878000D01*
X161475113Y-96122000D02*
X161475113Y-95040000D01*
X161515113Y-92960000D02*
X161515113Y-91851000D01*
X161515113Y-96149000D02*
X161515113Y-95040000D01*
X161555113Y-92960000D02*
X161555113Y-91825000D01*
X161555113Y-96175000D02*
X161555113Y-95040000D01*
X161595113Y-92960000D02*
X161595113Y-91801000D01*
X161595113Y-96199000D02*
X161595113Y-95040000D01*
X161635113Y-92960000D02*
X161635113Y-91777000D01*
X161635113Y-96223000D02*
X161635113Y-95040000D01*
X161675113Y-92960000D02*
X161675113Y-91754000D01*
X161675113Y-96246000D02*
X161675113Y-95040000D01*
X161715113Y-92960000D02*
X161715113Y-91732000D01*
X161715113Y-96268000D02*
X161715113Y-95040000D01*
X161755113Y-92960000D02*
X161755113Y-91711000D01*
X161755113Y-96289000D02*
X161755113Y-95040000D01*
X161795113Y-92960000D02*
X161795113Y-91691000D01*
X161795113Y-96309000D02*
X161795113Y-95040000D01*
X161835113Y-92960000D02*
X161835113Y-91671000D01*
X161835113Y-96329000D02*
X161835113Y-95040000D01*
X161875113Y-92960000D02*
X161875113Y-91653000D01*
X161875113Y-96347000D02*
X161875113Y-95040000D01*
X161915113Y-92960000D02*
X161915113Y-91635000D01*
X161915113Y-96365000D02*
X161915113Y-95040000D01*
X161955113Y-92960000D02*
X161955113Y-91618000D01*
X161955113Y-96382000D02*
X161955113Y-95040000D01*
X161995113Y-92960000D02*
X161995113Y-91602000D01*
X161995113Y-96398000D02*
X161995113Y-95040000D01*
X162035113Y-92960000D02*
X162035113Y-91587000D01*
X162035113Y-96413000D02*
X162035113Y-95040000D01*
X162075113Y-92960000D02*
X162075113Y-91572000D01*
X162075113Y-96428000D02*
X162075113Y-95040000D01*
X162115113Y-92960000D02*
X162115113Y-91558000D01*
X162115113Y-96442000D02*
X162115113Y-95040000D01*
X162155113Y-92960000D02*
X162155113Y-91545000D01*
X162155113Y-96455000D02*
X162155113Y-95040000D01*
X162195113Y-92960000D02*
X162195113Y-91533000D01*
X162195113Y-96467000D02*
X162195113Y-95040000D01*
X162235113Y-92960000D02*
X162235113Y-91521000D01*
X162235113Y-96479000D02*
X162235113Y-95040000D01*
X162275113Y-92960000D02*
X162275113Y-91510000D01*
X162275113Y-96490000D02*
X162275113Y-95040000D01*
X162315113Y-92960000D02*
X162315113Y-91499000D01*
X162315113Y-96501000D02*
X162315113Y-95040000D01*
X162355113Y-92960000D02*
X162355113Y-91490000D01*
X162355113Y-96510000D02*
X162355113Y-95040000D01*
X162395113Y-92960000D02*
X162395113Y-91481000D01*
X162395113Y-96519000D02*
X162395113Y-95040000D01*
X162435113Y-92960000D02*
X162435113Y-91472000D01*
X162435113Y-96528000D02*
X162435113Y-95040000D01*
X162475113Y-92960000D02*
X162475113Y-91464000D01*
X162475113Y-96536000D02*
X162475113Y-95040000D01*
X162515113Y-92960000D02*
X162515113Y-91457000D01*
X162515113Y-96543000D02*
X162515113Y-95040000D01*
X162555113Y-92960000D02*
X162555113Y-91451000D01*
X162555113Y-96549000D02*
X162555113Y-95040000D01*
X162595113Y-92960000D02*
X162595113Y-91445000D01*
X162595113Y-96555000D02*
X162595113Y-95040000D01*
X162635113Y-92960000D02*
X162635113Y-91440000D01*
X162635113Y-96560000D02*
X162635113Y-95040000D01*
X162675113Y-92960000D02*
X162675113Y-91435000D01*
X162675113Y-96565000D02*
X162675113Y-95040000D01*
X162715113Y-92960000D02*
X162715113Y-91431000D01*
X162715113Y-96569000D02*
X162715113Y-95040000D01*
X162755113Y-96572000D02*
X162755113Y-91428000D01*
X162795113Y-96575000D02*
X162795113Y-91425000D01*
X162835113Y-96577000D02*
X162835113Y-91423000D01*
X162875113Y-96579000D02*
X162875113Y-91421000D01*
X162915113Y-96580000D02*
X162915113Y-91420000D01*
X162955113Y-96580000D02*
X162955113Y-91420000D01*
X165509888Y-95725000D02*
X165509888Y-95225000D01*
X165759888Y-95475000D02*
X165259888Y-95475000D01*
X165575113Y-94000000D02*
G75*
G02*
X160335113Y-94000000I-2620000J0D01*
G01*
X160335113Y-94000000D02*
G75*
G02*
X165575113Y-94000000I2620000J0D01*
G01*
%TO.C,C7*%
X95201248Y-57765000D02*
X95723752Y-57765000D01*
X95201248Y-59235000D02*
X95723752Y-59235000D01*
%TO.C,R1*%
X95689564Y-60265000D02*
X95235436Y-60265000D01*
X95689564Y-61735000D02*
X95235436Y-61735000D01*
%TO.C,SW_PWR1*%
D14*
X167500000Y-41500000D02*
X177500000Y-41500000D01*
X177500000Y-47500000D01*
X167500000Y-47500000D01*
X167500000Y-41500000D01*
%TO.C,U7*%
D13*
X148500000Y-123800000D02*
X176500000Y-123800000D01*
X176500000Y-141200000D01*
X148500000Y-141200000D01*
X148500000Y-123800000D01*
%TO.C,U2*%
D12*
X135250000Y-126560000D02*
X137050000Y-126560000D01*
X136250000Y-123340000D02*
X135450000Y-123340000D01*
X136250000Y-123340000D02*
X137050000Y-123340000D01*
X134950000Y-123390000D02*
X134710000Y-123060000D01*
X135190000Y-123060000D01*
X134950000Y-123390000D01*
G36*
X134950000Y-123390000D02*
G01*
X134710000Y-123060000D01*
X135190000Y-123060000D01*
X134950000Y-123390000D01*
G37*
%TO.C,J_SPK1*%
X176890000Y-63610000D02*
X176890000Y-64860000D01*
X176890000Y-64860000D02*
X178140000Y-64860000D01*
X176990000Y-62800000D02*
X176990000Y-63100000D01*
X176990000Y-63100000D02*
X177190000Y-63100000D01*
X177090000Y-62800000D02*
X177090000Y-63100000D01*
X177190000Y-62000000D02*
X177800000Y-62000000D01*
X177190000Y-62800000D02*
X176990000Y-62800000D01*
X177800000Y-59050000D02*
X177800000Y-61000000D01*
X177800000Y-61000000D02*
X177190000Y-61000000D01*
X177800000Y-62000000D02*
X177800000Y-63950000D01*
X177800000Y-63950000D02*
X181300000Y-63950000D01*
X178500000Y-58440000D02*
X178500000Y-59050000D01*
X178500000Y-64560000D02*
X178500000Y-63950000D01*
X179800000Y-58440000D02*
X179800000Y-59050000D01*
X179800000Y-64560000D02*
X179800000Y-63950000D01*
X180800000Y-61400000D02*
X181300000Y-61400000D01*
X180800000Y-61600000D02*
X180800000Y-61400000D01*
X181300000Y-59050000D02*
X177800000Y-59050000D01*
X181300000Y-61500000D02*
X180800000Y-61500000D01*
X181300000Y-61600000D02*
X180800000Y-61600000D01*
X181300000Y-63950000D02*
X181300000Y-59050000D01*
X177190000Y-58440000D02*
X181910000Y-58440000D01*
X181910000Y-64560000D01*
X177190000Y-64560000D01*
X177190000Y-58440000D01*
%TO.C,SW8*%
D13*
X164101904Y-99045577D02*
X149254760Y-104449495D01*
X169745236Y-114550505D02*
X154898093Y-119954423D01*
X154898093Y-119954423D02*
G75*
G02*
X149254760Y-104449495I-2821666J7752464D01*
G01*
X164101904Y-99045577D02*
G75*
G02*
X169745236Y-114550505I2821666J-7752464D01*
G01*
%TO.C,R2*%
D12*
X106227064Y-58265000D02*
X105772936Y-58265000D01*
X106227064Y-59735000D02*
X105772936Y-59735000D01*
%TO.C,C13*%
X115765000Y-102276248D02*
X115765000Y-102798752D01*
X117235000Y-102276248D02*
X117235000Y-102798752D01*
%TO.C,FB1*%
X172589758Y-95940000D02*
X173410242Y-95940000D01*
X172589758Y-97060000D02*
X173410242Y-97060000D01*
%TO.C,U6*%
D13*
X114000000Y-41770000D02*
X134000000Y-41770000D01*
X134000000Y-61770000D01*
X114000000Y-61770000D01*
X114000000Y-41770000D01*
%TO.C,C24*%
D12*
X159261252Y-120265000D02*
X158738748Y-120265000D01*
X159261252Y-121735000D02*
X158738748Y-121735000D01*
%TO.C,R6*%
X125265000Y-124764564D02*
X125265000Y-124310436D01*
X126735000Y-124764564D02*
X126735000Y-124310436D01*
%TD*%
%LPC*%
%TO.C,JP1*%
G36*
X113850000Y-65750000D02*
G01*
X114150000Y-65750000D01*
X114150000Y-67250000D01*
X113850000Y-67250000D01*
X113850000Y-65750000D01*
G37*
%TD*%
D15*
%TO.C,R10*%
X131500000Y-65500000D03*
X131500000Y-63500000D03*
%TD*%
D16*
%TO.C,Q1*%
X111000000Y-70550000D03*
X111000000Y-72450000D03*
X114000000Y-71500000D03*
%TD*%
D17*
%TO.C,C10*%
X154500000Y-59537500D03*
X154500000Y-57462500D03*
%TD*%
D18*
%TO.C,R12*%
X139000000Y-118000000D03*
X139000000Y-120000000D03*
%TD*%
D19*
%TO.C,J1*%
X121750000Y-138250000D03*
X137850000Y-138250000D03*
D20*
X123500000Y-129500000D03*
D21*
X126040000Y-129500000D03*
X128580000Y-129500000D03*
X131120000Y-129500000D03*
X133660000Y-129500000D03*
X136200000Y-129500000D03*
%TD*%
D15*
%TO.C,R5*%
X130000000Y-125537500D03*
X130000000Y-123537500D03*
%TD*%
%TO.C,R8*%
X115000000Y-76500000D03*
X115000000Y-74500000D03*
%TD*%
D22*
%TO.C,SW_RESET1*%
X94000000Y-47750000D03*
X100500000Y-47750000D03*
X94000000Y-52250000D03*
X100500000Y-52250000D03*
%TD*%
D23*
%TO.C,J_BAT1*%
X182000000Y-127000000D03*
D24*
X182000000Y-129000000D03*
%TD*%
D25*
%TO.C,C16*%
X89000000Y-130962500D03*
X89000000Y-133037500D03*
%TD*%
D26*
%TO.C,SW1*%
X146499948Y-100149976D03*
X146500052Y-100850024D03*
X141049058Y-102407808D03*
X141049163Y-103107856D03*
X146500000Y-100500000D03*
X141049111Y-102757832D03*
X132139293Y-99712239D03*
X132139398Y-100412287D03*
X126873180Y-101893535D03*
X126873285Y-102593583D03*
X132139346Y-100062263D03*
X126873233Y-102243559D03*
%TD*%
D27*
%TO.C,U1*%
X94240000Y-94850000D03*
X95510000Y-94850000D03*
X96780000Y-94850000D03*
X98050000Y-94850000D03*
X99320000Y-94850000D03*
X100590000Y-94850000D03*
X101860000Y-94850000D03*
X103130000Y-94850000D03*
X104400000Y-94850000D03*
X105670000Y-94850000D03*
X106940000Y-94850000D03*
X108210000Y-94850000D03*
X109480000Y-94850000D03*
X110750000Y-94850000D03*
D28*
X112000000Y-93085000D03*
X112000000Y-91815000D03*
X112000000Y-90545000D03*
X112000000Y-89275000D03*
X112000000Y-88005000D03*
X112000000Y-86735000D03*
X112000000Y-85465000D03*
X112000000Y-84195000D03*
X112000000Y-82925000D03*
X112000000Y-81655000D03*
X112000000Y-80385000D03*
X112000000Y-79115000D03*
D27*
X110750000Y-77350000D03*
X109480000Y-77350000D03*
X108210000Y-77350000D03*
X106940000Y-77350000D03*
X105670000Y-77350000D03*
X104400000Y-77350000D03*
X103130000Y-77350000D03*
X101860000Y-77350000D03*
X100590000Y-77350000D03*
X99320000Y-77350000D03*
X98050000Y-77350000D03*
X96780000Y-77350000D03*
X95510000Y-77350000D03*
X94240000Y-77350000D03*
D29*
X101260000Y-89000000D03*
X102660000Y-89000000D03*
X100560000Y-88300000D03*
X101960000Y-88300000D03*
X103360000Y-88300000D03*
X101260000Y-87600000D03*
D30*
X101960000Y-87600000D03*
D29*
X102660000Y-87600000D03*
X100560000Y-86900000D03*
X101960000Y-86900000D03*
X103360000Y-86900000D03*
X101260000Y-86200000D03*
X102660000Y-86200000D03*
%TD*%
D31*
%TO.C,SW2*%
X104500000Y-112600000D03*
X104500000Y-113800000D03*
X104500000Y-115000000D03*
X104500000Y-113200000D03*
X104500000Y-114400000D03*
X104500000Y-130300000D03*
X104500000Y-131500000D03*
X104500000Y-132700000D03*
X104500000Y-130900000D03*
X104500000Y-132100000D03*
X95660000Y-121440000D03*
X95660000Y-122640000D03*
X95660000Y-123840000D03*
X95660000Y-122040000D03*
X95660000Y-123240000D03*
X113340000Y-121440000D03*
X113340000Y-122640000D03*
X113340000Y-123840000D03*
X113340000Y-122040000D03*
X113340000Y-123240000D03*
%TD*%
D17*
%TO.C,C5*%
X142000000Y-59575000D03*
X142000000Y-57500000D03*
%TD*%
D32*
%TO.C,U3*%
X166600000Y-59200000D03*
X167550000Y-59200000D03*
X168500000Y-59200000D03*
X168500000Y-56500000D03*
X166600000Y-56500000D03*
%TD*%
D33*
%TO.C,C25*%
X164575000Y-121000000D03*
X162500000Y-121000000D03*
%TD*%
D25*
%TO.C,C12*%
X135500000Y-112000000D03*
X135500000Y-114075000D03*
%TD*%
D34*
%TO.C,R7*%
X117500000Y-65500000D03*
X119500000Y-65500000D03*
%TD*%
D25*
%TO.C,C14*%
X112000000Y-101500000D03*
X112000000Y-103575000D03*
%TD*%
D35*
%TO.C,U5*%
X119200000Y-92500000D03*
X153500000Y-92500000D03*
X119100000Y-69500000D03*
X153600000Y-69500000D03*
D20*
X118100000Y-89000000D03*
D21*
X118100000Y-86460000D03*
X118100000Y-83920000D03*
X118100000Y-81380000D03*
X118100000Y-78840000D03*
X118100000Y-76300000D03*
X118100000Y-73760000D03*
%TD*%
D15*
%TO.C,R9*%
X127500000Y-65500000D03*
X127500000Y-63500000D03*
%TD*%
D36*
%TO.C,C4*%
X137000000Y-60100000D03*
X137000000Y-56975000D03*
%TD*%
D25*
%TO.C,C8*%
X133500000Y-117962500D03*
X133500000Y-120037500D03*
%TD*%
D17*
%TO.C,C9*%
X150000000Y-59550000D03*
X150000000Y-57475000D03*
%TD*%
D37*
%TO.C,R4*%
X178000000Y-51500000D03*
X176000000Y-51500000D03*
%TD*%
D33*
%TO.C,C15*%
X96537500Y-104500000D03*
X94462500Y-104500000D03*
%TD*%
D38*
%TO.C,C2*%
X177462500Y-105000000D03*
X179537500Y-105000000D03*
%TD*%
%TO.C,C17*%
X150462500Y-50500000D03*
X152537500Y-50500000D03*
%TD*%
D33*
%TO.C,C23*%
X164037500Y-89000000D03*
X161962500Y-89000000D03*
%TD*%
D38*
%TO.C,C1*%
X177462500Y-101500000D03*
X179537500Y-101500000D03*
%TD*%
%TO.C,C18*%
X141500000Y-50500000D03*
X143575000Y-50500000D03*
%TD*%
D17*
%TO.C,C6*%
X146000000Y-59575000D03*
X146000000Y-57500000D03*
%TD*%
D19*
%TO.C,U4*%
X181200000Y-68800000D03*
X181200000Y-83200000D03*
D20*
X164800000Y-68100000D03*
D21*
X164800000Y-70640000D03*
X164800000Y-73180000D03*
X164800000Y-75720000D03*
X164800000Y-78260000D03*
X164800000Y-80800000D03*
X164800000Y-83340000D03*
X181800000Y-74000000D03*
X181800000Y-78000000D03*
%TD*%
D38*
%TO.C,C21*%
X120962500Y-118500000D03*
X123037500Y-118500000D03*
%TD*%
D33*
%TO.C,C20*%
X102500000Y-104500000D03*
X100425000Y-104500000D03*
%TD*%
D39*
%TO.C,JP1*%
X113350000Y-66500000D03*
X114650000Y-66500000D03*
%TD*%
D40*
%TO.C,SW_VOLDOWN1*%
X142125000Y-45500000D03*
X142125000Y-42800000D03*
D41*
X144750000Y-45000000D03*
X139500000Y-45000000D03*
X144750000Y-43300000D03*
X139500000Y-43300000D03*
%TD*%
D25*
%TO.C,C11*%
X140500000Y-111962500D03*
X140500000Y-114037500D03*
%TD*%
D37*
%TO.C,R11*%
X169000000Y-119000000D03*
X167000000Y-119000000D03*
%TD*%
D22*
%TO.C,SW_BOOT1*%
X105000000Y-48000000D03*
X111500000Y-48000000D03*
X105000000Y-52500000D03*
X111500000Y-52500000D03*
%TD*%
D42*
%TO.C,Q2*%
X177250000Y-120450000D03*
X177250000Y-118550000D03*
X174250000Y-119500000D03*
%TD*%
D40*
%TO.C,SW_VOLUP1*%
X151625000Y-45500000D03*
X151625000Y-42800000D03*
D41*
X154250000Y-45000000D03*
X149000000Y-45000000D03*
X154250000Y-43300000D03*
X149000000Y-43300000D03*
%TD*%
D38*
%TO.C,C3*%
X177425000Y-108500000D03*
X179500000Y-108500000D03*
%TD*%
D43*
%TO.C,C22*%
X164205113Y-94000000D03*
D44*
X161705113Y-94000000D03*
%TD*%
D38*
%TO.C,C7*%
X94425000Y-58500000D03*
X96500000Y-58500000D03*
%TD*%
D37*
%TO.C,R1*%
X96462500Y-61000000D03*
X94462500Y-61000000D03*
%TD*%
D45*
%TO.C,SW_PWR1*%
X168300000Y-44500000D03*
X176700000Y-44500000D03*
D46*
X170500000Y-44500000D03*
D47*
X172500000Y-44500000D03*
X174500000Y-44500000D03*
%TD*%
D48*
%TO.C,U7*%
X149800000Y-125200000D03*
D35*
X149800000Y-139200000D03*
X172600000Y-125200000D03*
X172600000Y-128400000D03*
X172600000Y-136000000D03*
X172600000Y-139200000D03*
%TD*%
D49*
%TO.C,U2*%
X134800000Y-124000000D03*
X134800000Y-124950000D03*
X134800000Y-125900000D03*
X137500000Y-125900000D03*
X137500000Y-124950000D03*
X137500000Y-124000000D03*
%TD*%
D50*
%TO.C,J_SPK1*%
X179000000Y-62500000D03*
D24*
X179000000Y-60500000D03*
%TD*%
D31*
%TO.C,SW8*%
X166920199Y-107999235D03*
X166923570Y-106798041D03*
X166923558Y-105598079D03*
X166923576Y-107398022D03*
X166923564Y-106198060D03*
X152076439Y-113401922D03*
X152076427Y-112201959D03*
X152076415Y-111001997D03*
X152076434Y-112801940D03*
X152076421Y-111601978D03*
%TD*%
D37*
%TO.C,R2*%
X107000000Y-59000000D03*
X105000000Y-59000000D03*
%TD*%
D25*
%TO.C,C13*%
X116500000Y-101500000D03*
X116500000Y-103575000D03*
%TD*%
D51*
%TO.C,FB1*%
X171850000Y-96500000D03*
X174150000Y-96500000D03*
%TD*%
D52*
%TO.C,U6*%
X116380000Y-43990000D03*
X131620000Y-43990000D03*
D20*
X117650000Y-60500000D03*
D21*
X120190000Y-60500000D03*
X122730000Y-60500000D03*
X125270000Y-60500000D03*
X127810000Y-60500000D03*
X130350000Y-60500000D03*
%TD*%
D33*
%TO.C,C24*%
X160037500Y-121000000D03*
X157962500Y-121000000D03*
%TD*%
D15*
%TO.C,R6*%
X126000000Y-125537500D03*
X126000000Y-123537500D03*
%TD*%
%LPD*%
M02*
